G04*
G04 #@! TF.GenerationSoftware,Altium Limited,Altium Designer,24.2.2 (26)*
G04*
G04 Layer_Physical_Order=1*
G04 Layer_Color=5724159*
%FSLAX44Y44*%
%MOMM*%
G71*
G04*
G04 #@! TF.SameCoordinates,6A8CA8D3-F6E6-494B-9A6B-4A02BC4B17F5*
G04*
G04*
G04 #@! TF.FilePolarity,Positive*
G04*
G01*
G75*
%ADD12C,0.5000*%
%ADD14C,0.2000*%
%ADD15C,0.2540*%
G04:AMPARAMS|DCode=17|XSize=1.9mm|YSize=1.4mm|CornerRadius=0.35mm|HoleSize=0mm|Usage=FLASHONLY|Rotation=0.000|XOffset=0mm|YOffset=0mm|HoleType=Round|Shape=RoundedRectangle|*
%AMROUNDEDRECTD17*
21,1,1.9000,0.7000,0,0,0.0*
21,1,1.2000,1.4000,0,0,0.0*
1,1,0.7000,0.6000,-0.3500*
1,1,0.7000,-0.6000,-0.3500*
1,1,0.7000,-0.6000,0.3500*
1,1,0.7000,0.6000,0.3500*
%
%ADD17ROUNDEDRECTD17*%
%ADD18C,1.0000*%
%ADD19R,0.3000X1.1500*%
%ADD20R,0.6000X1.1500*%
G04:AMPARAMS|DCode=21|XSize=0.5213mm|YSize=1.1725mm|CornerRadius=0mm|HoleSize=0mm|Usage=FLASHONLY|Rotation=45.000|XOffset=0mm|YOffset=0mm|HoleType=Round|Shape=Rectangle|*
%AMROTATEDRECTD21*
4,1,4,0.2302,-0.5988,-0.5988,0.2302,-0.2302,0.5988,0.5988,-0.2302,0.2302,-0.5988,0.0*
%
%ADD21ROTATEDRECTD21*%

G04:AMPARAMS|DCode=22|XSize=1mm|YSize=1.05mm|CornerRadius=0.25mm|HoleSize=0mm|Usage=FLASHONLY|Rotation=90.000|XOffset=0mm|YOffset=0mm|HoleType=Round|Shape=RoundedRectangle|*
%AMROUNDEDRECTD22*
21,1,1.0000,0.5500,0,0,90.0*
21,1,0.5000,1.0500,0,0,90.0*
1,1,0.5000,0.2750,0.2500*
1,1,0.5000,0.2750,-0.2500*
1,1,0.5000,-0.2750,-0.2500*
1,1,0.5000,-0.2750,0.2500*
%
%ADD22ROUNDEDRECTD22*%
G04:AMPARAMS|DCode=23|XSize=0.9mm|YSize=0.8mm|CornerRadius=0.2mm|HoleSize=0mm|Usage=FLASHONLY|Rotation=0.000|XOffset=0mm|YOffset=0mm|HoleType=Round|Shape=RoundedRectangle|*
%AMROUNDEDRECTD23*
21,1,0.9000,0.4000,0,0,0.0*
21,1,0.5000,0.8000,0,0,0.0*
1,1,0.4000,0.2500,-0.2000*
1,1,0.4000,-0.2500,-0.2000*
1,1,0.4000,-0.2500,0.2000*
1,1,0.4000,0.2500,0.2000*
%
%ADD23ROUNDEDRECTD23*%
G04:AMPARAMS|DCode=24|XSize=0.9mm|YSize=0.85mm|CornerRadius=0.2125mm|HoleSize=0mm|Usage=FLASHONLY|Rotation=0.000|XOffset=0mm|YOffset=0mm|HoleType=Round|Shape=RoundedRectangle|*
%AMROUNDEDRECTD24*
21,1,0.9000,0.4250,0,0,0.0*
21,1,0.4750,0.8500,0,0,0.0*
1,1,0.4250,0.2375,-0.2125*
1,1,0.4250,-0.2375,-0.2125*
1,1,0.4250,-0.2375,0.2125*
1,1,0.4250,0.2375,0.2125*
%
%ADD24ROUNDEDRECTD24*%
G04:AMPARAMS|DCode=25|XSize=1mm|YSize=1.05mm|CornerRadius=0.25mm|HoleSize=0mm|Usage=FLASHONLY|Rotation=135.000|XOffset=0mm|YOffset=0mm|HoleType=Round|Shape=RoundedRectangle|*
%AMROUNDEDRECTD25*
21,1,1.0000,0.5500,0,0,135.0*
21,1,0.5000,1.0500,0,0,135.0*
1,1,0.5000,0.0177,0.3712*
1,1,0.5000,0.3712,0.0177*
1,1,0.5000,-0.0177,-0.3712*
1,1,0.5000,-0.3712,-0.0177*
%
%ADD25ROUNDEDRECTD25*%
G04:AMPARAMS|DCode=26|XSize=0.3mm|YSize=0.25mm|CornerRadius=0mm|HoleSize=0mm|Usage=FLASHONLY|Rotation=315.000|XOffset=0mm|YOffset=0mm|HoleType=Round|Shape=Rectangle|*
%AMROTATEDRECTD26*
4,1,4,-0.1945,0.0177,-0.0177,0.1945,0.1945,-0.0177,0.0177,-0.1945,-0.1945,0.0177,0.0*
%
%ADD26ROTATEDRECTD26*%

G04:AMPARAMS|DCode=27|XSize=0.3mm|YSize=0.25mm|CornerRadius=0mm|HoleSize=0mm|Usage=FLASHONLY|Rotation=225.000|XOffset=0mm|YOffset=0mm|HoleType=Round|Shape=Rectangle|*
%AMROTATEDRECTD27*
4,1,4,0.0177,0.1945,0.1945,0.0177,-0.0177,-0.1945,-0.1945,-0.0177,0.0177,0.1945,0.0*
%
%ADD27ROTATEDRECTD27*%

G04:AMPARAMS|DCode=28|XSize=0.3mm|YSize=1mm|CornerRadius=0mm|HoleSize=0mm|Usage=FLASHONLY|Rotation=225.000|XOffset=0mm|YOffset=0mm|HoleType=Round|Shape=Rectangle|*
%AMROTATEDRECTD28*
4,1,4,-0.2475,0.4596,0.4596,-0.2475,0.2475,-0.4596,-0.4596,0.2475,-0.2475,0.4596,0.0*
%
%ADD28ROTATEDRECTD28*%

G04:AMPARAMS|DCode=29|XSize=0.3mm|YSize=1mm|CornerRadius=0mm|HoleSize=0mm|Usage=FLASHONLY|Rotation=135.000|XOffset=0mm|YOffset=0mm|HoleType=Round|Shape=Rectangle|*
%AMROTATEDRECTD29*
4,1,4,0.4596,0.2475,-0.2475,-0.4596,-0.4596,-0.2475,0.2475,0.4596,0.4596,0.2475,0.0*
%
%ADD29ROTATEDRECTD29*%

%ADD30R,0.5000X0.6000*%
G04:AMPARAMS|DCode=31|XSize=1mm|YSize=1.05mm|CornerRadius=0.25mm|HoleSize=0mm|Usage=FLASHONLY|Rotation=0.000|XOffset=0mm|YOffset=0mm|HoleType=Round|Shape=RoundedRectangle|*
%AMROUNDEDRECTD31*
21,1,1.0000,0.5500,0,0,0.0*
21,1,0.5000,1.0500,0,0,0.0*
1,1,0.5000,0.2500,-0.2750*
1,1,0.5000,-0.2500,-0.2750*
1,1,0.5000,-0.2500,0.2750*
1,1,0.5000,0.2500,0.2750*
%
%ADD31ROUNDEDRECTD31*%
%ADD32R,0.3500X0.3500*%
%ADD33O,0.3000X1.0500*%
%ADD34R,0.6000X0.5000*%
G04:AMPARAMS|DCode=35|XSize=0.9mm|YSize=0.85mm|CornerRadius=0.2125mm|HoleSize=0mm|Usage=FLASHONLY|Rotation=270.000|XOffset=0mm|YOffset=0mm|HoleType=Round|Shape=RoundedRectangle|*
%AMROUNDEDRECTD35*
21,1,0.9000,0.4250,0,0,270.0*
21,1,0.4750,0.8500,0,0,270.0*
1,1,0.4250,-0.2125,-0.2375*
1,1,0.4250,-0.2125,0.2375*
1,1,0.4250,0.2125,0.2375*
1,1,0.4250,0.2125,-0.2375*
%
%ADD35ROUNDEDRECTD35*%
G04:AMPARAMS|DCode=36|XSize=0.6mm|YSize=1.2mm|CornerRadius=0.15mm|HoleSize=0mm|Usage=FLASHONLY|Rotation=180.000|XOffset=0mm|YOffset=0mm|HoleType=Round|Shape=RoundedRectangle|*
%AMROUNDEDRECTD36*
21,1,0.6000,0.9000,0,0,180.0*
21,1,0.3000,1.2000,0,0,180.0*
1,1,0.3000,-0.1500,0.4500*
1,1,0.3000,0.1500,0.4500*
1,1,0.3000,0.1500,-0.4500*
1,1,0.3000,-0.1500,-0.4500*
%
%ADD36ROUNDEDRECTD36*%
%ADD37R,0.8000X0.8000*%
G04:AMPARAMS|DCode=38|XSize=0.45mm|YSize=1.35mm|CornerRadius=0.0495mm|HoleSize=0mm|Usage=FLASHONLY|Rotation=270.000|XOffset=0mm|YOffset=0mm|HoleType=Round|Shape=RoundedRectangle|*
%AMROUNDEDRECTD38*
21,1,0.4500,1.2510,0,0,270.0*
21,1,0.3510,1.3500,0,0,270.0*
1,1,0.0990,-0.6255,-0.1755*
1,1,0.0990,-0.6255,0.1755*
1,1,0.0990,0.6255,0.1755*
1,1,0.0990,0.6255,-0.1755*
%
%ADD38ROUNDEDRECTD38*%
G04:AMPARAMS|DCode=39|XSize=1.65mm|YSize=4.41mm|CornerRadius=0.0495mm|HoleSize=0mm|Usage=FLASHONLY|Rotation=270.000|XOffset=0mm|YOffset=0mm|HoleType=Round|Shape=RoundedRectangle|*
%AMROUNDEDRECTD39*
21,1,1.6500,4.3110,0,0,270.0*
21,1,1.5510,4.4100,0,0,270.0*
1,1,0.0990,-2.1555,-0.7755*
1,1,0.0990,-2.1555,0.7755*
1,1,0.0990,2.1555,0.7755*
1,1,0.0990,2.1555,-0.7755*
%
%ADD39ROUNDEDRECTD39*%
G04:AMPARAMS|DCode=40|XSize=1.65mm|YSize=0.6mm|CornerRadius=0.051mm|HoleSize=0mm|Usage=FLASHONLY|Rotation=270.000|XOffset=0mm|YOffset=0mm|HoleType=Round|Shape=RoundedRectangle|*
%AMROUNDEDRECTD40*
21,1,1.6500,0.4980,0,0,270.0*
21,1,1.5480,0.6000,0,0,270.0*
1,1,0.1020,-0.2490,-0.7740*
1,1,0.1020,-0.2490,0.7740*
1,1,0.1020,0.2490,0.7740*
1,1,0.1020,0.2490,-0.7740*
%
%ADD40ROUNDEDRECTD40*%
%ADD41O,0.6000X2.0000*%
G04:AMPARAMS|DCode=42|XSize=1.6mm|YSize=1.15mm|CornerRadius=0.2875mm|HoleSize=0mm|Usage=FLASHONLY|Rotation=0.000|XOffset=0mm|YOffset=0mm|HoleType=Round|Shape=RoundedRectangle|*
%AMROUNDEDRECTD42*
21,1,1.6000,0.5750,0,0,0.0*
21,1,1.0250,1.1500,0,0,0.0*
1,1,0.5750,0.5125,-0.2875*
1,1,0.5750,-0.5125,-0.2875*
1,1,0.5750,-0.5125,0.2875*
1,1,0.5750,0.5125,0.2875*
%
%ADD42ROUNDEDRECTD42*%
%ADD43O,0.5000X1.6000*%
%ADD44O,2.4500X0.7000*%
G04:AMPARAMS|DCode=69|XSize=1mm|YSize=1.8mm|CornerRadius=0.5mm|HoleSize=0mm|Usage=FLASHONLY|Rotation=0.000|XOffset=0mm|YOffset=0mm|HoleType=Round|Shape=RoundedRectangle|*
%AMROUNDEDRECTD69*
21,1,1.0000,0.8000,0,0,0.0*
21,1,0.0000,1.8000,0,0,0.0*
1,1,1.0000,0.0000,-0.4000*
1,1,1.0000,0.0000,-0.4000*
1,1,1.0000,0.0000,0.4000*
1,1,1.0000,0.0000,0.4000*
%
%ADD69ROUNDEDRECTD69*%
G04:AMPARAMS|DCode=70|XSize=1mm|YSize=2.1mm|CornerRadius=0.5mm|HoleSize=0mm|Usage=FLASHONLY|Rotation=0.000|XOffset=0mm|YOffset=0mm|HoleType=Round|Shape=RoundedRectangle|*
%AMROUNDEDRECTD70*
21,1,1.0000,1.1000,0,0,0.0*
21,1,0.0000,2.1000,0,0,0.0*
1,1,1.0000,0.0000,-0.5500*
1,1,1.0000,0.0000,-0.5500*
1,1,1.0000,0.0000,0.5500*
1,1,1.0000,0.0000,0.5500*
%
%ADD70ROUNDEDRECTD70*%
%ADD71C,0.6500*%
%ADD81C,0.3000*%
%ADD82C,0.3810*%
%ADD83C,0.7000*%
%ADD84C,3.2000*%
%ADD85C,0.9500*%
G04:AMPARAMS|DCode=86|XSize=0.95mm|YSize=0.95mm|CornerRadius=0.2375mm|HoleSize=0mm|Usage=FLASHONLY|Rotation=270.000|XOffset=0mm|YOffset=0mm|HoleType=Round|Shape=RoundedRectangle|*
%AMROUNDEDRECTD86*
21,1,0.9500,0.4750,0,0,270.0*
21,1,0.4750,0.9500,0,0,270.0*
1,1,0.4750,-0.2375,-0.2375*
1,1,0.4750,-0.2375,0.2375*
1,1,0.4750,0.2375,0.2375*
1,1,0.4750,0.2375,-0.2375*
%
%ADD86ROUNDEDRECTD86*%
G04:AMPARAMS|DCode=87|XSize=1.95mm|YSize=1.95mm|CornerRadius=0.4875mm|HoleSize=0mm|Usage=FLASHONLY|Rotation=90.000|XOffset=0mm|YOffset=0mm|HoleType=Round|Shape=RoundedRectangle|*
%AMROUNDEDRECTD87*
21,1,1.9500,0.9750,0,0,90.0*
21,1,0.9750,1.9500,0,0,90.0*
1,1,0.9750,0.4875,0.4875*
1,1,0.9750,0.4875,-0.4875*
1,1,0.9750,-0.4875,-0.4875*
1,1,0.9750,-0.4875,0.4875*
%
%ADD87ROUNDEDRECTD87*%
%ADD88C,1.9500*%
%ADD89C,3.5000*%
%ADD90C,0.6000*%
%ADD91C,1.2700*%
%ADD92C,0.5000*%
G36*
X1329955Y1199893D02*
X1330803Y1199197D01*
X1354197Y1175803D01*
X1354893Y1174956D01*
X1355000Y1173865D01*
Y1146065D01*
Y1133934D01*
Y1106135D01*
X1354893Y1105044D01*
X1354197Y1104197D01*
X1330803Y1080803D01*
X1329955Y1080107D01*
X1328865Y1080000D01*
X1051554Y1080000D01*
X1050646Y1081270D01*
Y1082480D01*
X1029354D01*
Y1080875D01*
X1028636Y1080000D01*
X1022158D01*
Y1081730D01*
X997842D01*
Y1080000D01*
X995000D01*
X957000Y1042000D01*
Y1032427D01*
X957000Y1032427D01*
X957000Y1032427D01*
Y971098D01*
Y950000D01*
X913000D01*
Y967000D01*
X915000Y969000D01*
Y1160000D01*
X954197Y1199197D01*
X955044Y1199893D01*
X956135Y1200000D01*
X1328865D01*
X1329955Y1199893D01*
D02*
G37*
G36*
X1450000Y947000D02*
X1200831D01*
X1199850Y948250D01*
X1200099Y949500D01*
Y963500D01*
X1199669Y965662D01*
X1198569Y967307D01*
Y972460D01*
X1199102D01*
X1201138Y973303D01*
X1202697Y974862D01*
X1203540Y976898D01*
Y979102D01*
X1202697Y981138D01*
X1201138Y982697D01*
X1201119Y982704D01*
Y987634D01*
X1201717Y987752D01*
X1203384Y988866D01*
X1204498Y990534D01*
X1204889Y992500D01*
Y997500D01*
X1204498Y999466D01*
X1203384Y1001134D01*
X1202464Y1001748D01*
Y1003252D01*
X1203384Y1003866D01*
X1204498Y1005534D01*
X1204889Y1007500D01*
Y1012500D01*
X1204498Y1014466D01*
X1203384Y1016134D01*
X1201717Y1017248D01*
X1199750Y1017639D01*
X1194250D01*
X1192283Y1017248D01*
X1190616Y1016134D01*
X1189502Y1014466D01*
X1189111Y1012500D01*
Y1007500D01*
X1189502Y1005534D01*
X1190616Y1003866D01*
X1191536Y1003252D01*
Y1001748D01*
X1190616Y1001134D01*
X1189502Y999466D01*
X1189111Y997500D01*
Y992500D01*
X1189502Y990534D01*
X1190616Y988866D01*
X1192283Y987752D01*
X1192881Y987634D01*
Y981706D01*
X1191537Y980363D01*
X1190645Y979026D01*
X1190331Y977450D01*
Y967307D01*
X1189231Y965662D01*
X1188801Y963500D01*
Y949500D01*
X1189050Y948250D01*
X1188069Y947000D01*
X1175431D01*
X1174450Y948250D01*
X1174699Y949500D01*
Y963500D01*
X1174269Y965662D01*
X1173169Y967307D01*
Y973723D01*
X1173384Y973866D01*
X1174498Y975534D01*
X1174889Y977500D01*
Y982500D01*
X1174498Y984466D01*
X1173384Y986134D01*
X1171717Y987248D01*
X1169750Y987639D01*
X1165187D01*
X1160913Y991913D01*
X1159576Y992806D01*
X1158000Y993119D01*
X1155716D01*
X1155138Y993697D01*
X1153102Y994540D01*
X1150898D01*
X1148862Y993697D01*
X1147303Y992138D01*
X1146460Y990102D01*
Y987898D01*
X1147303Y985862D01*
X1148862Y984303D01*
X1150898Y983460D01*
X1153102D01*
X1155138Y984303D01*
X1155716Y984881D01*
X1156294D01*
X1159111Y982063D01*
Y977500D01*
X1159502Y975534D01*
X1160616Y973866D01*
X1162283Y972752D01*
X1164250Y972361D01*
X1164931D01*
Y967307D01*
X1163831Y965662D01*
X1163401Y963500D01*
Y949500D01*
X1163498Y949014D01*
X1162700Y948035D01*
X1161902Y949014D01*
X1161999Y949500D01*
Y963500D01*
X1161569Y965662D01*
X1160344Y967494D01*
X1158512Y968719D01*
X1156350Y969149D01*
X1154188Y968719D01*
X1152356Y967494D01*
X1151132Y965662D01*
X1150702Y963500D01*
Y949500D01*
X1150798Y949014D01*
X1150000Y948035D01*
X1149202Y949014D01*
X1149299Y949500D01*
Y963500D01*
X1148869Y965662D01*
X1147769Y967307D01*
Y979350D01*
X1147456Y980926D01*
X1146563Y982263D01*
X1139314Y989511D01*
X1139998Y990534D01*
X1140389Y992500D01*
Y997500D01*
X1139998Y999466D01*
X1138884Y1001134D01*
X1137964Y1001748D01*
Y1003252D01*
X1138884Y1003866D01*
X1139998Y1005534D01*
X1140389Y1007500D01*
Y1012500D01*
X1139998Y1014466D01*
X1138884Y1016134D01*
X1137216Y1017247D01*
X1135250Y1017639D01*
X1129750D01*
X1127784Y1017247D01*
X1126116Y1016134D01*
X1125752Y1015588D01*
X1124248D01*
X1123884Y1016134D01*
X1122217Y1017247D01*
X1120250Y1017639D01*
X1118770D01*
Y1010000D01*
X1117500D01*
Y1008730D01*
X1109611D01*
Y1007500D01*
X1110003Y1005534D01*
X1111116Y1003866D01*
X1112036Y1003252D01*
Y1001748D01*
X1111116Y1001134D01*
X1110003Y999466D01*
X1109611Y997500D01*
Y996270D01*
X1117500D01*
Y995000D01*
X1118770D01*
Y987361D01*
X1120250D01*
X1122217Y987752D01*
X1123884Y988866D01*
X1124248Y989412D01*
X1125752D01*
X1126116Y988866D01*
X1127784Y987752D01*
X1129750Y987361D01*
X1129813D01*
X1134116Y983059D01*
X1133408Y981999D01*
X1132102Y982540D01*
X1129898D01*
X1127862Y981697D01*
X1126303Y980138D01*
X1125460Y978102D01*
Y975898D01*
X1126303Y973862D01*
X1126831Y973334D01*
Y967307D01*
X1125732Y965662D01*
X1125302Y963500D01*
Y949500D01*
X1125398Y949014D01*
X1124600Y948035D01*
X1123802Y949014D01*
X1123899Y949500D01*
Y963500D01*
X1123469Y965662D01*
X1122369Y967307D01*
Y973534D01*
X1122697Y973862D01*
X1123540Y975898D01*
Y978102D01*
X1122697Y980138D01*
X1121138Y981697D01*
X1119102Y982540D01*
X1116898D01*
X1114862Y981697D01*
X1113303Y980138D01*
X1112460Y978102D01*
Y975898D01*
X1113303Y973862D01*
X1114131Y973034D01*
Y967307D01*
X1113031Y965662D01*
X1112601Y963500D01*
Y949500D01*
X1112698Y949014D01*
X1111900Y948035D01*
X1111102Y949014D01*
X1111199Y949500D01*
Y955230D01*
X1099902D01*
Y949500D01*
X1100150Y948250D01*
X1099169Y947000D01*
X981101D01*
X980261Y947926D01*
X980564Y950995D01*
Y966505D01*
X980111Y971098D01*
Y1032427D01*
X997111Y1049426D01*
X998425Y1048972D01*
X999645Y1047145D01*
X999961Y1046935D01*
Y1044065D01*
X999645Y1043855D01*
X998310Y1041857D01*
X997842Y1039500D01*
Y1032500D01*
X998310Y1030143D01*
X999645Y1028145D01*
X1001643Y1026810D01*
X1004000Y1026342D01*
X1016000D01*
X1018357Y1026810D01*
X1020355Y1028145D01*
X1021690Y1030143D01*
X1022158Y1032500D01*
Y1036961D01*
X1029354D01*
Y1033875D01*
X1029774Y1031762D01*
X1030971Y1029971D01*
X1032762Y1028774D01*
X1034875Y1028354D01*
X1045125D01*
X1047238Y1028774D01*
X1049029Y1029971D01*
X1049993Y1031414D01*
X1051405Y1031770D01*
X1053587Y1029587D01*
X1054924Y1028694D01*
X1055683Y1028543D01*
X1055731Y1028305D01*
X1056762Y1026762D01*
X1058305Y1025731D01*
X1058775Y1025637D01*
Y1024363D01*
X1058305Y1024269D01*
X1056762Y1023238D01*
X1055731Y1021695D01*
X1055683Y1021457D01*
X1054924Y1021306D01*
X1053587Y1020413D01*
X1047935Y1014760D01*
X1047238Y1015226D01*
X1045125Y1015646D01*
X1034875D01*
X1032762Y1015226D01*
X1030971Y1014029D01*
X1029774Y1012238D01*
X1029735Y1012039D01*
X1022051D01*
X1021690Y1013857D01*
X1020355Y1015855D01*
X1018357Y1017189D01*
X1016000Y1017658D01*
X1004000D01*
X1001643Y1017189D01*
X999645Y1015855D01*
X998310Y1013857D01*
X997842Y1011500D01*
Y1004500D01*
X998310Y1002143D01*
X999604Y1000207D01*
Y996793D01*
X998310Y994857D01*
X997842Y992500D01*
Y985500D01*
X998310Y983143D01*
X999645Y981145D01*
X1001643Y979810D01*
X1004000Y979342D01*
X1016000D01*
X1018357Y979810D01*
X1020355Y981145D01*
X1021690Y983143D01*
X1022158Y985500D01*
Y986961D01*
X1029354D01*
Y986875D01*
X1029774Y984762D01*
X1030971Y982971D01*
X1032762Y981774D01*
X1034875Y981354D01*
X1045125D01*
X1047238Y981774D01*
X1049029Y982971D01*
X1050226Y984762D01*
X1050646Y986875D01*
Y992625D01*
X1050226Y994738D01*
X1050039Y995017D01*
Y1001983D01*
X1050226Y1002262D01*
X1050646Y1004375D01*
Y1006409D01*
X1050826Y1006444D01*
X1052163Y1007337D01*
X1056603Y1011777D01*
X1056762Y1011762D01*
X1058305Y1010731D01*
X1060125Y1010369D01*
X1064375D01*
X1066195Y1010731D01*
X1067738Y1011762D01*
X1068769Y1013305D01*
X1069131Y1015125D01*
Y1019875D01*
X1068769Y1021695D01*
X1067738Y1023238D01*
X1066195Y1024269D01*
X1065725Y1024363D01*
Y1025637D01*
X1066195Y1025731D01*
X1067738Y1026762D01*
X1068769Y1028305D01*
X1069131Y1030125D01*
Y1034875D01*
X1068769Y1036695D01*
X1067738Y1038238D01*
X1066195Y1039269D01*
X1064375Y1039631D01*
X1060125D01*
X1058305Y1039269D01*
X1056762Y1038238D01*
X1056603Y1038223D01*
X1052163Y1042663D01*
X1050826Y1043556D01*
X1050009Y1043718D01*
X1050039Y1043869D01*
Y1048983D01*
X1050226Y1049262D01*
X1050646Y1051375D01*
Y1055510D01*
X1055075Y1056854D01*
X1055140Y1056889D01*
X1330000Y1056889D01*
X1330000Y1056889D01*
X1332254Y1057111D01*
X1334509Y1057333D01*
X1338844Y1058648D01*
X1342840Y1060784D01*
X1346342Y1063658D01*
X1346342Y1063658D01*
X1371342Y1088658D01*
X1374216Y1092160D01*
X1376352Y1096156D01*
X1377667Y1100491D01*
X1377889Y1102746D01*
X1378111Y1105000D01*
X1378111Y1105000D01*
Y1133934D01*
X1378730Y1134347D01*
Y1140000D01*
Y1145652D01*
X1378111Y1146065D01*
Y1175000D01*
X1378111Y1175000D01*
X1377889Y1177254D01*
X1377667Y1179509D01*
X1376352Y1183844D01*
X1374216Y1187840D01*
X1371342Y1191342D01*
X1371342Y1191342D01*
X1346342Y1216342D01*
X1342840Y1219216D01*
X1338844Y1221352D01*
X1334509Y1222667D01*
X1332254Y1222889D01*
X1330000Y1223111D01*
X1330000Y1223111D01*
X955000D01*
X955000Y1223111D01*
X952629Y1222878D01*
X950491Y1222667D01*
X946156Y1221352D01*
X942160Y1219216D01*
X938658Y1216342D01*
X938658Y1216342D01*
X910000Y1187684D01*
X903012Y1194672D01*
X903138Y1195303D01*
X904696Y1196861D01*
X905470Y1198730D01*
X900000D01*
Y1200000D01*
X898730D01*
Y1205470D01*
X896862Y1204696D01*
X895303Y1203138D01*
X894672Y1203012D01*
X881342Y1216342D01*
X881342Y1216342D01*
X877840Y1219216D01*
X873844Y1221352D01*
X869509Y1222667D01*
X867371Y1222878D01*
X865000Y1223111D01*
X865000Y1223111D01*
X720000D01*
X720000Y1223111D01*
X717746Y1222889D01*
X715491Y1222667D01*
X711156Y1221352D01*
X707160Y1219216D01*
X703658Y1216342D01*
X703658Y1216342D01*
X678658Y1191342D01*
X675784Y1187840D01*
X673648Y1183844D01*
X672333Y1179509D01*
X672111Y1177254D01*
X671889Y1175000D01*
X671889Y1175000D01*
Y1105000D01*
X671889Y1105000D01*
X672111Y1102746D01*
X672333Y1100491D01*
X673648Y1096156D01*
X675784Y1092160D01*
X678658Y1088658D01*
X678658Y1088658D01*
X703658Y1063658D01*
X707160Y1060784D01*
X711156Y1058648D01*
X715491Y1057333D01*
X717746Y1057111D01*
X720000Y1056889D01*
X720000Y1056889D01*
X815427D01*
X839889Y1032427D01*
Y971098D01*
X839436Y966505D01*
Y950995D01*
X839739Y947926D01*
X838899Y947000D01*
X600000D01*
Y1225000D01*
X1450000D01*
Y947000D01*
D02*
G37*
G36*
X1048000Y1043869D02*
X1040000D01*
X1038424Y1043556D01*
X1037087Y1042663D01*
X1036194Y1041326D01*
X1035881Y1039750D01*
X1035265Y1039000D01*
X1002000D01*
Y1061000D01*
X1048000D01*
Y1043869D01*
D02*
G37*
G36*
X1035563Y1008266D02*
X1036545Y1006795D01*
X1038016Y1005813D01*
X1039750Y1005468D01*
X1041484Y1005813D01*
X1041960Y1006131D01*
X1048000D01*
Y989000D01*
X1001643D01*
Y1010000D01*
X1035218D01*
X1035563Y1008266D01*
D02*
G37*
G36*
X864956Y1199893D02*
X865803Y1199197D01*
X878330Y1186670D01*
X878330Y1186670D01*
X905000Y1160000D01*
Y969000D01*
X907000Y967000D01*
Y950000D01*
X863000D01*
Y1032427D01*
X863000Y1032427D01*
X863000Y1032427D01*
Y1042000D01*
X831769Y1073231D01*
X831769Y1073231D01*
X831769Y1073231D01*
X825000Y1080000D01*
X815427D01*
X815427Y1080000D01*
X815427Y1080000D01*
X721135D01*
X720044Y1080107D01*
X719197Y1080803D01*
X695803Y1104197D01*
X695107Y1105044D01*
X695000Y1106135D01*
Y1173865D01*
X695107Y1174956D01*
X695803Y1175803D01*
X719197Y1199197D01*
X720044Y1199893D01*
X721135Y1200000D01*
X863865D01*
X864956Y1199893D01*
D02*
G37*
G36*
X1244500Y836000D02*
X1251000Y829500D01*
X1263500D01*
Y819099D01*
X1251495D01*
X1250311Y818864D01*
X1249766Y818500D01*
X1241750D01*
X1236250Y824000D01*
X1210500Y824000D01*
X1206750Y827750D01*
X1206750Y832250D01*
X1210500Y836000D01*
X1244500Y836000D01*
D02*
G37*
G36*
X1345000Y751000D02*
X1336000Y742000D01*
X1310000D01*
X1301000Y751000D01*
Y768000D01*
X1345000D01*
Y751000D01*
D02*
G37*
G36*
X740748Y723090D02*
X735621Y717963D01*
X734525Y719059D01*
X734525Y721110D01*
X738626Y725211D01*
X740748Y723090D01*
D02*
G37*
G36*
X732475Y721110D02*
X732475Y719059D01*
X731379Y717963D01*
X726252Y723090D01*
X728373Y725211D01*
X732475Y721110D01*
D02*
G37*
G36*
X948500Y738250D02*
Y730500D01*
X947000Y729000D01*
X929000D01*
X920500Y720500D01*
Y701750D01*
X913530D01*
X913119Y702250D01*
Y709750D01*
X912806Y711326D01*
X912250Y712158D01*
Y741000D01*
X945750D01*
X948500Y738250D01*
D02*
G37*
G36*
X895750Y719508D02*
X895665Y719381D01*
X895391Y718000D01*
Y711620D01*
X895194Y711326D01*
X894881Y709750D01*
Y702250D01*
X894471Y701750D01*
X887500D01*
Y720500D01*
X879000Y729000D01*
X861000D01*
X859500Y730500D01*
Y738250D01*
X862250Y741000D01*
X895750D01*
Y719508D01*
D02*
G37*
G36*
X761961Y701877D02*
X757860Y697775D01*
X755809Y697775D01*
X754713Y698871D01*
X759840Y703998D01*
X761961Y701877D01*
D02*
G37*
G36*
X712287Y698871D02*
X711191Y697775D01*
X709140Y697775D01*
X705039Y701877D01*
X707160Y703998D01*
X712287Y698871D01*
D02*
G37*
G36*
X757860Y695725D02*
X761961Y691624D01*
X759840Y689502D01*
X754713Y694629D01*
X755809Y695725D01*
X757860Y695725D01*
D02*
G37*
G36*
X712287Y694629D02*
X707160Y689502D01*
X705039Y691624D01*
X709140Y695725D01*
X711191Y695725D01*
X712287Y694629D01*
D02*
G37*
G36*
X740748Y670410D02*
X738626Y668289D01*
X734525Y672390D01*
X734525Y674441D01*
X735621Y675537D01*
X740748Y670410D01*
D02*
G37*
G36*
X732475Y674441D02*
X732475Y672390D01*
X728373Y668289D01*
X726252Y670410D01*
X731379Y675537D01*
X732475Y674441D01*
D02*
G37*
G36*
X894881Y672250D02*
X894942Y671942D01*
X887500Y664500D01*
X872750D01*
X869000Y660750D01*
Y649000D01*
X859000D01*
Y654000D01*
X860000Y655000D01*
Y667000D01*
X862000Y669000D01*
X883750D01*
X887500Y672750D01*
Y679000D01*
X894881D01*
Y672250D01*
D02*
G37*
G36*
X899881D02*
X900194Y670674D01*
X900500Y670216D01*
Y661500D01*
X899000Y660000D01*
Y645000D01*
X897250Y643250D01*
X889500D01*
X888250Y644500D01*
X876000D01*
X874250Y646250D01*
Y651250D01*
X876000Y653000D01*
X881000D01*
X897500Y669500D01*
Y670216D01*
X897806Y670674D01*
X898119Y672250D01*
Y679000D01*
X899881D01*
Y672250D01*
D02*
G37*
G36*
X920500Y661500D02*
X929000Y653000D01*
X947000D01*
X948500Y651500D01*
Y643750D01*
X945750Y641000D01*
X912250D01*
Y669842D01*
X912806Y670674D01*
X913119Y672250D01*
Y679750D01*
X913530Y680250D01*
X920500D01*
Y661500D01*
D02*
G37*
G36*
X761000Y657253D02*
Y651000D01*
X765000Y647000D01*
Y620000D01*
X760671D01*
X760286Y621270D01*
X760552Y621448D01*
X761335Y622619D01*
X761609Y624000D01*
X761335Y625381D01*
X760552Y626552D01*
X759381Y627335D01*
X758000Y627609D01*
X756518D01*
X755137Y627335D01*
X753966Y626552D01*
X753173Y625760D01*
X752000Y626246D01*
Y628000D01*
X743000Y637000D01*
X740000D01*
X738000Y639000D01*
Y645000D01*
X740000Y647000D01*
X746000D01*
X750000Y651000D01*
Y658000D01*
X752000Y660000D01*
X758253D01*
X761000Y657253D01*
D02*
G37*
G36*
X1339000Y574000D02*
Y572000D01*
X1327000D01*
Y580000D01*
Y595000D01*
X1339000D01*
Y574000D01*
D02*
G37*
G36*
X1243000Y495000D02*
X1231000Y483000D01*
X1217000D01*
Y506586D01*
X1218000Y507000D01*
X1243000D01*
Y495000D01*
D02*
G37*
G36*
X1212000Y507000D02*
Y484000D01*
X1211000Y483000D01*
X1200000D01*
X1189000Y494000D01*
Y498000D01*
X1200000Y509000D01*
X1210000D01*
X1212000Y507000D01*
D02*
G37*
%LPC*%
G36*
X1045125Y1092146D02*
X1041270D01*
Y1085020D01*
X1050646D01*
Y1086625D01*
X1050226Y1088738D01*
X1049029Y1090529D01*
X1047238Y1091726D01*
X1045125Y1092146D01*
D02*
G37*
G36*
X1038730D02*
X1034875D01*
X1032762Y1091726D01*
X1030971Y1090529D01*
X1029774Y1088738D01*
X1029354Y1086625D01*
Y1085020D01*
X1038730D01*
Y1092146D01*
D02*
G37*
G36*
X1016000Y1092658D02*
X1011270D01*
Y1084270D01*
X1022158D01*
Y1086500D01*
X1021690Y1088857D01*
X1020355Y1090855D01*
X1018357Y1092189D01*
X1016000Y1092658D01*
D02*
G37*
G36*
X1008730D02*
X1004000D01*
X1001643Y1092189D01*
X999645Y1090855D01*
X998310Y1088857D01*
X997842Y1086500D01*
Y1084270D01*
X1008730D01*
Y1092658D01*
D02*
G37*
G36*
X1381270Y1205470D02*
Y1201270D01*
X1385470D01*
X1384696Y1203138D01*
X1383138Y1204696D01*
X1381270Y1205470D01*
D02*
G37*
G36*
X1378730D02*
X1376861Y1204696D01*
X1375303Y1203138D01*
X1374529Y1201270D01*
X1378730D01*
Y1205470D01*
D02*
G37*
G36*
X901270D02*
Y1201270D01*
X905470D01*
X904696Y1203138D01*
X903138Y1204696D01*
X901270Y1205470D01*
D02*
G37*
G36*
X1385470Y1198730D02*
X1381270D01*
Y1194529D01*
X1383138Y1195303D01*
X1384696Y1196861D01*
X1385470Y1198730D01*
D02*
G37*
G36*
X1378730D02*
X1374529D01*
X1375303Y1196861D01*
X1376861Y1195303D01*
X1378730Y1194529D01*
Y1198730D01*
D02*
G37*
G36*
X1401974Y1195040D02*
X1398026D01*
X1394155Y1194270D01*
X1390508Y1192759D01*
X1387225Y1190566D01*
X1384434Y1187775D01*
X1382241Y1184492D01*
X1380730Y1180845D01*
X1379960Y1176974D01*
Y1173026D01*
X1380730Y1169155D01*
X1382241Y1165508D01*
X1384434Y1162225D01*
X1387225Y1159434D01*
X1390508Y1157241D01*
X1394155Y1155730D01*
X1398026Y1154960D01*
X1401974D01*
X1405845Y1155730D01*
X1409492Y1157241D01*
X1412775Y1159434D01*
X1415566Y1162225D01*
X1417759Y1165508D01*
X1419270Y1169155D01*
X1420040Y1173026D01*
Y1176974D01*
X1419270Y1180845D01*
X1417759Y1184492D01*
X1415566Y1187775D01*
X1412775Y1190566D01*
X1409492Y1192759D01*
X1405845Y1194270D01*
X1401974Y1195040D01*
D02*
G37*
G36*
X651974D02*
X648026D01*
X644155Y1194270D01*
X640508Y1192759D01*
X637225Y1190566D01*
X634434Y1187775D01*
X632241Y1184492D01*
X630730Y1180845D01*
X629960Y1176974D01*
Y1173026D01*
X630730Y1169155D01*
X632241Y1165508D01*
X634434Y1162225D01*
X637225Y1159434D01*
X640508Y1157241D01*
X644155Y1155730D01*
X648026Y1154960D01*
X651974D01*
X655845Y1155730D01*
X659492Y1157241D01*
X662775Y1159434D01*
X665566Y1162225D01*
X667759Y1165508D01*
X669270Y1169155D01*
X670040Y1173026D01*
Y1176974D01*
X669270Y1180845D01*
X667759Y1184492D01*
X665566Y1187775D01*
X662775Y1190566D01*
X659492Y1192759D01*
X655845Y1194270D01*
X651974Y1195040D01*
D02*
G37*
G36*
X1411270Y1145470D02*
Y1141270D01*
X1415470D01*
X1414696Y1143138D01*
X1413138Y1144696D01*
X1411270Y1145470D01*
D02*
G37*
G36*
X1408730D02*
X1406861Y1144696D01*
X1405303Y1143138D01*
X1404529Y1141270D01*
X1408730D01*
Y1145470D01*
D02*
G37*
G36*
X1381270D02*
Y1141270D01*
X1385470D01*
X1384696Y1143138D01*
X1383138Y1144696D01*
X1381270Y1145470D01*
D02*
G37*
G36*
X661270D02*
Y1141270D01*
X665470D01*
X664696Y1143138D01*
X663138Y1144696D01*
X661270Y1145470D01*
D02*
G37*
G36*
X658730D02*
X656862Y1144696D01*
X655303Y1143138D01*
X654529Y1141270D01*
X658730D01*
Y1145470D01*
D02*
G37*
G36*
X631270D02*
Y1141270D01*
X635470D01*
X634696Y1143138D01*
X633138Y1144696D01*
X631270Y1145470D01*
D02*
G37*
G36*
X628730D02*
X626862Y1144696D01*
X625303Y1143138D01*
X624529Y1141270D01*
X628730D01*
Y1145470D01*
D02*
G37*
G36*
X1415470Y1138730D02*
X1411270D01*
Y1134529D01*
X1413138Y1135303D01*
X1414696Y1136861D01*
X1415470Y1138730D01*
D02*
G37*
G36*
X1408730D02*
X1404529D01*
X1405303Y1136861D01*
X1406861Y1135303D01*
X1408730Y1134529D01*
Y1138730D01*
D02*
G37*
G36*
X1385470D02*
X1381270D01*
Y1134529D01*
X1383138Y1135303D01*
X1384696Y1136861D01*
X1385470Y1138730D01*
D02*
G37*
G36*
X665470D02*
X661270D01*
Y1134529D01*
X663138Y1135303D01*
X664696Y1136861D01*
X665470Y1138730D01*
D02*
G37*
G36*
X658730D02*
X654529D01*
X655303Y1136861D01*
X656862Y1135303D01*
X658730Y1134529D01*
Y1138730D01*
D02*
G37*
G36*
X635470D02*
X631270D01*
Y1134529D01*
X633138Y1135303D01*
X634696Y1136861D01*
X635470Y1138730D01*
D02*
G37*
G36*
X628730D02*
X624529D01*
X625303Y1136861D01*
X626862Y1135303D01*
X628730Y1134529D01*
Y1138730D01*
D02*
G37*
G36*
X1426270Y1115470D02*
Y1111270D01*
X1430470D01*
X1429696Y1113138D01*
X1428138Y1114696D01*
X1426270Y1115470D01*
D02*
G37*
G36*
X1423730D02*
X1421861Y1114696D01*
X1420303Y1113138D01*
X1419529Y1111270D01*
X1423730D01*
Y1115470D01*
D02*
G37*
G36*
X1396270D02*
Y1111270D01*
X1400470D01*
X1399696Y1113138D01*
X1398138Y1114696D01*
X1396270Y1115470D01*
D02*
G37*
G36*
X1393730D02*
X1391861Y1114696D01*
X1390303Y1113138D01*
X1389529Y1111270D01*
X1393730D01*
Y1115470D01*
D02*
G37*
G36*
X646270D02*
Y1111270D01*
X650470D01*
X649696Y1113138D01*
X648138Y1114696D01*
X646270Y1115470D01*
D02*
G37*
G36*
X643730D02*
X641862Y1114696D01*
X640303Y1113138D01*
X639529Y1111270D01*
X643730D01*
Y1115470D01*
D02*
G37*
G36*
X1430470Y1108730D02*
X1426270D01*
Y1104529D01*
X1428138Y1105303D01*
X1429696Y1106861D01*
X1430470Y1108730D01*
D02*
G37*
G36*
X1423730D02*
X1419529D01*
X1420303Y1106861D01*
X1421861Y1105303D01*
X1423730Y1104529D01*
Y1108730D01*
D02*
G37*
G36*
X1400470D02*
X1396270D01*
Y1104529D01*
X1398138Y1105303D01*
X1399696Y1106861D01*
X1400470Y1108730D01*
D02*
G37*
G36*
X1393730D02*
X1389529D01*
X1390303Y1106861D01*
X1391861Y1105303D01*
X1393730Y1104529D01*
Y1108730D01*
D02*
G37*
G36*
X650470D02*
X646270D01*
Y1104529D01*
X648138Y1105303D01*
X649696Y1106861D01*
X650470Y1108730D01*
D02*
G37*
G36*
X643730D02*
X639529D01*
X640303Y1106861D01*
X641862Y1105303D01*
X643730Y1104529D01*
Y1108730D01*
D02*
G37*
G36*
X1411270Y1085470D02*
Y1081270D01*
X1415470D01*
X1414696Y1083138D01*
X1413138Y1084696D01*
X1411270Y1085470D01*
D02*
G37*
G36*
X1408730D02*
X1406861Y1084696D01*
X1405303Y1083138D01*
X1404529Y1081270D01*
X1408730D01*
Y1085470D01*
D02*
G37*
G36*
X1381270D02*
Y1081270D01*
X1385470D01*
X1384696Y1083138D01*
X1383138Y1084696D01*
X1381270Y1085470D01*
D02*
G37*
G36*
X1378730D02*
X1376861Y1084696D01*
X1375303Y1083138D01*
X1374529Y1081270D01*
X1378730D01*
Y1085470D01*
D02*
G37*
G36*
X661270D02*
Y1081270D01*
X665470D01*
X664696Y1083138D01*
X663138Y1084696D01*
X661270Y1085470D01*
D02*
G37*
G36*
X658730D02*
X656862Y1084696D01*
X655303Y1083138D01*
X654529Y1081270D01*
X658730D01*
Y1085470D01*
D02*
G37*
G36*
X631270D02*
Y1081270D01*
X635470D01*
X634696Y1083138D01*
X633138Y1084696D01*
X631270Y1085470D01*
D02*
G37*
G36*
X628730D02*
X626862Y1084696D01*
X625303Y1083138D01*
X624529Y1081270D01*
X628730D01*
Y1085470D01*
D02*
G37*
G36*
X1415470Y1078730D02*
X1411270D01*
Y1074529D01*
X1413138Y1075303D01*
X1414696Y1076861D01*
X1415470Y1078730D01*
D02*
G37*
G36*
X1408730D02*
X1404529D01*
X1405303Y1076861D01*
X1406861Y1075303D01*
X1408730Y1074529D01*
Y1078730D01*
D02*
G37*
G36*
X1385470D02*
X1381270D01*
Y1074529D01*
X1383138Y1075303D01*
X1384696Y1076861D01*
X1385470Y1078730D01*
D02*
G37*
G36*
X1378730D02*
X1374529D01*
X1375303Y1076861D01*
X1376861Y1075303D01*
X1378730Y1074529D01*
Y1078730D01*
D02*
G37*
G36*
X665470D02*
X661270D01*
Y1074529D01*
X663138Y1075303D01*
X664696Y1076861D01*
X665470Y1078730D01*
D02*
G37*
G36*
X658730D02*
X654529D01*
X655303Y1076861D01*
X656862Y1075303D01*
X658730Y1074529D01*
Y1078730D01*
D02*
G37*
G36*
X635470D02*
X631270D01*
Y1074529D01*
X633138Y1075303D01*
X634696Y1076861D01*
X635470Y1078730D01*
D02*
G37*
G36*
X628730D02*
X624529D01*
X625303Y1076861D01*
X626862Y1075303D01*
X628730Y1074529D01*
Y1078730D01*
D02*
G37*
G36*
X1426270Y1055470D02*
Y1051270D01*
X1430470D01*
X1429696Y1053138D01*
X1428138Y1054696D01*
X1426270Y1055470D01*
D02*
G37*
G36*
X1423730D02*
X1421861Y1054696D01*
X1420303Y1053138D01*
X1419529Y1051270D01*
X1423730D01*
Y1055470D01*
D02*
G37*
G36*
X1396270D02*
Y1051270D01*
X1400470D01*
X1399696Y1053138D01*
X1398138Y1054696D01*
X1396270Y1055470D01*
D02*
G37*
G36*
X1393730D02*
X1391861Y1054696D01*
X1390303Y1053138D01*
X1389529Y1051270D01*
X1393730D01*
Y1055470D01*
D02*
G37*
G36*
X1366270D02*
Y1051270D01*
X1370470D01*
X1369696Y1053138D01*
X1368138Y1054696D01*
X1366270Y1055470D01*
D02*
G37*
G36*
X1363730D02*
X1361861Y1054696D01*
X1360303Y1053138D01*
X1359529Y1051270D01*
X1363730D01*
Y1055470D01*
D02*
G37*
G36*
X1246270D02*
Y1051270D01*
X1250470D01*
X1249696Y1053138D01*
X1248138Y1054696D01*
X1246270Y1055470D01*
D02*
G37*
G36*
X1243730D02*
X1241861Y1054696D01*
X1240303Y1053138D01*
X1239529Y1051270D01*
X1243730D01*
Y1055470D01*
D02*
G37*
G36*
X1216270D02*
Y1051270D01*
X1220470D01*
X1219696Y1053138D01*
X1218138Y1054696D01*
X1216270Y1055470D01*
D02*
G37*
G36*
X1213730D02*
X1211861Y1054696D01*
X1210303Y1053138D01*
X1209529Y1051270D01*
X1213730D01*
Y1055470D01*
D02*
G37*
G36*
X1186270D02*
Y1051270D01*
X1190470D01*
X1189696Y1053138D01*
X1188138Y1054696D01*
X1186270Y1055470D01*
D02*
G37*
G36*
X1183730D02*
X1181861Y1054696D01*
X1180303Y1053138D01*
X1179529Y1051270D01*
X1183730D01*
Y1055470D01*
D02*
G37*
G36*
X1156270D02*
Y1051270D01*
X1160470D01*
X1159696Y1053138D01*
X1158138Y1054696D01*
X1156270Y1055470D01*
D02*
G37*
G36*
X1153730D02*
X1151861Y1054696D01*
X1150303Y1053138D01*
X1149529Y1051270D01*
X1153730D01*
Y1055470D01*
D02*
G37*
G36*
X1126270D02*
Y1051270D01*
X1130470D01*
X1129696Y1053138D01*
X1128138Y1054696D01*
X1126270Y1055470D01*
D02*
G37*
G36*
X1123730D02*
X1121861Y1054696D01*
X1120303Y1053138D01*
X1119529Y1051270D01*
X1123730D01*
Y1055470D01*
D02*
G37*
G36*
X1096270D02*
Y1051270D01*
X1100470D01*
X1099696Y1053138D01*
X1098138Y1054696D01*
X1096270Y1055470D01*
D02*
G37*
G36*
X1093730D02*
X1091861Y1054696D01*
X1090303Y1053138D01*
X1089529Y1051270D01*
X1093730D01*
Y1055470D01*
D02*
G37*
G36*
X1066270D02*
Y1051270D01*
X1070470D01*
X1069696Y1053138D01*
X1068138Y1054696D01*
X1066270Y1055470D01*
D02*
G37*
G36*
X1063730D02*
X1061861Y1054696D01*
X1060303Y1053138D01*
X1059529Y1051270D01*
X1063730D01*
Y1055470D01*
D02*
G37*
G36*
X706270D02*
Y1051270D01*
X710470D01*
X709696Y1053138D01*
X708138Y1054696D01*
X706270Y1055470D01*
D02*
G37*
G36*
X703730D02*
X701862Y1054696D01*
X700303Y1053138D01*
X699529Y1051270D01*
X703730D01*
Y1055470D01*
D02*
G37*
G36*
X676270D02*
Y1051270D01*
X680470D01*
X679696Y1053138D01*
X678138Y1054696D01*
X676270Y1055470D01*
D02*
G37*
G36*
X673730D02*
X671862Y1054696D01*
X670303Y1053138D01*
X669529Y1051270D01*
X673730D01*
Y1055470D01*
D02*
G37*
G36*
X646270D02*
Y1051270D01*
X650470D01*
X649696Y1053138D01*
X648138Y1054696D01*
X646270Y1055470D01*
D02*
G37*
G36*
X643730D02*
X641862Y1054696D01*
X640303Y1053138D01*
X639529Y1051270D01*
X643730D01*
Y1055470D01*
D02*
G37*
G36*
X1430470Y1048730D02*
X1426270D01*
Y1044529D01*
X1428138Y1045303D01*
X1429696Y1046861D01*
X1430470Y1048730D01*
D02*
G37*
G36*
X1423730D02*
X1419529D01*
X1420303Y1046861D01*
X1421861Y1045303D01*
X1423730Y1044529D01*
Y1048730D01*
D02*
G37*
G36*
X1400470D02*
X1396270D01*
Y1044529D01*
X1398138Y1045303D01*
X1399696Y1046861D01*
X1400470Y1048730D01*
D02*
G37*
G36*
X1393730D02*
X1389529D01*
X1390303Y1046861D01*
X1391861Y1045303D01*
X1393730Y1044529D01*
Y1048730D01*
D02*
G37*
G36*
X1370470D02*
X1366270D01*
Y1044529D01*
X1368138Y1045303D01*
X1369696Y1046861D01*
X1370470Y1048730D01*
D02*
G37*
G36*
X1363730D02*
X1359529D01*
X1360303Y1046861D01*
X1361861Y1045303D01*
X1363730Y1044529D01*
Y1048730D01*
D02*
G37*
G36*
X1250470D02*
X1246270D01*
Y1044529D01*
X1248138Y1045303D01*
X1249696Y1046861D01*
X1250470Y1048730D01*
D02*
G37*
G36*
X1243730D02*
X1239529D01*
X1240303Y1046861D01*
X1241861Y1045303D01*
X1243730Y1044529D01*
Y1048730D01*
D02*
G37*
G36*
X1220470D02*
X1216270D01*
Y1044529D01*
X1218138Y1045303D01*
X1219696Y1046861D01*
X1220470Y1048730D01*
D02*
G37*
G36*
X1213730D02*
X1209529D01*
X1210303Y1046861D01*
X1211861Y1045303D01*
X1213730Y1044529D01*
Y1048730D01*
D02*
G37*
G36*
X1190470D02*
X1186270D01*
Y1044529D01*
X1188138Y1045303D01*
X1189696Y1046861D01*
X1190470Y1048730D01*
D02*
G37*
G36*
X1183730D02*
X1179529D01*
X1180303Y1046861D01*
X1181861Y1045303D01*
X1183730Y1044529D01*
Y1048730D01*
D02*
G37*
G36*
X1160470D02*
X1156270D01*
Y1044529D01*
X1158138Y1045303D01*
X1159696Y1046861D01*
X1160470Y1048730D01*
D02*
G37*
G36*
X1153730D02*
X1149529D01*
X1150303Y1046861D01*
X1151861Y1045303D01*
X1153730Y1044529D01*
Y1048730D01*
D02*
G37*
G36*
X1130470D02*
X1126270D01*
Y1044529D01*
X1128138Y1045303D01*
X1129696Y1046861D01*
X1130470Y1048730D01*
D02*
G37*
G36*
X1123730D02*
X1119529D01*
X1120303Y1046861D01*
X1121861Y1045303D01*
X1123730Y1044529D01*
Y1048730D01*
D02*
G37*
G36*
X1100470D02*
X1096270D01*
Y1044529D01*
X1098138Y1045303D01*
X1099696Y1046861D01*
X1100470Y1048730D01*
D02*
G37*
G36*
X1093730D02*
X1089529D01*
X1090303Y1046861D01*
X1091861Y1045303D01*
X1093730Y1044529D01*
Y1048730D01*
D02*
G37*
G36*
X1070470D02*
X1066270D01*
Y1044529D01*
X1068138Y1045303D01*
X1069696Y1046861D01*
X1070470Y1048730D01*
D02*
G37*
G36*
X1063730D02*
X1059529D01*
X1060303Y1046861D01*
X1061861Y1045303D01*
X1063730Y1044529D01*
Y1048730D01*
D02*
G37*
G36*
X710470D02*
X706270D01*
Y1044529D01*
X708138Y1045303D01*
X709696Y1046861D01*
X710470Y1048730D01*
D02*
G37*
G36*
X703730D02*
X699529D01*
X700303Y1046861D01*
X701862Y1045303D01*
X703730Y1044529D01*
Y1048730D01*
D02*
G37*
G36*
X680470D02*
X676270D01*
Y1044529D01*
X678138Y1045303D01*
X679696Y1046861D01*
X680470Y1048730D01*
D02*
G37*
G36*
X673730D02*
X669529D01*
X670303Y1046861D01*
X671862Y1045303D01*
X673730Y1044529D01*
Y1048730D01*
D02*
G37*
G36*
X650470D02*
X646270D01*
Y1044529D01*
X648138Y1045303D01*
X649696Y1046861D01*
X650470Y1048730D01*
D02*
G37*
G36*
X643730D02*
X639529D01*
X640303Y1046861D01*
X641862Y1045303D01*
X643730Y1044529D01*
Y1048730D01*
D02*
G37*
G36*
X1097500Y1040389D02*
X1092500D01*
X1090534Y1039998D01*
X1088866Y1038884D01*
X1087753Y1037216D01*
X1087634Y1036619D01*
X1084285D01*
X1084269Y1036695D01*
X1083238Y1038238D01*
X1081695Y1039269D01*
X1079875Y1039631D01*
X1075625D01*
X1073805Y1039269D01*
X1072262Y1038238D01*
X1071231Y1036695D01*
X1070869Y1034875D01*
Y1030125D01*
X1071231Y1028305D01*
X1072262Y1026762D01*
X1073805Y1025731D01*
X1074275Y1025637D01*
Y1024363D01*
X1073805Y1024269D01*
X1072262Y1023238D01*
X1071231Y1021695D01*
X1070869Y1019875D01*
Y1015125D01*
X1071231Y1013305D01*
X1072262Y1011762D01*
X1073805Y1010731D01*
X1075625Y1010369D01*
X1079875D01*
X1081695Y1010731D01*
X1083238Y1011762D01*
X1084269Y1013305D01*
X1084285Y1013381D01*
X1087634D01*
X1087753Y1012784D01*
X1088866Y1011116D01*
X1090534Y1010003D01*
X1092500Y1009611D01*
X1097500D01*
X1099466Y1010003D01*
X1101134Y1011116D01*
X1102248Y1012784D01*
X1102366Y1013381D01*
X1104000D01*
X1105576Y1013694D01*
X1106913Y1014587D01*
X1109132Y1016807D01*
X1109705D01*
X1109729Y1016817D01*
X1109975Y1016675D01*
X1110364Y1015008D01*
X1110003Y1014466D01*
X1109611Y1012500D01*
Y1011270D01*
X1116230D01*
Y1017639D01*
X1114750D01*
X1113186Y1017328D01*
X1112570Y1018480D01*
X1113300Y1019209D01*
X1114143Y1021245D01*
Y1023449D01*
X1113300Y1025485D01*
X1112228Y1026557D01*
X1111849Y1027297D01*
X1112228Y1028190D01*
X1113233Y1029196D01*
X1114077Y1031232D01*
Y1033436D01*
X1113233Y1035472D01*
X1111675Y1037030D01*
X1109639Y1037874D01*
X1107435D01*
X1105398Y1037030D01*
X1104987Y1036619D01*
X1102366D01*
X1102248Y1037216D01*
X1101134Y1038884D01*
X1099466Y1039998D01*
X1097500Y1040389D01*
D02*
G37*
G36*
X988436Y1029304D02*
Y1025104D01*
X992637D01*
X991863Y1026972D01*
X990304Y1028530D01*
X988436Y1029304D01*
D02*
G37*
G36*
X985896D02*
X984028Y1028530D01*
X982470Y1026972D01*
X981696Y1025104D01*
X985896D01*
Y1029304D01*
D02*
G37*
G36*
X1411270Y1025470D02*
Y1021270D01*
X1415470D01*
X1414696Y1023138D01*
X1413138Y1024696D01*
X1411270Y1025470D01*
D02*
G37*
G36*
X1408730D02*
X1406861Y1024696D01*
X1405303Y1023138D01*
X1404529Y1021270D01*
X1408730D01*
Y1025470D01*
D02*
G37*
G36*
X1381270D02*
Y1021270D01*
X1385470D01*
X1384696Y1023138D01*
X1383138Y1024696D01*
X1381270Y1025470D01*
D02*
G37*
G36*
X1378730D02*
X1376861Y1024696D01*
X1375303Y1023138D01*
X1374529Y1021270D01*
X1378730D01*
Y1025470D01*
D02*
G37*
G36*
X1351270D02*
Y1021270D01*
X1355470D01*
X1354696Y1023138D01*
X1353138Y1024696D01*
X1351270Y1025470D01*
D02*
G37*
G36*
X1348730D02*
X1346861Y1024696D01*
X1345303Y1023138D01*
X1344529Y1021270D01*
X1348730D01*
Y1025470D01*
D02*
G37*
G36*
X1231270D02*
Y1021270D01*
X1235470D01*
X1234696Y1023138D01*
X1233138Y1024696D01*
X1231270Y1025470D01*
D02*
G37*
G36*
X1228730D02*
X1226861Y1024696D01*
X1225303Y1023138D01*
X1224529Y1021270D01*
X1228730D01*
Y1025470D01*
D02*
G37*
G36*
X1171270D02*
Y1021270D01*
X1175470D01*
X1174696Y1023138D01*
X1173138Y1024696D01*
X1171270Y1025470D01*
D02*
G37*
G36*
X1168730D02*
X1166861Y1024696D01*
X1165303Y1023138D01*
X1164529Y1021270D01*
X1168730D01*
Y1025470D01*
D02*
G37*
G36*
X811270D02*
Y1021270D01*
X815470D01*
X814696Y1023138D01*
X813138Y1024696D01*
X811270Y1025470D01*
D02*
G37*
G36*
X808730D02*
X806862Y1024696D01*
X805303Y1023138D01*
X804529Y1021270D01*
X808730D01*
Y1025470D01*
D02*
G37*
G36*
X691270D02*
Y1021270D01*
X695470D01*
X694696Y1023138D01*
X693138Y1024696D01*
X691270Y1025470D01*
D02*
G37*
G36*
X688730D02*
X686862Y1024696D01*
X685303Y1023138D01*
X684529Y1021270D01*
X688730D01*
Y1025470D01*
D02*
G37*
G36*
X661270D02*
Y1021270D01*
X665470D01*
X664696Y1023138D01*
X663138Y1024696D01*
X661270Y1025470D01*
D02*
G37*
G36*
X658730D02*
X656862Y1024696D01*
X655303Y1023138D01*
X654529Y1021270D01*
X658730D01*
Y1025470D01*
D02*
G37*
G36*
X631270D02*
Y1021270D01*
X635470D01*
X634696Y1023138D01*
X633138Y1024696D01*
X631270Y1025470D01*
D02*
G37*
G36*
X628730D02*
X626862Y1024696D01*
X625303Y1023138D01*
X624529Y1021270D01*
X628730D01*
Y1025470D01*
D02*
G37*
G36*
X992637Y1022564D02*
X988436D01*
Y1018363D01*
X990304Y1019137D01*
X991863Y1020696D01*
X992637Y1022564D01*
D02*
G37*
G36*
X985896D02*
X981696D01*
X982470Y1020696D01*
X984028Y1019137D01*
X985896Y1018363D01*
Y1022564D01*
D02*
G37*
G36*
X1415470Y1018730D02*
X1411270D01*
Y1014529D01*
X1413138Y1015303D01*
X1414696Y1016861D01*
X1415470Y1018730D01*
D02*
G37*
G36*
X1408730D02*
X1404529D01*
X1405303Y1016861D01*
X1406861Y1015303D01*
X1408730Y1014529D01*
Y1018730D01*
D02*
G37*
G36*
X1385470D02*
X1381270D01*
Y1014529D01*
X1383138Y1015303D01*
X1384696Y1016861D01*
X1385470Y1018730D01*
D02*
G37*
G36*
X1378730D02*
X1374529D01*
X1375303Y1016861D01*
X1376861Y1015303D01*
X1378730Y1014529D01*
Y1018730D01*
D02*
G37*
G36*
X1355470D02*
X1351270D01*
Y1014529D01*
X1353138Y1015303D01*
X1354696Y1016861D01*
X1355470Y1018730D01*
D02*
G37*
G36*
X1348730D02*
X1344529D01*
X1345303Y1016861D01*
X1346861Y1015303D01*
X1348730Y1014529D01*
Y1018730D01*
D02*
G37*
G36*
X1235470D02*
X1231270D01*
Y1014529D01*
X1233138Y1015303D01*
X1234696Y1016861D01*
X1235470Y1018730D01*
D02*
G37*
G36*
X1228730D02*
X1224529D01*
X1225303Y1016861D01*
X1226861Y1015303D01*
X1228730Y1014529D01*
Y1018730D01*
D02*
G37*
G36*
X1175470D02*
X1171270D01*
Y1014529D01*
X1173138Y1015303D01*
X1174696Y1016861D01*
X1175470Y1018730D01*
D02*
G37*
G36*
X1168730D02*
X1164529D01*
X1165303Y1016861D01*
X1166861Y1015303D01*
X1168730Y1014529D01*
Y1018730D01*
D02*
G37*
G36*
X815470D02*
X811270D01*
Y1014529D01*
X813138Y1015303D01*
X814696Y1016861D01*
X815470Y1018730D01*
D02*
G37*
G36*
X808730D02*
X804529D01*
X805303Y1016861D01*
X806862Y1015303D01*
X808730Y1014529D01*
Y1018730D01*
D02*
G37*
G36*
X695470D02*
X691270D01*
Y1014529D01*
X693138Y1015303D01*
X694696Y1016861D01*
X695470Y1018730D01*
D02*
G37*
G36*
X688730D02*
X684529D01*
X685303Y1016861D01*
X686862Y1015303D01*
X688730Y1014529D01*
Y1018730D01*
D02*
G37*
G36*
X665470D02*
X661270D01*
Y1014529D01*
X663138Y1015303D01*
X664696Y1016861D01*
X665470Y1018730D01*
D02*
G37*
G36*
X658730D02*
X654529D01*
X655303Y1016861D01*
X656862Y1015303D01*
X658730Y1014529D01*
Y1018730D01*
D02*
G37*
G36*
X635470D02*
X631270D01*
Y1014529D01*
X633138Y1015303D01*
X634696Y1016861D01*
X635470Y1018730D01*
D02*
G37*
G36*
X628730D02*
X624529D01*
X625303Y1016861D01*
X626862Y1015303D01*
X628730Y1014529D01*
Y1018730D01*
D02*
G37*
G36*
X988436Y1003304D02*
Y999104D01*
X992637D01*
X991863Y1000972D01*
X990304Y1002530D01*
X988436Y1003304D01*
D02*
G37*
G36*
X985896D02*
X984028Y1002530D01*
X982470Y1000972D01*
X981696Y999104D01*
X985896D01*
Y1003304D01*
D02*
G37*
G36*
X992637Y996564D02*
X988436D01*
Y992363D01*
X990304Y993137D01*
X991863Y994696D01*
X992637Y996564D01*
D02*
G37*
G36*
X985896D02*
X981696D01*
X982470Y994696D01*
X984028Y993137D01*
X985896Y992363D01*
Y996564D01*
D02*
G37*
G36*
X1426270Y995470D02*
Y991270D01*
X1430470D01*
X1429696Y993138D01*
X1428138Y994696D01*
X1426270Y995470D01*
D02*
G37*
G36*
X1423730D02*
X1421861Y994696D01*
X1420303Y993138D01*
X1419529Y991270D01*
X1423730D01*
Y995470D01*
D02*
G37*
G36*
X1396270D02*
Y991270D01*
X1400470D01*
X1399696Y993138D01*
X1398138Y994696D01*
X1396270Y995470D01*
D02*
G37*
G36*
X1393730D02*
X1391861Y994696D01*
X1390303Y993138D01*
X1389529Y991270D01*
X1393730D01*
Y995470D01*
D02*
G37*
G36*
X1366270D02*
Y991270D01*
X1370470D01*
X1369696Y993138D01*
X1368138Y994696D01*
X1366270Y995470D01*
D02*
G37*
G36*
X1363730D02*
X1361861Y994696D01*
X1360303Y993138D01*
X1359529Y991270D01*
X1363730D01*
Y995470D01*
D02*
G37*
G36*
X1216270D02*
Y991270D01*
X1220470D01*
X1219696Y993138D01*
X1218138Y994696D01*
X1216270Y995470D01*
D02*
G37*
G36*
X1213730D02*
X1211861Y994696D01*
X1210303Y993138D01*
X1209529Y991270D01*
X1213730D01*
Y995470D01*
D02*
G37*
G36*
X1096270D02*
Y991270D01*
X1100470D01*
X1099696Y993138D01*
X1098138Y994696D01*
X1096270Y995470D01*
D02*
G37*
G36*
X1093730D02*
X1091861Y994696D01*
X1090303Y993138D01*
X1089529Y991270D01*
X1093730D01*
Y995470D01*
D02*
G37*
G36*
X1066270D02*
Y991270D01*
X1070470D01*
X1069696Y993138D01*
X1068138Y994696D01*
X1066270Y995470D01*
D02*
G37*
G36*
X1063730D02*
X1061861Y994696D01*
X1060303Y993138D01*
X1059529Y991270D01*
X1063730D01*
Y995470D01*
D02*
G37*
G36*
X826270D02*
Y991270D01*
X830470D01*
X829696Y993138D01*
X828138Y994696D01*
X826270Y995470D01*
D02*
G37*
G36*
X823730D02*
X821862Y994696D01*
X820303Y993138D01*
X819529Y991270D01*
X823730D01*
Y995470D01*
D02*
G37*
G36*
X676270D02*
Y991270D01*
X680470D01*
X679696Y993138D01*
X678138Y994696D01*
X676270Y995470D01*
D02*
G37*
G36*
X673730D02*
X671862Y994696D01*
X670303Y993138D01*
X669529Y991270D01*
X673730D01*
Y995470D01*
D02*
G37*
G36*
X646270D02*
Y991270D01*
X650470D01*
X649696Y993138D01*
X648138Y994696D01*
X646270Y995470D01*
D02*
G37*
G36*
X643730D02*
X641862Y994696D01*
X640303Y993138D01*
X639529Y991270D01*
X643730D01*
Y995470D01*
D02*
G37*
G36*
X1116230Y993730D02*
X1109611D01*
Y992500D01*
X1110003Y990534D01*
X1111116Y988866D01*
X1112784Y987752D01*
X1114750Y987361D01*
X1116230D01*
Y993730D01*
D02*
G37*
G36*
X1400470Y988730D02*
X1396270D01*
Y984529D01*
X1398138Y985303D01*
X1399696Y986862D01*
X1400470Y988730D01*
D02*
G37*
G36*
X1393730D02*
X1389529D01*
X1390303Y986862D01*
X1391861Y985303D01*
X1393730Y984529D01*
Y988730D01*
D02*
G37*
G36*
X1370470D02*
X1366270D01*
Y984529D01*
X1368138Y985303D01*
X1369696Y986862D01*
X1370470Y988730D01*
D02*
G37*
G36*
X1363730D02*
X1359529D01*
X1360303Y986862D01*
X1361861Y985303D01*
X1363730Y984529D01*
Y988730D01*
D02*
G37*
G36*
X1220470D02*
X1216270D01*
Y984529D01*
X1218138Y985303D01*
X1219696Y986862D01*
X1220470Y988730D01*
D02*
G37*
G36*
X1213730D02*
X1209529D01*
X1210303Y986862D01*
X1211861Y985303D01*
X1213730Y984529D01*
Y988730D01*
D02*
G37*
G36*
X1100470D02*
X1096270D01*
Y984529D01*
X1098138Y985303D01*
X1099696Y986862D01*
X1100470Y988730D01*
D02*
G37*
G36*
X1093730D02*
X1089529D01*
X1090303Y986862D01*
X1091861Y985303D01*
X1093730Y984529D01*
Y988730D01*
D02*
G37*
G36*
X1070470D02*
X1066270D01*
Y984529D01*
X1068138Y985303D01*
X1069696Y986862D01*
X1070470Y988730D01*
D02*
G37*
G36*
X1063730D02*
X1059529D01*
X1060303Y986862D01*
X1061861Y985303D01*
X1063730Y984529D01*
Y988730D01*
D02*
G37*
G36*
X830470D02*
X826270D01*
Y984529D01*
X828138Y985303D01*
X829696Y986862D01*
X830470Y988730D01*
D02*
G37*
G36*
X823730D02*
X819529D01*
X820303Y986862D01*
X821862Y985303D01*
X823730Y984529D01*
Y988730D01*
D02*
G37*
G36*
X680470D02*
X676270D01*
Y984529D01*
X678138Y985303D01*
X679696Y986862D01*
X680470Y988730D01*
D02*
G37*
G36*
X673730D02*
X669529D01*
X670303Y986862D01*
X671862Y985303D01*
X673730Y984529D01*
Y988730D01*
D02*
G37*
G36*
X650470D02*
X646270D01*
Y984529D01*
X648138Y985303D01*
X649696Y986862D01*
X650470Y988730D01*
D02*
G37*
G36*
X643730D02*
X639529D01*
X640303Y986862D01*
X641862Y985303D01*
X643730Y984529D01*
Y988730D01*
D02*
G37*
G36*
X988436Y979304D02*
Y975104D01*
X992637D01*
X991863Y976972D01*
X990304Y978530D01*
X988436Y979304D01*
D02*
G37*
G36*
X985896D02*
X984028Y978530D01*
X982470Y976972D01*
X981696Y975104D01*
X985896D01*
Y979304D01*
D02*
G37*
G36*
X992637Y972564D02*
X988436D01*
Y968363D01*
X990304Y969137D01*
X991863Y970696D01*
X992637Y972564D01*
D02*
G37*
G36*
X985896D02*
X981696D01*
X982470Y970696D01*
X984028Y969137D01*
X985896Y968363D01*
Y972564D01*
D02*
G37*
G36*
X1016000Y970658D02*
X1011270D01*
Y962270D01*
X1022158D01*
Y964500D01*
X1021690Y966857D01*
X1020355Y968855D01*
X1018357Y970190D01*
X1016000Y970658D01*
D02*
G37*
G36*
X1008730D02*
X1004000D01*
X1001643Y970190D01*
X999645Y968855D01*
X998310Y966857D01*
X997842Y964500D01*
Y962270D01*
X1008730D01*
Y970658D01*
D02*
G37*
G36*
X1045125Y968646D02*
X1041270D01*
Y961520D01*
X1050646D01*
Y963125D01*
X1050226Y965238D01*
X1049029Y967029D01*
X1047238Y968226D01*
X1045125Y968646D01*
D02*
G37*
G36*
X1038730D02*
X1034875D01*
X1032762Y968226D01*
X1030971Y967029D01*
X1029774Y965238D01*
X1029354Y963125D01*
Y961520D01*
X1038730D01*
Y968646D01*
D02*
G37*
G36*
X1411270Y965470D02*
Y961270D01*
X1415470D01*
X1414696Y963138D01*
X1413138Y964696D01*
X1411270Y965470D01*
D02*
G37*
G36*
X1408730D02*
X1406861Y964696D01*
X1405303Y963138D01*
X1404529Y961270D01*
X1408730D01*
Y965470D01*
D02*
G37*
G36*
X1381270D02*
Y961270D01*
X1385470D01*
X1384696Y963138D01*
X1383138Y964696D01*
X1381270Y965470D01*
D02*
G37*
G36*
X1378730D02*
X1376861Y964696D01*
X1375303Y963138D01*
X1374529Y961270D01*
X1378730D01*
Y965470D01*
D02*
G37*
G36*
X1351270D02*
Y961270D01*
X1355470D01*
X1354696Y963138D01*
X1353138Y964696D01*
X1351270Y965470D01*
D02*
G37*
G36*
X1348730D02*
X1346861Y964696D01*
X1345303Y963138D01*
X1344529Y961270D01*
X1348730D01*
Y965470D01*
D02*
G37*
G36*
X1291270D02*
Y961270D01*
X1295470D01*
X1294696Y963138D01*
X1293138Y964696D01*
X1291270Y965470D01*
D02*
G37*
G36*
X1288730D02*
X1286862Y964696D01*
X1285303Y963138D01*
X1284529Y961270D01*
X1288730D01*
Y965470D01*
D02*
G37*
G36*
X1231270D02*
Y961270D01*
X1235470D01*
X1234696Y963138D01*
X1233138Y964696D01*
X1231270Y965470D01*
D02*
G37*
G36*
X1228730D02*
X1226861Y964696D01*
X1225303Y963138D01*
X1224529Y961270D01*
X1228730D01*
Y965470D01*
D02*
G37*
G36*
X1081270D02*
Y961270D01*
X1085470D01*
X1084696Y963138D01*
X1083138Y964696D01*
X1081270Y965470D01*
D02*
G37*
G36*
X1078730D02*
X1076861Y964696D01*
X1075303Y963138D01*
X1074529Y961270D01*
X1078730D01*
Y965470D01*
D02*
G37*
G36*
X811270D02*
Y961270D01*
X815470D01*
X814696Y963138D01*
X813138Y964696D01*
X811270Y965470D01*
D02*
G37*
G36*
X808730D02*
X806862Y964696D01*
X805303Y963138D01*
X804529Y961270D01*
X808730D01*
Y965470D01*
D02*
G37*
G36*
X751270D02*
Y961270D01*
X755470D01*
X754696Y963138D01*
X753138Y964696D01*
X751270Y965470D01*
D02*
G37*
G36*
X748730D02*
X746862Y964696D01*
X745303Y963138D01*
X744529Y961270D01*
X748730D01*
Y965470D01*
D02*
G37*
G36*
X691270D02*
Y961270D01*
X695470D01*
X694696Y963138D01*
X693138Y964696D01*
X691270Y965470D01*
D02*
G37*
G36*
X688730D02*
X686862Y964696D01*
X685303Y963138D01*
X684529Y961270D01*
X688730D01*
Y965470D01*
D02*
G37*
G36*
X661270D02*
Y961270D01*
X665470D01*
X664696Y963138D01*
X663138Y964696D01*
X661270Y965470D01*
D02*
G37*
G36*
X658730D02*
X656862Y964696D01*
X655303Y963138D01*
X654529Y961270D01*
X658730D01*
Y965470D01*
D02*
G37*
G36*
X1106820Y968896D02*
Y957770D01*
X1111199D01*
Y963500D01*
X1110769Y965662D01*
X1109544Y967494D01*
X1107712Y968719D01*
X1106820Y968896D01*
D02*
G37*
G36*
X1104280D02*
X1103388Y968719D01*
X1101556Y967494D01*
X1100331Y965662D01*
X1099902Y963500D01*
Y957770D01*
X1104280D01*
Y968896D01*
D02*
G37*
G36*
X1430470Y988730D02*
X1419529D01*
X1420303Y986862D01*
X1421861Y985303D01*
X1423172Y984760D01*
Y983407D01*
X1422895Y983293D01*
X1420438Y981651D01*
X1418349Y979562D01*
X1416707Y977105D01*
X1415576Y974375D01*
X1415000Y971477D01*
Y968523D01*
X1415576Y965625D01*
X1416707Y962895D01*
X1418349Y960438D01*
X1420438Y958349D01*
X1422895Y956707D01*
X1425625Y955576D01*
X1428523Y955000D01*
X1431477D01*
X1434375Y955576D01*
X1437105Y956707D01*
X1439562Y958349D01*
X1441651Y960438D01*
X1443293Y962895D01*
X1444424Y965625D01*
X1445000Y968523D01*
Y971477D01*
X1444424Y974375D01*
X1443293Y977105D01*
X1441651Y979562D01*
X1439562Y981651D01*
X1437105Y983293D01*
X1434375Y984424D01*
X1431477Y985000D01*
X1429602D01*
X1429085Y986250D01*
X1429696Y986862D01*
X1430470Y988730D01*
D02*
G37*
G36*
X621477Y985000D02*
X618523D01*
X615625Y984424D01*
X612895Y983293D01*
X610438Y981651D01*
X608349Y979562D01*
X606707Y977105D01*
X605576Y974375D01*
X605000Y971477D01*
Y968523D01*
X605576Y965625D01*
X606707Y962895D01*
X608349Y960438D01*
X610438Y958349D01*
X612895Y956707D01*
X615625Y955576D01*
X618523Y955000D01*
X621477D01*
X624375Y955576D01*
X627105Y956707D01*
X629562Y958349D01*
X631651Y960438D01*
X633293Y962895D01*
X634423Y965625D01*
X635000Y968523D01*
Y971477D01*
X634423Y974375D01*
X633293Y977105D01*
X631651Y979562D01*
X629562Y981651D01*
X627105Y983293D01*
X624375Y984424D01*
X621477Y985000D01*
D02*
G37*
G36*
X1415470Y958730D02*
X1411270D01*
Y954529D01*
X1413138Y955303D01*
X1414696Y956862D01*
X1415470Y958730D01*
D02*
G37*
G36*
X1408730D02*
X1404529D01*
X1405303Y956862D01*
X1406861Y955303D01*
X1408730Y954529D01*
Y958730D01*
D02*
G37*
G36*
X1385470D02*
X1381270D01*
Y954529D01*
X1383138Y955303D01*
X1384696Y956862D01*
X1385470Y958730D01*
D02*
G37*
G36*
X1378730D02*
X1374529D01*
X1375303Y956862D01*
X1376861Y955303D01*
X1378730Y954529D01*
Y958730D01*
D02*
G37*
G36*
X1355470D02*
X1351270D01*
Y954529D01*
X1353138Y955303D01*
X1354696Y956862D01*
X1355470Y958730D01*
D02*
G37*
G36*
X1348730D02*
X1344529D01*
X1345303Y956862D01*
X1346861Y955303D01*
X1348730Y954529D01*
Y958730D01*
D02*
G37*
G36*
X1295470D02*
X1291270D01*
Y954529D01*
X1293138Y955303D01*
X1294696Y956862D01*
X1295470Y958730D01*
D02*
G37*
G36*
X1288730D02*
X1284529D01*
X1285303Y956862D01*
X1286862Y955303D01*
X1288730Y954529D01*
Y958730D01*
D02*
G37*
G36*
X1235470D02*
X1231270D01*
Y954529D01*
X1233138Y955303D01*
X1234696Y956862D01*
X1235470Y958730D01*
D02*
G37*
G36*
X1228730D02*
X1224529D01*
X1225303Y956862D01*
X1226861Y955303D01*
X1228730Y954529D01*
Y958730D01*
D02*
G37*
G36*
X1085470D02*
X1081270D01*
Y954529D01*
X1083138Y955303D01*
X1084696Y956862D01*
X1085470Y958730D01*
D02*
G37*
G36*
X1078730D02*
X1074529D01*
X1075303Y956862D01*
X1076861Y955303D01*
X1078730Y954529D01*
Y958730D01*
D02*
G37*
G36*
X815470D02*
X811270D01*
Y954529D01*
X813138Y955303D01*
X814696Y956862D01*
X815470Y958730D01*
D02*
G37*
G36*
X808730D02*
X804529D01*
X805303Y956862D01*
X806862Y955303D01*
X808730Y954529D01*
Y958730D01*
D02*
G37*
G36*
X755470D02*
X751270D01*
Y954529D01*
X753138Y955303D01*
X754696Y956862D01*
X755470Y958730D01*
D02*
G37*
G36*
X748730D02*
X744529D01*
X745303Y956862D01*
X746862Y955303D01*
X748730Y954529D01*
Y958730D01*
D02*
G37*
G36*
X695470D02*
X691270D01*
Y954529D01*
X693138Y955303D01*
X694696Y956862D01*
X695470Y958730D01*
D02*
G37*
G36*
X688730D02*
X684529D01*
X685303Y956862D01*
X686862Y955303D01*
X688730Y954529D01*
Y958730D01*
D02*
G37*
G36*
X665470D02*
X661270D01*
Y954529D01*
X663138Y955303D01*
X664696Y956862D01*
X665470Y958730D01*
D02*
G37*
G36*
X658730D02*
X654529D01*
X655303Y956862D01*
X656862Y955303D01*
X658730Y954529D01*
Y958730D01*
D02*
G37*
G36*
X1050646Y958980D02*
X1041270D01*
Y951854D01*
X1045125D01*
X1047238Y952274D01*
X1049029Y953471D01*
X1050226Y955262D01*
X1050646Y957375D01*
Y958980D01*
D02*
G37*
G36*
X1038730D02*
X1029354D01*
Y957375D01*
X1029774Y955262D01*
X1030971Y953471D01*
X1032762Y952274D01*
X1034875Y951854D01*
X1038730D01*
Y958980D01*
D02*
G37*
G36*
X1022158Y959730D02*
X1011270D01*
Y951342D01*
X1016000D01*
X1018357Y951811D01*
X1020355Y953145D01*
X1021690Y955143D01*
X1022158Y957500D01*
Y959730D01*
D02*
G37*
G36*
X1008730D02*
X997842D01*
Y957500D01*
X998310Y955143D01*
X999645Y953145D01*
X1001643Y951811D01*
X1004000Y951342D01*
X1008730D01*
Y959730D01*
D02*
G37*
%LPD*%
D12*
X1320000Y830000D02*
X1332500D01*
D14*
X1374750Y614750D02*
X1386000D01*
X1372000Y612000D02*
X1374750Y614750D01*
X1305994Y543126D02*
Y548550D01*
X1258000Y542716D02*
Y550900D01*
X1415750Y614750D02*
X1416000Y615000D01*
X1401000Y614750D02*
X1415750D01*
X1242000Y562000D02*
X1249800Y554200D01*
Y548550D02*
Y554200D01*
X1313800Y556799D02*
X1319391Y562390D01*
X1313800Y548550D02*
Y556799D01*
X1306311Y557392D02*
X1307511Y558592D01*
X1306311Y549061D02*
Y557392D01*
X1305800Y548550D02*
X1306311Y549061D01*
X1401000Y586000D02*
Y599250D01*
X1386000Y586000D02*
Y599250D01*
X1299300Y560300D02*
X1300000Y561000D01*
X1299300Y548550D02*
Y560300D01*
X1257000Y562000D02*
X1265000D01*
X1269300Y557700D01*
Y548550D02*
Y557700D01*
X1258000Y542716D02*
X1266233Y534483D01*
X1297351D01*
X1305994Y543126D01*
X1274300Y540107D02*
X1275924Y538483D01*
X1282800Y559107D02*
X1286357D01*
X1275924Y538483D02*
X1282926D01*
X1274300Y540107D02*
Y548550D01*
X1289300D02*
Y562050D01*
X1282926Y538483D02*
X1284300Y539857D01*
Y548550D01*
X1274300D02*
Y562050D01*
X1279300Y548550D02*
Y555607D01*
X1282800Y559107D01*
X1291000Y575000D02*
Y588500D01*
X1287725Y622275D02*
X1291000Y619000D01*
X1285971Y622275D02*
X1287725D01*
X1291000Y611500D02*
Y619000D01*
X850750Y802000D02*
X851750Y803000D01*
X721713Y664000D02*
X730283Y672569D01*
X914000Y694000D02*
X914175Y694175D01*
X914000Y688000D02*
X914175Y687825D01*
X911445Y694000D02*
X914000D01*
X909000Y696445D02*
X911445Y694000D01*
X911095Y688000D02*
X914000D01*
X854000Y712000D02*
X855500D01*
X869000Y698500D01*
X753794Y690777D02*
X758640Y685931D01*
X899000Y718000D02*
X903650Y722650D01*
X779254Y657000D02*
X780000D01*
X754354Y681646D02*
Y682260D01*
X754608Y681646D02*
X766627Y669627D01*
X750294Y686320D02*
Y687027D01*
Y686320D02*
X754354Y682260D01*
Y681646D02*
X754608D01*
X853000Y701000D02*
X855000Y699000D01*
Y690000D02*
Y699000D01*
X904000Y676000D02*
Y682000D01*
X898000Y688000D02*
X904000Y682000D01*
X884000Y688000D02*
X898000D01*
X879500Y683500D02*
X884000Y688000D01*
X869000Y683500D02*
X879500D01*
X865500Y680000D02*
X869000Y683500D01*
X855000Y680000D02*
X865500D01*
X679500Y772357D02*
Y773000D01*
X680303Y749697D02*
X680947D01*
X691553Y760303D02*
X691697D01*
X680947Y749697D02*
X681053D01*
X715123Y729269D02*
Y730623D01*
Y729269D02*
X727313Y717079D01*
X710377Y725877D02*
X711444D01*
X723777Y713544D01*
X758640Y685931D02*
X765931D01*
X772000Y692000D01*
X744000Y613000D02*
X745518D01*
X756518Y624000D02*
X758000D01*
X745518Y613000D02*
X756518Y624000D01*
X728500Y629500D02*
Y642000D01*
Y629500D02*
X734000Y624000D01*
X744000D01*
X774500Y619500D02*
Y642000D01*
X768000Y613000D02*
X774500Y619500D01*
X758000Y613000D02*
X768000D01*
X774500Y642000D02*
Y648858D01*
X743187Y680171D02*
X774500Y648858D01*
X742460Y653460D02*
X746000Y657000D01*
X732460Y653460D02*
X742460D01*
X728500Y649500D02*
X732460Y653460D01*
X728500Y642000D02*
Y649500D01*
X746000Y657000D02*
Y670287D01*
X739652Y676635D02*
X746000Y670287D01*
X685000Y649750D02*
X696750D01*
X705000Y658000D01*
X733000D01*
X740000Y665000D01*
Y669216D01*
X736646Y672569D02*
X740000Y669216D01*
X772000Y692000D02*
X778000D01*
X848750Y664000D02*
X849000Y663750D01*
X762642Y712000D02*
X765000D01*
X766000Y703000D02*
X766000Y703000D01*
X760713Y703000D02*
X766000D01*
X685000Y619000D02*
Y634250D01*
X753794Y703152D02*
X762642Y712000D01*
X879500Y698500D02*
X882000Y696000D01*
X869000Y698500D02*
X879500D01*
X882000Y696000D02*
X901000D01*
X909000Y685905D02*
X911095Y688000D01*
X851750Y803000D02*
X865000D01*
X850000Y802750D02*
X850750Y802000D01*
X641350Y704400D02*
X641678Y704072D01*
X705143D01*
X757860Y700146D02*
X760713Y703000D01*
X722642Y672000D02*
X727277Y676635D01*
X705143Y689857D02*
X709069Y693783D01*
X705143Y704072D02*
X709069Y700146D01*
X720000Y672000D02*
X722642D01*
X720000Y664000D02*
X721713D01*
X744358Y722000D02*
X750000D01*
X739000Y723713D02*
Y726000D01*
X728000Y723642D02*
Y727000D01*
X739652Y717294D02*
X744358Y722000D01*
X728000Y723642D02*
X730283Y721360D01*
X736646D02*
X739000Y723713D01*
X901000Y696000D02*
X904000Y699000D01*
Y706000D01*
X879000Y765000D02*
X879000Y765000D01*
X879000Y752718D02*
Y765000D01*
X894000Y764000D02*
X894000Y764000D01*
X894000Y752782D02*
Y764000D01*
X929000Y752782D02*
Y764000D01*
X914000Y752718D02*
Y764000D01*
X899000Y706000D02*
Y718000D01*
X909000Y676000D02*
Y685905D01*
Y696445D02*
Y706000D01*
D15*
X647540Y832540D02*
X652618D01*
X650079D01*
Y847775D01*
X647540Y845236D01*
D17*
X1010000Y961000D02*
D03*
Y989000D02*
D03*
Y1008000D02*
D03*
Y1036000D02*
D03*
Y1055000D02*
D03*
Y1083000D02*
D03*
D18*
X1430000Y970000D02*
D03*
X620000Y800000D02*
D03*
Y970000D02*
D03*
D19*
X1264300Y548550D02*
D03*
X1269300D02*
D03*
X1274300D02*
D03*
X1279300D02*
D03*
X1284300D02*
D03*
X1289300D02*
D03*
X1294300D02*
D03*
X1299300D02*
D03*
D20*
X1257800D02*
D03*
X1305800D02*
D03*
X1249800D02*
D03*
X1313800D02*
D03*
D21*
X771373Y674373D02*
D03*
X766627Y669627D02*
D03*
X715123Y730623D02*
D03*
X710377Y725877D02*
D03*
D22*
X728500Y642000D02*
D03*
X743500D02*
D03*
X774500D02*
D03*
X759500D02*
D03*
X1169500Y563000D02*
D03*
X1184500D02*
D03*
X1221500Y488000D02*
D03*
X1206500D02*
D03*
X1332500Y577000D02*
D03*
X1347500D02*
D03*
X1332500Y617000D02*
D03*
X1347500D02*
D03*
X942500Y839000D02*
D03*
X927500D02*
D03*
X1132500Y830000D02*
D03*
X1117500D02*
D03*
X1132500Y815000D02*
D03*
X1117500D02*
D03*
X1195500Y837000D02*
D03*
X1180500D02*
D03*
X1182000Y980000D02*
D03*
X1167000D02*
D03*
X1197000Y995000D02*
D03*
X1182000D02*
D03*
X1197000Y1010000D02*
D03*
X1182000D02*
D03*
X1132500Y995000D02*
D03*
X1117500D02*
D03*
X1132500Y1010000D02*
D03*
X1117500D02*
D03*
X1200500Y563000D02*
D03*
X1215500D02*
D03*
X1200500Y548000D02*
D03*
X1215500D02*
D03*
D23*
X758000Y624000D02*
D03*
X744000Y624000D02*
D03*
X758000Y613000D02*
D03*
X744000Y613000D02*
D03*
D24*
X685000Y649750D02*
D03*
Y634250D02*
D03*
X864000Y748750D02*
D03*
Y733250D02*
D03*
X944000Y748750D02*
D03*
Y733250D02*
D03*
X879000Y648750D02*
D03*
Y633250D02*
D03*
X849000Y648750D02*
D03*
Y633250D02*
D03*
X944000Y633250D02*
D03*
Y648750D02*
D03*
X1401000Y614750D02*
D03*
Y599250D02*
D03*
X1386000Y614750D02*
D03*
Y599250D02*
D03*
X1372000Y658750D02*
D03*
Y643250D02*
D03*
X1415000Y658750D02*
D03*
Y643250D02*
D03*
X850000Y802750D02*
D03*
Y787250D02*
D03*
Y817250D02*
D03*
Y832750D02*
D03*
X1267500Y780250D02*
D03*
Y764750D02*
D03*
X1290000Y780250D02*
D03*
Y764750D02*
D03*
D25*
X680947Y749697D02*
D03*
X691553Y760303D02*
D03*
X692697Y738197D02*
D03*
X703303Y748803D02*
D03*
D26*
X709105Y699932D02*
D03*
X757895Y693568D02*
D03*
X730318Y721145D02*
D03*
X736682Y672355D02*
D03*
D27*
Y721145D02*
D03*
X730318Y672355D02*
D03*
X709105Y693568D02*
D03*
X757895Y699932D02*
D03*
D28*
X739687Y676421D02*
D03*
X743223Y679956D02*
D03*
X746758Y683492D02*
D03*
X750294Y687027D02*
D03*
X753829Y690563D02*
D03*
X727313Y717079D02*
D03*
X723777Y713544D02*
D03*
X720242Y710008D02*
D03*
X716706Y706473D02*
D03*
X713171Y702937D02*
D03*
D29*
X753829D02*
D03*
X750294Y706473D02*
D03*
X746758Y710008D02*
D03*
X743223Y713544D02*
D03*
X739687Y717079D02*
D03*
X713171Y690563D02*
D03*
X716706Y687027D02*
D03*
X720242Y683492D02*
D03*
X723777Y679956D02*
D03*
X727313Y676421D02*
D03*
D30*
X646000Y762000D02*
D03*
X656000D02*
D03*
X936000Y591000D02*
D03*
X946000D02*
D03*
D31*
X849000Y748500D02*
D03*
Y733500D02*
D03*
X959000Y748500D02*
D03*
Y733500D02*
D03*
X869000Y698500D02*
D03*
Y683500D02*
D03*
X864000Y633500D02*
D03*
Y648500D02*
D03*
X894000Y648500D02*
D03*
Y633500D02*
D03*
X959000Y633500D02*
D03*
Y648500D02*
D03*
X962000Y605500D02*
D03*
Y590500D02*
D03*
X1121000Y605500D02*
D03*
Y590500D02*
D03*
X1066000Y772500D02*
D03*
Y787500D02*
D03*
X1227500Y815000D02*
D03*
Y830000D02*
D03*
X1325000Y765000D02*
D03*
Y780000D02*
D03*
X1340000Y765000D02*
D03*
Y780000D02*
D03*
X1332500Y830000D02*
D03*
Y815000D02*
D03*
X1095000Y1032500D02*
D03*
Y1017500D02*
D03*
D32*
X879000Y752718D02*
D03*
Y739218D02*
D03*
X894000Y739282D02*
D03*
Y752782D02*
D03*
X914000Y752718D02*
D03*
Y739218D02*
D03*
X929000Y739282D02*
D03*
Y752782D02*
D03*
X914000Y629282D02*
D03*
Y642782D02*
D03*
X929000Y642718D02*
D03*
Y629218D02*
D03*
D33*
X919000Y706000D02*
D03*
X914000D02*
D03*
X909000D02*
D03*
X904000D02*
D03*
X899000D02*
D03*
X894000D02*
D03*
X889000D02*
D03*
X919000Y676000D02*
D03*
X914000D02*
D03*
X909000D02*
D03*
X904000D02*
D03*
X899000D02*
D03*
X894000D02*
D03*
X889000D02*
D03*
D34*
X855000Y680000D02*
D03*
Y690000D02*
D03*
X1136000Y593000D02*
D03*
Y603000D02*
D03*
X1200000Y535000D02*
D03*
Y525000D02*
D03*
X1330000Y592000D02*
D03*
Y602000D02*
D03*
X929000Y822000D02*
D03*
Y812000D02*
D03*
X1133000Y801000D02*
D03*
Y791000D02*
D03*
D35*
X864250Y664000D02*
D03*
X848750D02*
D03*
X947250Y573000D02*
D03*
X962750D02*
D03*
X947250Y558000D02*
D03*
X962750D02*
D03*
X1120250Y574000D02*
D03*
X1135750D02*
D03*
X1120250Y559000D02*
D03*
X1135750D02*
D03*
X1221750Y504000D02*
D03*
X1206250D02*
D03*
X972750Y839000D02*
D03*
X957250D02*
D03*
X972750Y824000D02*
D03*
X957250D02*
D03*
X1083250Y790000D02*
D03*
X1098750D02*
D03*
X1083250Y770000D02*
D03*
X1098750D02*
D03*
X1062250Y1032500D02*
D03*
X1077750D02*
D03*
X1062250Y1017500D02*
D03*
X1077750D02*
D03*
D36*
X1281500Y611500D02*
D03*
X1291000D02*
D03*
X1300500D02*
D03*
Y588500D02*
D03*
X1291000D02*
D03*
X1281500D02*
D03*
D37*
X1386000Y642750D02*
D03*
Y659250D02*
D03*
X1401000Y642750D02*
D03*
Y659250D02*
D03*
X1252500Y764250D02*
D03*
Y780750D02*
D03*
X1305000Y764250D02*
D03*
Y780750D02*
D03*
D38*
X1257750Y807750D02*
D03*
X1302250D02*
D03*
Y814250D02*
D03*
Y820750D02*
D03*
Y827250D02*
D03*
X1257750Y814250D02*
D03*
Y820750D02*
D03*
Y827250D02*
D03*
D39*
X935400Y958750D02*
D03*
X884600D02*
D03*
D40*
X865550Y861250D02*
D03*
X878250D02*
D03*
X890950D02*
D03*
X903650D02*
D03*
X916350D02*
D03*
X929050D02*
D03*
X941750D02*
D03*
X954450D02*
D03*
D41*
X1105550Y863500D02*
D03*
X1118250D02*
D03*
X1130950D02*
D03*
X1143650D02*
D03*
X1156350D02*
D03*
X1169050D02*
D03*
X1181750D02*
D03*
X1194450D02*
D03*
X1105550Y956500D02*
D03*
X1118250D02*
D03*
X1130950D02*
D03*
X1143650D02*
D03*
X1156350D02*
D03*
X1169050D02*
D03*
X1181750D02*
D03*
X1194450D02*
D03*
D42*
X1040000Y989750D02*
D03*
Y960250D02*
D03*
Y1036750D02*
D03*
Y1007250D02*
D03*
Y1083750D02*
D03*
Y1054250D02*
D03*
D43*
X1255250Y661500D02*
D03*
X1248750D02*
D03*
X1242250D02*
D03*
X1235750D02*
D03*
X1229250D02*
D03*
X1222750D02*
D03*
X1216250D02*
D03*
X1209750D02*
D03*
X1203250D02*
D03*
X1196750D02*
D03*
X1190250D02*
D03*
X1183750D02*
D03*
X1177250D02*
D03*
X1170750D02*
D03*
X1255250Y590500D02*
D03*
X1248750D02*
D03*
X1242250D02*
D03*
X1235750D02*
D03*
X1229250D02*
D03*
X1222750D02*
D03*
X1216250D02*
D03*
X1209750D02*
D03*
X1203250D02*
D03*
X1196750D02*
D03*
X1190250D02*
D03*
X1183750D02*
D03*
X1177250D02*
D03*
X1170750D02*
D03*
D44*
X995500Y610450D02*
D03*
Y597750D02*
D03*
Y585050D02*
D03*
Y572350D02*
D03*
Y559650D02*
D03*
Y546950D02*
D03*
Y534250D02*
D03*
Y521550D02*
D03*
X1088500Y610450D02*
D03*
Y597750D02*
D03*
Y585050D02*
D03*
Y572350D02*
D03*
Y559650D02*
D03*
Y546950D02*
D03*
Y534250D02*
D03*
Y521550D02*
D03*
D69*
X1238600Y501000D02*
D03*
X1325000D02*
D03*
D70*
X1238600Y542800D02*
D03*
X1325000D02*
D03*
D71*
X1252900Y537800D02*
D03*
X1310700D02*
D03*
D81*
X1104000Y1017500D02*
X1108603Y1022103D01*
Y1022347D01*
X1095000Y1032500D02*
X1108370D01*
X1108537Y1032334D01*
X1095000Y1017500D02*
X1104000D01*
X1148000Y528400D02*
X1168400Y508000D01*
X1148000Y528400D02*
Y559000D01*
X903650Y785000D02*
Y861250D01*
Y722650D02*
Y785000D01*
X1113550Y521550D02*
X1114000Y522000D01*
X1088500Y521550D02*
X1113550D01*
X834000Y773000D02*
Y787000D01*
Y773000D02*
X842000Y765000D01*
X857000D01*
X1372000Y629000D02*
X1372000Y629000D01*
X1372000Y629000D02*
Y643250D01*
X1135014Y619008D02*
X1136000Y618022D01*
Y603000D02*
Y618022D01*
X1121000Y618000D02*
X1122000Y619000D01*
X1121000Y605500D02*
Y618000D01*
X1133500Y590500D02*
X1136000Y593000D01*
X1121000Y590500D02*
X1133500D01*
X1088500Y610450D02*
X1106550D01*
X1111500Y605500D01*
X1121000D01*
X1111500Y590500D02*
X1121000D01*
X1106050Y585050D02*
X1111500Y590500D01*
X1088500Y585050D02*
X1106050D01*
X1235750Y648250D02*
X1240000Y644000D01*
X1235750Y648250D02*
Y661500D01*
X1203250Y599250D02*
X1211000Y607000D01*
X1203250Y590500D02*
Y599250D01*
X1215000Y644000D02*
X1216250Y645250D01*
Y661500D01*
X1414500Y659250D02*
X1415000Y658750D01*
X1401000Y659250D02*
X1414500D01*
X1372000Y658750D02*
X1385500D01*
X1386000Y659250D01*
X1330000Y614500D02*
X1332500Y617000D01*
X1330000Y602000D02*
Y614500D01*
X1415000Y629000D02*
Y643250D01*
X1307511Y558592D02*
Y564511D01*
X1320000Y577000D01*
X1332500D01*
X1333000Y636000D02*
Y636040D01*
X1332500Y635500D02*
X1333000Y636000D01*
X1332500Y617000D02*
Y635500D01*
X1348000Y617500D02*
Y636040D01*
X1347500Y617000D02*
X1348000Y617500D01*
X1347500Y590500D02*
X1348000Y591000D01*
X1347500Y577000D02*
Y590500D01*
X1274300Y562050D02*
X1281500Y569250D01*
X1289300Y562050D02*
X1300500Y573250D01*
X1286357Y559107D02*
X1300500Y573250D01*
X1170000Y549000D02*
Y562500D01*
X1169500Y563000D02*
X1170000Y562500D01*
X1190250Y590500D02*
Y601710D01*
X1195596Y607057D02*
X1200289D01*
X1190250Y601710D02*
X1195596Y607057D01*
X1215750Y522250D02*
Y522500D01*
X1213250Y525000D02*
X1215750Y522500D01*
X1200000Y525000D02*
X1213250D01*
X1215500Y533500D02*
X1215750Y533250D01*
X1215500Y533500D02*
Y548000D01*
Y563000D02*
Y570000D01*
Y548000D02*
Y563000D01*
X1209750Y575750D02*
X1215500Y570000D01*
X1209750Y575750D02*
Y590500D01*
X1200000Y535000D02*
Y562500D01*
X1203000Y590250D02*
X1203250Y590500D01*
X1203000Y575750D02*
Y590250D01*
X1200500Y573250D02*
X1203000Y575750D01*
X1200500Y563000D02*
Y573250D01*
X1200000Y562500D02*
X1200500Y563000D01*
X1386000Y629000D02*
Y642750D01*
X1249000Y615000D02*
X1256000Y608000D01*
X1229000Y615000D02*
X1249000D01*
X1216250Y602250D02*
X1229000Y615000D01*
X1216250Y590500D02*
Y602250D01*
X1235750Y603750D02*
X1239000Y607000D01*
X1235750Y590500D02*
Y603750D01*
X1239000Y607000D02*
X1242250Y603750D01*
Y590500D02*
Y603750D01*
X1401000Y629000D02*
Y642750D01*
X1230000Y573000D02*
X1238000D01*
X1222750Y580250D02*
X1230000Y573000D01*
X1222750Y580250D02*
Y590500D01*
X1183750Y563750D02*
X1184500Y563000D01*
X1183750Y563750D02*
Y590500D01*
X1119600Y559650D02*
X1120250Y559000D01*
X1088500Y559650D02*
X1119600D01*
X1255250Y644250D02*
Y661500D01*
X1255000Y644000D02*
X1255250Y644250D01*
X1135750Y559000D02*
X1148000D01*
X1229000Y661250D02*
X1229250Y661500D01*
X1229000Y644000D02*
Y661250D01*
X1135750Y574000D02*
X1148000D01*
X1118600Y572350D02*
X1120250Y574000D01*
X1088500Y572350D02*
X1118600D01*
X1281500Y569250D02*
Y588500D01*
X1300500Y573250D02*
Y588500D01*
X838500Y720000D02*
X840000D01*
X849000Y729000D02*
Y733500D01*
X840000Y720000D02*
X849000Y729000D01*
X838000Y701000D02*
X844000Y695000D01*
Y675918D02*
Y695000D01*
X849000Y633250D02*
X879000D01*
X972750Y824000D02*
X989000D01*
X971655D02*
X972750D01*
X929000Y801000D02*
Y812000D01*
X929050Y824050D02*
Y861250D01*
X928000Y823000D02*
X929050Y824050D01*
X972750Y839000D02*
X989000D01*
X957250D02*
Y843750D01*
Y824000D02*
Y839000D01*
X952000Y849000D02*
X957250Y843750D01*
X941750Y851250D02*
X944000Y849000D01*
X952000D01*
X923000Y591000D02*
X936000D01*
X962000D02*
X974000D01*
X980000Y585000D02*
X995450D01*
X946000Y591000D02*
X962000D01*
X974000D02*
X980000Y585000D01*
X995450D02*
X995500Y585050D01*
X1133000Y791000D02*
X1147000D01*
X1133000Y801000D02*
Y829500D01*
X1143650Y841150D02*
Y863500D01*
X1132500Y830000D02*
X1143650Y841150D01*
X1132500Y830000D02*
X1133000Y829500D01*
X1098750Y771000D02*
X1118000D01*
X1098750Y790000D02*
X1118000D01*
X681053Y749697D02*
X698750Y732000D01*
X766627Y669627D02*
X779254Y657000D01*
X636000Y762000D02*
X646000D01*
X656000D02*
X668000D01*
X680303Y749697D01*
X771373Y674373D02*
X777746Y668000D01*
X789000D01*
X691697Y760303D02*
X709000Y743000D01*
X679500Y772357D02*
X691553Y760303D01*
X709000Y736746D02*
Y743000D01*
Y736746D02*
X715123Y730623D01*
X698750Y732000D02*
X704254D01*
X710377Y725877D01*
X968000Y534000D02*
X968250Y534250D01*
X995500D01*
X943000Y605000D02*
X943500Y605500D01*
X962000D01*
X962500Y605000D01*
X974000D01*
X979450Y610450D01*
X995500D01*
X962750Y573000D02*
X963400Y572350D01*
X995500D01*
X964400Y559650D02*
X995500D01*
X962750Y558000D02*
X964400Y559650D01*
X807000Y588000D02*
X822000Y573000D01*
X807000Y588000D02*
Y680000D01*
X931000Y573000D02*
X947250D01*
X826000Y616000D02*
X884000Y558000D01*
X946973D01*
X797000Y712000D02*
X826000Y683000D01*
Y616000D02*
Y683000D01*
X848750Y664000D02*
Y671250D01*
X844000Y676000D02*
X848750Y671250D01*
X765000Y712000D02*
X797000D01*
X784000Y703000D02*
X807000Y680000D01*
X766000Y703000D02*
X784000D01*
X1194450Y977450D02*
X1197000Y980000D01*
X1152000Y989000D02*
X1158000D01*
X1167000Y980000D01*
X894000Y624000D02*
X899000Y619000D01*
X894000Y624000D02*
Y633500D01*
X951000Y666000D02*
X959000Y658000D01*
Y648500D02*
Y658000D01*
X951000Y718000D02*
X959000Y726000D01*
Y733500D01*
X698000Y675034D02*
X701034Y672000D01*
X677000Y664000D02*
X677000Y664000D01*
X720000D01*
X775000Y736000D02*
Y772000D01*
X820250Y817250D01*
X850000D01*
X834000Y803000D02*
X834250Y802750D01*
X850000D01*
X750000Y722000D02*
X784000D01*
X810500Y748500D01*
X849000D01*
X849250Y748750D01*
X864000D01*
X914000Y619000D02*
Y629282D01*
X929000Y619000D02*
Y629218D01*
X849000Y648750D02*
Y663750D01*
X916350Y826350D02*
Y861250D01*
X641350Y691700D02*
X643193Y689857D01*
X705143D01*
X701034Y672000D02*
X720000D01*
X739000Y726000D02*
Y734000D01*
X728000Y727000D02*
Y734000D01*
X1252500Y748500D02*
Y764250D01*
X1242000Y784000D02*
X1245000Y781000D01*
X1242000Y784000D02*
Y811000D01*
X1245250Y814250D01*
X1257750D01*
X1212000Y815000D02*
X1227500D01*
X1290000Y756000D02*
Y764750D01*
X1267500Y756500D02*
Y764750D01*
X1290000Y780250D02*
X1304500D01*
X1305000Y780750D01*
X1266750Y781000D02*
X1267500Y780250D01*
X1245000Y781000D02*
X1266750D01*
X1302250Y807750D02*
X1310250D01*
X1257750D02*
X1270750D01*
X1302250Y814250D02*
X1313750D01*
X1270750Y807750D02*
X1290250Y827250D01*
X1302250Y820750D02*
X1319250D01*
X1290250Y827250D02*
X1302250D01*
X1312250D01*
X1315000Y830000D01*
X1340000Y780000D02*
Y788000D01*
X1325000Y780000D02*
Y793000D01*
X1310250Y807750D02*
X1325000Y793000D01*
X1313750Y814250D02*
X1340000Y788000D01*
X1325000Y815000D02*
X1332500D01*
X1350000D01*
X1319250Y820750D02*
X1325000Y815000D01*
X1315000Y830000D02*
X1320000D01*
X1279000Y748000D02*
X1282000D01*
X1276000D02*
X1279000D01*
X1282000D02*
X1290000Y756000D01*
X1267500Y756500D02*
X1276000Y748000D01*
X1252500Y748500D02*
X1253000Y748000D01*
X834250Y832750D02*
X850000D01*
X834000Y833000D02*
X834250Y832750D01*
X834000Y787000D02*
X834250Y787250D01*
X850000D01*
X1099000Y815000D02*
X1117500D01*
X1066000Y772500D02*
X1068500Y770000D01*
X1083250D01*
X1066000Y787500D02*
X1068500Y790000D01*
X1083250D01*
X1166000Y838000D02*
X1169050Y841050D01*
Y863500D01*
X1180000Y823000D02*
X1180500Y823500D01*
X1180000Y823000D02*
Y823040D01*
X1180500Y823500D02*
Y837000D01*
X1189000Y815000D02*
X1195500Y821500D01*
Y837000D01*
X1163000Y815000D02*
X1189000D01*
X1156350Y821650D02*
X1163000Y815000D01*
X1156350Y821650D02*
Y863500D01*
X1194450Y838050D02*
X1195500Y837000D01*
X1194450Y838050D02*
Y863500D01*
X1181750D02*
X1182000Y863250D01*
Y848000D02*
Y863250D01*
X1180500Y846500D02*
X1182000Y848000D01*
X1180500Y837000D02*
Y846500D01*
X1130950Y844050D02*
X1131000Y844000D01*
X1130950Y844050D02*
Y863500D01*
X1118000Y844000D02*
X1118250Y844250D01*
Y863500D01*
X1105550Y844450D02*
Y863500D01*
Y844450D02*
X1117500Y832500D01*
Y830000D02*
Y832500D01*
Y815000D02*
Y830000D01*
X878250Y831250D02*
Y861250D01*
X864250Y817250D02*
X878250Y831250D01*
X850000Y817250D02*
X864250D01*
X865000Y841000D02*
X865550Y841550D01*
Y861250D01*
X941750Y851250D02*
Y861250D01*
X942500Y820500D02*
Y835000D01*
X942000Y820000D02*
X942500Y820500D01*
X1130950Y976950D02*
X1131000Y977000D01*
X1130950Y956500D02*
Y976950D01*
X1118000Y977000D02*
X1118250Y976750D01*
Y956500D02*
Y976750D01*
X1132500Y990500D02*
X1143650Y979350D01*
Y956500D02*
Y979350D01*
X1132500Y990500D02*
Y995000D01*
X1056500Y1017500D02*
X1062250D01*
X1040000Y1010250D02*
X1049250D01*
X1056500Y1017500D01*
X1056500Y1032500D02*
X1062250D01*
X1049250Y1039750D02*
X1056500Y1032500D01*
X1040000Y1039750D02*
X1049250D01*
X1095000Y1017500D02*
X1095000Y1017500D01*
X1077750Y1017500D02*
X1095000D01*
X1095000Y1032500D02*
X1095000Y1032500D01*
X1077750Y1032500D02*
X1095000D01*
X1132500Y995000D02*
Y1010000D01*
X1167000Y980000D02*
X1169050Y977950D01*
Y956500D02*
Y977950D01*
X1197000Y995000D02*
Y1010000D01*
Y980000D02*
Y995000D01*
X1194450Y956500D02*
Y977450D01*
D82*
X1282000Y630350D02*
X1291650D01*
X1196370D02*
X1282000D01*
Y645000D01*
X1039750Y1010000D02*
X1040000Y1010250D01*
X1291650Y630350D02*
X1300500Y621500D01*
Y611500D02*
Y621500D01*
X1281500Y611500D02*
Y614500D01*
X1272000Y624000D02*
X1281500Y614500D01*
X1170750Y604730D02*
X1196370Y630350D01*
X1199000Y624000D02*
X1272000D01*
X1177250Y602250D02*
X1199000Y624000D01*
X1170750Y590500D02*
Y604730D01*
X1177250Y590500D02*
Y602250D01*
X1017220Y778850D02*
X1025870Y787500D01*
X1066000D01*
X993000Y754630D02*
X1017220Y778850D01*
X993000Y725175D02*
Y754630D01*
X1019850Y772500D02*
X1066000D01*
X999350Y752000D02*
X1019850Y772500D01*
X999350Y722545D02*
Y752000D01*
X964630Y687825D02*
X999350Y722545D01*
X962000Y694175D02*
X993000Y725175D01*
X914175Y687825D02*
X964630D01*
X914175Y694175D02*
X962000D01*
X944000Y633250D02*
X970500D01*
X728000Y744750D02*
X740195Y756945D01*
X747250D01*
X728000Y734000D02*
Y744750D01*
X739000Y734000D02*
Y738155D01*
X747250Y746405D01*
X944000Y748750D02*
X958750D01*
X959000Y748500D02*
X970750D01*
X975250Y744000D01*
Y732500D02*
Y744000D01*
X975250Y638000D02*
Y649500D01*
X970500Y633250D02*
X975250Y638000D01*
X1063500Y775000D02*
X1066000Y772500D01*
D83*
X1325000Y501000D02*
Y542800D01*
X1238600Y501000D02*
X1325000D01*
X1238600D02*
Y542800D01*
X1221500Y488000D02*
X1221750Y488250D01*
Y504000D01*
X1332500Y830000D02*
X1355000D01*
X1395000Y790000D02*
X1410000D01*
X1355000Y830000D02*
X1395000Y790000D01*
D84*
X1324350Y980650D02*
D03*
X1265650D02*
D03*
X1324350Y1039350D02*
D03*
X1265650D02*
D03*
X1324350Y1110650D02*
D03*
X1265650D02*
D03*
X1324350Y1169350D02*
D03*
X1265650D02*
D03*
X725650Y1039350D02*
D03*
X784350D02*
D03*
X725650Y980650D02*
D03*
X784350D02*
D03*
X784350Y1110650D02*
D03*
X725650D02*
D03*
X784350Y1169350D02*
D03*
X725650D02*
D03*
D85*
X641350Y653600D02*
D03*
Y666300D02*
D03*
X628650Y653600D02*
D03*
Y666300D02*
D03*
X641350Y679000D02*
D03*
Y691700D02*
D03*
X628650Y679000D02*
D03*
Y691700D02*
D03*
X641350Y704400D02*
D03*
D86*
X628650D02*
D03*
D87*
X1410000Y790000D02*
D03*
D88*
Y815400D02*
D03*
D89*
X1400000Y525000D02*
D03*
X650000D02*
D03*
X1400000Y1175000D02*
D03*
X650000D02*
D03*
D90*
X987166Y973834D02*
D03*
Y997834D02*
D03*
Y1023834D02*
D03*
X1108603Y1022347D02*
D03*
X1108537Y1032334D02*
D03*
X1026000Y755000D02*
D03*
Y839000D02*
D03*
X1113000Y650000D02*
D03*
X765000Y789000D02*
D03*
X650609Y736631D02*
D03*
X861000Y615000D02*
D03*
X816000Y649000D02*
D03*
X790000Y622000D02*
D03*
X1375000Y855000D02*
D03*
X1297000D02*
D03*
X1260000D02*
D03*
X1297000Y795000D02*
D03*
X1260000D02*
D03*
X1425000Y550000D02*
D03*
X1400000Y500000D02*
D03*
X1350000Y600000D02*
D03*
X1375000Y550000D02*
D03*
X1350000Y500000D02*
D03*
X1300000Y600000D02*
D03*
X1150000D02*
D03*
X1125000Y550000D02*
D03*
X1100000Y500000D02*
D03*
X1425000Y750000D02*
D03*
X1350000Y800000D02*
D03*
X1375000Y750000D02*
D03*
X1200000Y800000D02*
D03*
X1225000Y750000D02*
D03*
X1175000D02*
D03*
X1050000Y800000D02*
D03*
X1000000D02*
D03*
Y700000D02*
D03*
Y500000D02*
D03*
X975000Y550000D02*
D03*
X950000Y500000D02*
D03*
X925000Y550000D02*
D03*
X900000Y500000D02*
D03*
X875000Y550000D02*
D03*
X850000Y500000D02*
D03*
X825000Y550000D02*
D03*
X800000Y500000D02*
D03*
X775000Y550000D02*
D03*
X750000Y500000D02*
D03*
X700000Y800000D02*
D03*
X725000Y550000D02*
D03*
X700000Y500000D02*
D03*
X650000Y800000D02*
D03*
X675000Y550000D02*
D03*
X650000Y500000D02*
D03*
X1157000Y567000D02*
D03*
X1114000Y522000D02*
D03*
X857000Y765000D02*
D03*
X627000Y770000D02*
D03*
X1110334Y780275D02*
D03*
X821997Y562354D02*
D03*
X923529Y565748D02*
D03*
X985500Y732500D02*
D03*
X986000Y650000D02*
D03*
X872000Y812000D02*
D03*
X687000Y672000D02*
D03*
X833000Y692000D02*
D03*
X786000Y684000D02*
D03*
X764000Y736000D02*
D03*
X1372000Y612000D02*
D03*
Y629000D02*
D03*
X1135014Y619008D02*
D03*
X1122000Y619000D02*
D03*
X1240000Y644000D02*
D03*
X1211000Y607000D02*
D03*
X1215000Y644000D02*
D03*
X1415000Y629000D02*
D03*
X1416000Y615000D02*
D03*
X1242000Y562000D02*
D03*
X1319391Y562390D02*
D03*
X1401000Y586000D02*
D03*
X1386000D02*
D03*
X1333000Y636040D02*
D03*
X1348000D02*
D03*
Y591000D02*
D03*
X1170000Y549000D02*
D03*
X1200289Y607057D02*
D03*
X1215750Y522250D02*
D03*
Y533250D02*
D03*
X1386000Y629000D02*
D03*
X1256000Y608000D02*
D03*
X1239000Y607000D02*
D03*
X1401000Y629000D02*
D03*
X1238000Y573000D02*
D03*
X1255000Y644000D02*
D03*
X1148000Y559000D02*
D03*
X1229000Y644000D02*
D03*
X1148000Y574000D02*
D03*
X838500Y720000D02*
D03*
X854000Y712000D02*
D03*
X838000Y701000D02*
D03*
X929000Y801000D02*
D03*
X989000Y839000D02*
D03*
Y824000D02*
D03*
X923000Y591000D02*
D03*
X1147000Y791000D02*
D03*
X1118000Y771000D02*
D03*
Y790000D02*
D03*
X636000Y762000D02*
D03*
X780000Y657000D02*
D03*
X668000Y762000D02*
D03*
X789000Y668000D02*
D03*
X853000Y701000D02*
D03*
X679500Y773000D02*
D03*
X660000Y960000D02*
D03*
X1410000Y1140000D02*
D03*
X1425000Y1110000D02*
D03*
X1410000Y1080000D02*
D03*
X1425000Y1050000D02*
D03*
X1410000Y1020000D02*
D03*
X1425000Y990000D02*
D03*
X1410000Y960000D02*
D03*
X1380000Y1200000D02*
D03*
Y1140000D02*
D03*
X1395000Y1110000D02*
D03*
X1380000Y1080000D02*
D03*
X1395000Y1050000D02*
D03*
X1380000Y1020000D02*
D03*
X1395000Y990000D02*
D03*
X1380000Y960000D02*
D03*
X1350000Y1080000D02*
D03*
X1365000Y1050000D02*
D03*
X1350000Y1020000D02*
D03*
X1365000Y990000D02*
D03*
X1350000Y960000D02*
D03*
X1290000D02*
D03*
X1245000Y1050000D02*
D03*
X1230000Y1020000D02*
D03*
Y960000D02*
D03*
X1215000Y1050000D02*
D03*
Y990000D02*
D03*
X1185000Y1050000D02*
D03*
X1170000Y1020000D02*
D03*
X1155000Y1050000D02*
D03*
X1125000D02*
D03*
X1095000D02*
D03*
Y990000D02*
D03*
X1080000Y960000D02*
D03*
X1065000Y1050000D02*
D03*
Y990000D02*
D03*
X900000Y1200000D02*
D03*
X810000Y1020000D02*
D03*
X825000Y990000D02*
D03*
X810000Y960000D02*
D03*
X750000D02*
D03*
X705000Y1050000D02*
D03*
X690000Y1020000D02*
D03*
Y960000D02*
D03*
X660000Y1140000D02*
D03*
Y1080000D02*
D03*
X675000Y1050000D02*
D03*
X660000Y1020000D02*
D03*
X675000Y990000D02*
D03*
X630000Y1140000D02*
D03*
X645000Y1110000D02*
D03*
X630000Y1080000D02*
D03*
X645000Y1050000D02*
D03*
X630000Y1020000D02*
D03*
X645000Y990000D02*
D03*
X755000Y655000D02*
D03*
X968000Y534000D02*
D03*
X943000Y605000D02*
D03*
X822000Y573000D02*
D03*
X931000D02*
D03*
X778000Y692000D02*
D03*
X876000Y665000D02*
D03*
X1198000Y978000D02*
D03*
X1152000Y989000D02*
D03*
X685000Y619000D02*
D03*
X899000Y619000D02*
D03*
X951000Y666000D02*
D03*
Y718000D02*
D03*
X698000Y675034D02*
D03*
X677000Y664000D02*
D03*
X775000Y736000D02*
D03*
X834000Y803000D02*
D03*
X914000Y619000D02*
D03*
X929000D02*
D03*
X747250Y756945D02*
D03*
Y746405D02*
D03*
X975250Y732500D02*
D03*
X975250Y649500D02*
D03*
X865000Y803000D02*
D03*
X916350Y826350D02*
D03*
X1212000Y815000D02*
D03*
X1212250Y830000D02*
D03*
X1253000Y748000D02*
D03*
X1279000D02*
D03*
X1316000D02*
D03*
X1330000D02*
D03*
X1350000Y815000D02*
D03*
X879000Y765000D02*
D03*
X894000Y764000D02*
D03*
X929000D02*
D03*
X914000D02*
D03*
X834000Y833000D02*
D03*
Y787000D02*
D03*
X1099000Y815000D02*
D03*
X1166000Y838000D02*
D03*
X1180000Y823040D02*
D03*
X1131000Y844000D02*
D03*
X1118000D02*
D03*
X865000Y841000D02*
D03*
X942000Y820000D02*
D03*
X1131000Y977000D02*
D03*
X1118000D02*
D03*
D91*
X1282000Y645000D02*
D03*
X1168400Y533400D02*
D03*
Y508000D02*
D03*
D92*
X1257000Y562000D02*
D03*
X1300000Y561000D02*
D03*
X1193024Y496244D02*
D03*
X1338000Y591000D02*
D03*
X1291000Y575000D02*
D03*
X1285971Y622275D02*
D03*
M02*
