G04*
G04 #@! TF.GenerationSoftware,Altium Limited,Altium Designer,24.2.2 (26)*
G04*
G04 Layer_Color=65535*
%FSLAX44Y44*%
%MOMM*%
G71*
G04*
G04 #@! TF.SameCoordinates,6A8CA8D3-F6E6-494B-9A6B-4A02BC4B17F5*
G04*
G04*
G04 #@! TF.FilePolarity,Positive*
G04*
G01*
G75*
%ADD10C,0.2500*%
%ADD11C,0.1000*%
%ADD12C,0.5000*%
%ADD13C,0.6000*%
%ADD14C,0.2000*%
%ADD15C,0.2540*%
%ADD16C,0.1524*%
G36*
X894357Y1199059D02*
X894772D01*
Y1198852D01*
X895186D01*
Y1198644D01*
X895394D01*
Y1198437D01*
X895808D01*
Y1198230D01*
X896015D01*
Y1198023D01*
X896222D01*
Y1197608D01*
X896430D01*
Y1197401D01*
X896637D01*
Y1197194D01*
X896844D01*
Y1196779D01*
X897051D01*
Y1196365D01*
X897259D01*
Y1195951D01*
X897466D01*
Y1195743D01*
X897673D01*
Y1195329D01*
X897880D01*
Y1194914D01*
X898087D01*
Y1194707D01*
X898295D01*
Y1194293D01*
X898502D01*
Y1193878D01*
X898709D01*
Y1193464D01*
X898916D01*
Y1193257D01*
X899124D01*
Y1192842D01*
X899331D01*
Y1192428D01*
X899538D01*
Y1192221D01*
X899745D01*
Y1191806D01*
X899952D01*
Y1191392D01*
X900160D01*
Y1190977D01*
X900367D01*
Y1190770D01*
X900574D01*
Y1190356D01*
X900781D01*
Y1189941D01*
X900989D01*
Y1189734D01*
X901196D01*
Y1189319D01*
X901403D01*
Y1188905D01*
X901610D01*
Y1188491D01*
X901817D01*
Y1188283D01*
X902025D01*
Y1187869D01*
X902232D01*
Y1187454D01*
X902439D01*
Y1187040D01*
X902646D01*
Y1186833D01*
X902854D01*
Y1186418D01*
X903061D01*
Y1186004D01*
X903268D01*
Y1185797D01*
X903475D01*
Y1185382D01*
X903682D01*
Y1184968D01*
X903890D01*
Y1184553D01*
X904097D01*
Y1184346D01*
X904304D01*
Y1183932D01*
X904511D01*
Y1183517D01*
X904719D01*
Y1183310D01*
X904926D01*
Y1182895D01*
X905133D01*
Y1182481D01*
X905340D01*
Y1182066D01*
X905547D01*
Y1181859D01*
X905755D01*
Y1181445D01*
X905962D01*
Y1181030D01*
X906169D01*
Y1180823D01*
X906376D01*
Y1180409D01*
X906584D01*
Y1179994D01*
X906791D01*
Y1179580D01*
X906998D01*
Y1179373D01*
X907205D01*
Y1178958D01*
X907412D01*
Y1178544D01*
X907620D01*
Y1178129D01*
X907827D01*
Y1177922D01*
X908034D01*
Y1177508D01*
X908241D01*
Y1177093D01*
X908449D01*
Y1176886D01*
X908656D01*
Y1176471D01*
X908863D01*
Y1176057D01*
X909070D01*
Y1175643D01*
X909278D01*
Y1175435D01*
X909485D01*
Y1175021D01*
X909692D01*
Y1174606D01*
X909899D01*
Y1174399D01*
X910107D01*
Y1173985D01*
X910314D01*
Y1173570D01*
X910521D01*
Y1173156D01*
X910728D01*
Y1172949D01*
X910935D01*
Y1172534D01*
X911143D01*
Y1172120D01*
X911350D01*
Y1171913D01*
X911557D01*
Y1171498D01*
X911764D01*
Y1171084D01*
X911972D01*
Y1170669D01*
X912179D01*
Y1170462D01*
X912386D01*
Y1170048D01*
X912593D01*
Y1169633D01*
X912800D01*
Y1169219D01*
X913008D01*
Y1169011D01*
X913215D01*
Y1168597D01*
X913422D01*
Y1168183D01*
X913629D01*
Y1167975D01*
X913837D01*
Y1167561D01*
X914044D01*
Y1167146D01*
X914251D01*
Y1166732D01*
X914458D01*
Y1166525D01*
X914665D01*
Y1166110D01*
X914873D01*
Y1165696D01*
X915080D01*
Y1165489D01*
X915287D01*
Y1165074D01*
X915494D01*
Y1164660D01*
X915702D01*
Y1164245D01*
X915909D01*
Y1164038D01*
X916116D01*
Y1163624D01*
X916323D01*
Y1163209D01*
X916530D01*
Y1163002D01*
X916738D01*
Y1162587D01*
X916945D01*
Y1162173D01*
X917152D01*
Y1161759D01*
X917359D01*
Y1161551D01*
X917567D01*
Y1161137D01*
X917774D01*
Y1160722D01*
X917981D01*
Y1160308D01*
X918188D01*
Y1160101D01*
X918395D01*
Y1159686D01*
X918603D01*
Y1159272D01*
X918810D01*
Y1159065D01*
X919017D01*
Y1158650D01*
X919224D01*
Y1158236D01*
X919432D01*
Y1157821D01*
X919639D01*
Y1157614D01*
X919846D01*
Y1157200D01*
X920053D01*
Y1156785D01*
X920260D01*
Y1156578D01*
X920468D01*
Y1156163D01*
X920675D01*
Y1155749D01*
X920882D01*
Y1155335D01*
X921089D01*
Y1155127D01*
X921297D01*
Y1154713D01*
X921504D01*
Y1154298D01*
X921711D01*
Y1154091D01*
X921918D01*
Y1153677D01*
X922125D01*
Y1153262D01*
X922333D01*
Y1152848D01*
X922540D01*
Y1152641D01*
X922747D01*
Y1152226D01*
X922954D01*
Y1151812D01*
X923162D01*
Y1151397D01*
X923369D01*
Y1151190D01*
X923576D01*
Y1150776D01*
X923783D01*
Y1150361D01*
X923990D01*
Y1150154D01*
X924198D01*
Y1149740D01*
X924405D01*
Y1149325D01*
X924612D01*
Y1148911D01*
X924819D01*
Y1148703D01*
X925027D01*
Y1148289D01*
X925234D01*
Y1147875D01*
X925441D01*
Y1147667D01*
X925648D01*
Y1147253D01*
X925855D01*
Y1146838D01*
X926063D01*
Y1146424D01*
X926270D01*
Y1146217D01*
X926477D01*
Y1145802D01*
X926684D01*
Y1145388D01*
X926892D01*
Y1144973D01*
X927099D01*
Y1144766D01*
X927306D01*
Y1144352D01*
X927513D01*
Y1143937D01*
X927720D01*
Y1143730D01*
X927928D01*
Y1143316D01*
X928135D01*
Y1142901D01*
X928342D01*
Y1142487D01*
X928549D01*
Y1142280D01*
X928757D01*
Y1141865D01*
X928964D01*
Y1141451D01*
X929171D01*
Y1141243D01*
X929378D01*
Y1140829D01*
X929585D01*
Y1140415D01*
X929793D01*
Y1140000D01*
X930000D01*
Y1139793D01*
X930207D01*
Y1139378D01*
X930414D01*
Y1138964D01*
X930622D01*
Y1138757D01*
X930829D01*
Y1138342D01*
X931036D01*
Y1137928D01*
X931243D01*
Y1137513D01*
X931451D01*
Y1137306D01*
X931658D01*
Y1136892D01*
X931865D01*
Y1136477D01*
X932072D01*
Y1136063D01*
X932280D01*
Y1135855D01*
X932487D01*
Y1135441D01*
X932694D01*
Y1135027D01*
X932901D01*
Y1134819D01*
X933108D01*
Y1134405D01*
X933316D01*
Y1133990D01*
X933523D01*
Y1133576D01*
X933730D01*
Y1133369D01*
X933937D01*
Y1132954D01*
X934145D01*
Y1132540D01*
X934352D01*
Y1132333D01*
X934559D01*
Y1131918D01*
X934766D01*
Y1131504D01*
X934973D01*
Y1131089D01*
X935181D01*
Y1130882D01*
X935388D01*
Y1130468D01*
X935595D01*
Y1130053D01*
X935802D01*
Y1129846D01*
X936010D01*
Y1129432D01*
X936217D01*
Y1129017D01*
X936424D01*
Y1128603D01*
X936631D01*
Y1128395D01*
X936838D01*
Y1127981D01*
X937046D01*
Y1127567D01*
X937253D01*
Y1127152D01*
X937460D01*
Y1126945D01*
X937667D01*
Y1126530D01*
X937875D01*
Y1126116D01*
X938082D01*
Y1125909D01*
X938289D01*
Y1125494D01*
X938496D01*
Y1125080D01*
X938703D01*
Y1124665D01*
X938911D01*
Y1124458D01*
X939118D01*
Y1124044D01*
X939325D01*
Y1123629D01*
X939532D01*
Y1123422D01*
X939740D01*
Y1123008D01*
X939947D01*
Y1122593D01*
X940154D01*
Y1122179D01*
X940361D01*
Y1121972D01*
X940568D01*
Y1121557D01*
X940776D01*
Y1121143D01*
X940983D01*
Y1120935D01*
X941190D01*
Y1120521D01*
X941397D01*
Y1120107D01*
X941605D01*
Y1119692D01*
X941812D01*
Y1119485D01*
X942019D01*
Y1119070D01*
X942226D01*
Y1118656D01*
X942433D01*
Y1118242D01*
X942641D01*
Y1118034D01*
X942848D01*
Y1117620D01*
X943055D01*
Y1117205D01*
X943262D01*
Y1116998D01*
X943470D01*
Y1116584D01*
X943677D01*
Y1116169D01*
X943884D01*
Y1115755D01*
X944091D01*
Y1115547D01*
X944298D01*
Y1115133D01*
X944506D01*
Y1114719D01*
X944713D01*
Y1114511D01*
X944920D01*
Y1114097D01*
X945127D01*
Y1113682D01*
X945335D01*
Y1113268D01*
X945542D01*
Y1113061D01*
X945749D01*
Y1112646D01*
X945956D01*
Y1112232D01*
X946163D01*
Y1112025D01*
X946371D01*
Y1111610D01*
X946578D01*
Y1111196D01*
X946785D01*
Y1110781D01*
X946992D01*
Y1110574D01*
X947200D01*
Y1110160D01*
X947407D01*
Y1109745D01*
X947614D01*
Y1109331D01*
X947821D01*
Y1109124D01*
X948028D01*
Y1108709D01*
X948236D01*
Y1108295D01*
X948443D01*
Y1108087D01*
X948650D01*
Y1107673D01*
X948857D01*
Y1107259D01*
X949065D01*
Y1106844D01*
X949272D01*
Y1106637D01*
X949479D01*
Y1106222D01*
X949686D01*
Y1105808D01*
X949893D01*
Y1105601D01*
X950101D01*
Y1105186D01*
X950308D01*
Y1104772D01*
X950515D01*
Y1104357D01*
X950722D01*
Y1104150D01*
X950930D01*
Y1103529D01*
X951137D01*
Y1102700D01*
X951344D01*
Y1101664D01*
X951137D01*
Y1101042D01*
X950930D01*
Y1100627D01*
X950722D01*
Y1100420D01*
X950515D01*
Y1100006D01*
X950101D01*
Y1099799D01*
X949893D01*
Y1099591D01*
X949686D01*
Y1099384D01*
X949065D01*
Y1099177D01*
X948650D01*
Y1098970D01*
X946992D01*
Y1098762D01*
X840479D01*
Y1098970D01*
X838614D01*
Y1099177D01*
X837992D01*
Y1099384D01*
X837578D01*
Y1099591D01*
X837163D01*
Y1099799D01*
X836956D01*
Y1100006D01*
X836749D01*
Y1100213D01*
X836542D01*
Y1100420D01*
X836335D01*
Y1100627D01*
X836127D01*
Y1101042D01*
X835920D01*
Y1101664D01*
X835713D01*
Y1102907D01*
X835920D01*
Y1103736D01*
X836127D01*
Y1104150D01*
X836335D01*
Y1104565D01*
X836542D01*
Y1104979D01*
X836749D01*
Y1105394D01*
X836956D01*
Y1105601D01*
X837163D01*
Y1106015D01*
X837371D01*
Y1106430D01*
X837578D01*
Y1106844D01*
X837785D01*
Y1107051D01*
X837992D01*
Y1107466D01*
X838200D01*
Y1107880D01*
X838407D01*
Y1108295D01*
X838614D01*
Y1108502D01*
X838821D01*
Y1108916D01*
X839028D01*
Y1109331D01*
X839236D01*
Y1109538D01*
X839443D01*
Y1109952D01*
X839650D01*
Y1110367D01*
X839857D01*
Y1110781D01*
X840065D01*
Y1110989D01*
X840272D01*
Y1111403D01*
X840479D01*
Y1111817D01*
X840686D01*
Y1112232D01*
X840893D01*
Y1112439D01*
X841101D01*
Y1112854D01*
X841308D01*
Y1113268D01*
X841515D01*
Y1113475D01*
X841722D01*
Y1113890D01*
X841930D01*
Y1114304D01*
X842137D01*
Y1114719D01*
X842344D01*
Y1114926D01*
X842551D01*
Y1115340D01*
X842759D01*
Y1115755D01*
X842966D01*
Y1116169D01*
X843173D01*
Y1116376D01*
X843380D01*
Y1116791D01*
X843587D01*
Y1117205D01*
X843795D01*
Y1117412D01*
X844002D01*
Y1117827D01*
X844209D01*
Y1118242D01*
X844416D01*
Y1118656D01*
X844624D01*
Y1118863D01*
X844831D01*
Y1119278D01*
X845038D01*
Y1119692D01*
X845245D01*
Y1120107D01*
X845452D01*
Y1120314D01*
X845660D01*
Y1120728D01*
X845867D01*
Y1120935D01*
Y1121143D01*
X846074D01*
Y1121350D01*
X846281D01*
Y1121764D01*
X846489D01*
Y1122179D01*
X846696D01*
Y1122593D01*
X846903D01*
Y1122800D01*
X847110D01*
Y1123215D01*
X847318D01*
Y1123629D01*
X847525D01*
Y1124044D01*
X847732D01*
Y1124251D01*
X847939D01*
Y1124665D01*
X848146D01*
Y1125080D01*
X848354D01*
Y1125287D01*
X848561D01*
Y1125702D01*
X848768D01*
Y1126116D01*
X848975D01*
Y1126530D01*
X849183D01*
Y1126738D01*
X849390D01*
Y1127152D01*
X849597D01*
Y1127567D01*
X849804D01*
Y1127981D01*
X850011D01*
Y1128188D01*
X850219D01*
Y1128603D01*
X850426D01*
Y1129017D01*
X850633D01*
Y1129224D01*
X850840D01*
Y1129639D01*
X851048D01*
Y1130053D01*
X851255D01*
Y1130468D01*
X851462D01*
Y1130675D01*
X851669D01*
Y1131089D01*
X851876D01*
Y1131504D01*
X852084D01*
Y1131918D01*
X852291D01*
Y1132125D01*
X852498D01*
Y1132540D01*
X852705D01*
Y1132954D01*
X852913D01*
Y1133162D01*
X853120D01*
Y1133576D01*
X853327D01*
Y1133990D01*
X853534D01*
Y1134405D01*
X853741D01*
Y1134612D01*
X853949D01*
Y1135027D01*
X854156D01*
Y1135441D01*
X854363D01*
Y1135855D01*
X854570D01*
Y1136063D01*
X854778D01*
Y1136477D01*
X854985D01*
Y1136892D01*
X855192D01*
Y1137099D01*
X855399D01*
Y1137513D01*
X855607D01*
Y1137928D01*
X855814D01*
Y1138342D01*
X856021D01*
Y1138549D01*
X856228D01*
Y1138964D01*
X856435D01*
Y1139378D01*
X856643D01*
Y1139793D01*
X856850D01*
Y1140000D01*
X857057D01*
Y1140415D01*
X857264D01*
Y1140829D01*
X857471D01*
Y1141036D01*
X857679D01*
Y1141451D01*
X857886D01*
Y1141865D01*
X858093D01*
Y1142280D01*
X858300D01*
Y1142487D01*
X858508D01*
Y1142901D01*
X858715D01*
Y1143316D01*
X858922D01*
Y1143730D01*
X859129D01*
Y1143937D01*
X859336D01*
Y1144352D01*
X859544D01*
Y1144766D01*
X859751D01*
Y1144973D01*
X859958D01*
Y1145388D01*
X860165D01*
Y1145802D01*
X860373D01*
Y1146217D01*
X860580D01*
Y1146424D01*
X860787D01*
Y1146838D01*
X860994D01*
Y1147253D01*
X861201D01*
Y1147667D01*
X861409D01*
Y1147875D01*
X861616D01*
Y1148289D01*
X861823D01*
Y1148703D01*
X862030D01*
Y1148911D01*
X862238D01*
Y1149325D01*
X862445D01*
Y1149740D01*
X862652D01*
Y1150154D01*
X862859D01*
Y1150361D01*
X863066D01*
Y1150776D01*
X863274D01*
Y1151190D01*
X863481D01*
Y1151605D01*
X863688D01*
Y1151812D01*
X863895D01*
Y1152226D01*
X864103D01*
Y1152641D01*
X864310D01*
Y1152848D01*
X864517D01*
Y1153262D01*
X864724D01*
Y1153677D01*
X864932D01*
Y1154091D01*
X865139D01*
Y1154298D01*
X865346D01*
Y1154713D01*
X865553D01*
Y1155127D01*
X865760D01*
Y1155542D01*
X865968D01*
Y1155749D01*
X866175D01*
Y1156163D01*
X866382D01*
Y1156578D01*
X866589D01*
Y1156785D01*
X866797D01*
Y1157200D01*
X867004D01*
Y1157614D01*
X867211D01*
Y1158028D01*
X867418D01*
Y1158236D01*
X867626D01*
Y1158650D01*
X867833D01*
Y1159065D01*
X868040D01*
Y1159479D01*
X868247D01*
Y1159686D01*
X868454D01*
Y1160101D01*
X868662D01*
Y1160515D01*
X868869D01*
Y1160722D01*
X869076D01*
Y1161137D01*
X869283D01*
Y1161551D01*
X869491D01*
Y1161966D01*
X869698D01*
Y1162173D01*
X869905D01*
Y1162587D01*
X870112D01*
Y1163002D01*
X870319D01*
Y1163416D01*
X870527D01*
Y1163624D01*
X870734D01*
Y1164038D01*
X870941D01*
Y1164453D01*
X871148D01*
Y1164660D01*
X871356D01*
Y1165074D01*
X871563D01*
Y1165489D01*
X871770D01*
Y1165903D01*
X871977D01*
Y1166110D01*
X872184D01*
Y1166525D01*
X872392D01*
Y1166939D01*
X872599D01*
Y1167354D01*
X872806D01*
Y1167561D01*
X873013D01*
Y1167975D01*
X873221D01*
Y1168390D01*
X873428D01*
Y1168597D01*
X873635D01*
Y1169011D01*
X873842D01*
Y1169426D01*
X874049D01*
Y1169840D01*
X874257D01*
Y1170048D01*
X874464D01*
Y1170462D01*
X874671D01*
Y1170876D01*
X874878D01*
Y1171291D01*
X875086D01*
Y1171498D01*
X875293D01*
Y1171913D01*
X875500D01*
Y1172327D01*
X875707D01*
Y1172534D01*
X875915D01*
Y1172949D01*
X876122D01*
Y1173363D01*
X876329D01*
Y1173778D01*
X876536D01*
Y1173985D01*
X876743D01*
Y1174399D01*
X876951D01*
Y1174814D01*
X877158D01*
Y1175228D01*
X877365D01*
Y1175435D01*
X877572D01*
Y1175850D01*
X877779D01*
Y1176264D01*
X877987D01*
Y1176471D01*
X878194D01*
Y1176886D01*
X878401D01*
Y1177300D01*
X878608D01*
Y1177715D01*
X878816D01*
Y1177922D01*
X879023D01*
Y1178336D01*
X879230D01*
Y1178751D01*
X879437D01*
Y1179165D01*
X879644D01*
Y1179373D01*
X879852D01*
Y1179787D01*
X880059D01*
Y1180201D01*
X880266D01*
Y1180409D01*
X880473D01*
Y1180823D01*
X880681D01*
Y1181238D01*
X880888D01*
Y1181652D01*
X881095D01*
Y1181859D01*
X881302D01*
Y1182274D01*
X881509D01*
Y1182688D01*
X881717D01*
Y1183103D01*
X881924D01*
Y1183310D01*
X882131D01*
Y1183724D01*
X882338D01*
Y1184139D01*
X882546D01*
Y1184346D01*
X882753D01*
Y1184760D01*
X882960D01*
Y1185175D01*
X883167D01*
Y1185589D01*
X883374D01*
Y1185797D01*
X883582D01*
Y1186211D01*
X883789D01*
Y1186626D01*
X883996D01*
Y1187040D01*
X884203D01*
Y1187247D01*
X884411D01*
Y1187662D01*
X884618D01*
Y1188076D01*
X884825D01*
Y1188491D01*
X885032D01*
Y1188698D01*
X885240D01*
Y1189112D01*
X885447D01*
Y1189527D01*
X885654D01*
Y1189734D01*
X885861D01*
Y1190148D01*
X886068D01*
Y1190563D01*
X886276D01*
Y1190977D01*
X886483D01*
Y1191184D01*
X886690D01*
Y1191599D01*
X886897D01*
Y1192013D01*
X887105D01*
Y1192428D01*
X887312D01*
Y1192635D01*
X887519D01*
Y1193049D01*
X887726D01*
Y1193464D01*
X887934D01*
Y1193671D01*
X888141D01*
Y1194085D01*
X888348D01*
Y1194500D01*
X888555D01*
Y1194914D01*
X888762D01*
Y1195122D01*
X888970D01*
Y1195536D01*
X889177D01*
Y1195951D01*
X889384D01*
Y1196365D01*
X889591D01*
Y1196572D01*
X889799D01*
Y1196987D01*
X890006D01*
Y1197401D01*
X890213D01*
Y1197608D01*
X890420D01*
Y1197816D01*
X890627D01*
Y1198230D01*
X890835D01*
Y1198437D01*
X891249D01*
Y1198644D01*
X891456D01*
Y1198852D01*
X891871D01*
Y1199059D01*
X892285D01*
Y1199266D01*
X894357D01*
Y1199059D01*
D02*
G37*
G36*
X1161255Y1204260D02*
X1162200D01*
Y1203945D01*
X1162830D01*
Y1203630D01*
X1163460D01*
Y1203315D01*
X1163775D01*
Y1203000D01*
X1164090D01*
Y1202685D01*
X1164405D01*
Y1202370D01*
X1164720D01*
Y1202055D01*
X1165035D01*
Y1201740D01*
X1165350D01*
Y1201425D01*
X1165665D01*
Y1200795D01*
X1165980D01*
Y1200165D01*
X1166295D01*
Y1199535D01*
X1166610D01*
Y1199220D01*
X1166925D01*
Y1198590D01*
X1167240D01*
Y1197960D01*
X1167555D01*
Y1197330D01*
X1167870D01*
Y1197015D01*
X1168185D01*
Y1196385D01*
X1168500D01*
Y1195755D01*
X1168815D01*
Y1195125D01*
X1169130D01*
Y1194495D01*
X1169445D01*
Y1194180D01*
X1169760D01*
Y1193550D01*
X1170075D01*
Y1192920D01*
X1170390D01*
Y1192290D01*
X1170705D01*
Y1191975D01*
X1171020D01*
Y1191345D01*
X1171335D01*
Y1190715D01*
X1171650D01*
Y1190085D01*
X1171965D01*
Y1189770D01*
X1172280D01*
Y1189140D01*
X1172595D01*
Y1188510D01*
X1172910D01*
Y1187880D01*
X1173225D01*
Y1187250D01*
X1173540D01*
Y1186935D01*
X1173855D01*
Y1186305D01*
X1174170D01*
Y1185675D01*
X1174485D01*
Y1185045D01*
X1174800D01*
Y1184730D01*
X1175115D01*
Y1184100D01*
X1175430D01*
Y1183470D01*
X1175745D01*
Y1182840D01*
X1176060D01*
Y1182210D01*
X1176375D01*
Y1181895D01*
X1176690D01*
Y1181265D01*
X1177005D01*
Y1180635D01*
X1177320D01*
Y1180005D01*
X1177635D01*
Y1179690D01*
X1177950D01*
Y1179060D01*
X1178265D01*
Y1178430D01*
X1178580D01*
Y1177800D01*
X1178895D01*
Y1177485D01*
X1179210D01*
Y1176855D01*
X1179525D01*
Y1176225D01*
X1179840D01*
Y1175595D01*
X1180155D01*
Y1174965D01*
X1180470D01*
Y1174650D01*
X1180785D01*
Y1174020D01*
X1181100D01*
Y1173390D01*
X1181415D01*
Y1172760D01*
X1181730D01*
Y1172445D01*
X1182045D01*
Y1171815D01*
X1182360D01*
Y1171185D01*
X1182675D01*
Y1170555D01*
X1182990D01*
Y1169925D01*
X1183305D01*
Y1169610D01*
X1183620D01*
Y1168980D01*
X1183935D01*
Y1168350D01*
X1184250D01*
Y1167720D01*
X1184565D01*
Y1167405D01*
X1184880D01*
Y1166775D01*
X1185195D01*
Y1166145D01*
X1185510D01*
Y1165515D01*
X1185825D01*
Y1165200D01*
X1186140D01*
Y1164570D01*
X1186455D01*
Y1163940D01*
X1186770D01*
Y1163310D01*
X1187085D01*
Y1162680D01*
X1187400D01*
Y1162365D01*
X1187715D01*
Y1161735D01*
X1188030D01*
Y1161105D01*
X1188345D01*
Y1160475D01*
X1188660D01*
Y1160160D01*
X1188975D01*
Y1159530D01*
X1189290D01*
Y1158900D01*
X1189605D01*
Y1158270D01*
X1189920D01*
Y1157640D01*
X1190235D01*
Y1157325D01*
X1190550D01*
Y1156695D01*
X1190865D01*
Y1156065D01*
X1191180D01*
Y1155435D01*
X1191495D01*
Y1155120D01*
X1191810D01*
Y1154490D01*
X1192125D01*
Y1153860D01*
X1192440D01*
Y1153230D01*
X1192755D01*
Y1152915D01*
X1193070D01*
Y1152285D01*
X1193385D01*
Y1151655D01*
X1193700D01*
Y1151025D01*
X1194015D01*
Y1150395D01*
X1194330D01*
Y1150080D01*
X1194645D01*
Y1149450D01*
X1194960D01*
Y1148820D01*
X1195275D01*
Y1148190D01*
X1195590D01*
Y1147875D01*
X1195905D01*
Y1147245D01*
X1196220D01*
Y1146615D01*
X1196535D01*
Y1145985D01*
X1196850D01*
Y1145355D01*
X1197165D01*
Y1145040D01*
X1197480D01*
Y1144410D01*
X1197795D01*
Y1143780D01*
X1198110D01*
Y1143150D01*
X1198425D01*
Y1142835D01*
X1198740D01*
Y1142205D01*
X1199055D01*
Y1141575D01*
X1199370D01*
Y1140945D01*
X1199685D01*
Y1140630D01*
X1200000D01*
Y1140000D01*
X1200315D01*
Y1139370D01*
X1200630D01*
Y1138740D01*
X1200945D01*
Y1138110D01*
X1201260D01*
Y1137795D01*
X1201575D01*
Y1137165D01*
X1201890D01*
Y1136535D01*
X1202205D01*
Y1135905D01*
X1202520D01*
Y1135590D01*
X1202835D01*
Y1134960D01*
X1203150D01*
Y1134330D01*
X1203465D01*
Y1133700D01*
X1203780D01*
Y1133070D01*
X1204095D01*
Y1132755D01*
X1204410D01*
Y1132125D01*
X1204725D01*
Y1131495D01*
X1205040D01*
Y1130865D01*
X1205355D01*
Y1130550D01*
X1205670D01*
Y1129920D01*
X1205985D01*
Y1129290D01*
X1206300D01*
Y1128975D01*
X1206615D01*
Y1128345D01*
X1206930D01*
Y1127715D01*
X1207245D01*
Y1127085D01*
X1207560D01*
Y1126455D01*
X1207875D01*
Y1125825D01*
X1208190D01*
Y1125510D01*
X1208505D01*
Y1124880D01*
X1208820D01*
Y1124250D01*
X1209135D01*
Y1123620D01*
X1209450D01*
Y1123305D01*
X1209765D01*
Y1122675D01*
X1210080D01*
Y1122045D01*
X1210395D01*
Y1121415D01*
X1210710D01*
Y1121100D01*
X1211025D01*
Y1120470D01*
X1211340D01*
Y1119840D01*
X1211655D01*
Y1119210D01*
X1211970D01*
Y1118895D01*
X1212285D01*
Y1118265D01*
X1212600D01*
Y1117635D01*
X1212915D01*
Y1117005D01*
X1213230D01*
Y1116375D01*
X1213545D01*
Y1116060D01*
X1213860D01*
Y1115430D01*
X1214175D01*
Y1114800D01*
X1214490D01*
Y1114170D01*
X1214805D01*
Y1113540D01*
X1215120D01*
Y1113225D01*
X1215435D01*
Y1112595D01*
X1215750D01*
Y1111965D01*
X1216065D01*
Y1111335D01*
X1216380D01*
Y1111020D01*
X1216695D01*
Y1110390D01*
X1217010D01*
Y1109760D01*
X1217325D01*
Y1109130D01*
X1217640D01*
Y1108815D01*
X1217955D01*
Y1108185D01*
X1218270D01*
Y1107555D01*
X1218585D01*
Y1106925D01*
X1218900D01*
Y1106295D01*
X1219215D01*
Y1105980D01*
X1219530D01*
Y1105350D01*
X1219845D01*
Y1104720D01*
X1220160D01*
Y1104090D01*
X1220475D01*
Y1103460D01*
X1220790D01*
Y1102515D01*
X1221105D01*
Y1098735D01*
X1220790D01*
Y1098105D01*
X1220475D01*
Y1097475D01*
X1220160D01*
Y1096845D01*
X1219845D01*
Y1096530D01*
X1219530D01*
Y1096215D01*
X1219215D01*
Y1095900D01*
X1218900D01*
Y1095585D01*
X1218585D01*
Y1095270D01*
X1217955D01*
Y1094955D01*
X1217325D01*
Y1094640D01*
X1216695D01*
Y1094325D01*
X1215435D01*
Y1094010D01*
X1102980D01*
Y1094325D01*
X1101720D01*
Y1094640D01*
X1101090D01*
Y1094955D01*
X1100460D01*
Y1095270D01*
X1099830D01*
Y1095585D01*
X1099515D01*
Y1095900D01*
X1099200D01*
Y1096215D01*
X1098885D01*
Y1096530D01*
X1098570D01*
Y1096845D01*
X1098255D01*
Y1097475D01*
X1097940D01*
Y1098105D01*
X1097625D01*
Y1098735D01*
X1097310D01*
Y1102515D01*
X1097625D01*
Y1103460D01*
X1097940D01*
Y1104090D01*
X1098255D01*
Y1104720D01*
X1098570D01*
Y1105350D01*
X1098885D01*
Y1105665D01*
X1099200D01*
Y1106295D01*
X1099515D01*
Y1106925D01*
X1099830D01*
Y1107555D01*
X1100145D01*
Y1107870D01*
X1100460D01*
Y1108500D01*
X1100775D01*
Y1109130D01*
X1101090D01*
Y1109760D01*
X1101405D01*
Y1110075D01*
X1101720D01*
Y1110705D01*
X1102035D01*
Y1111335D01*
X1102350D01*
Y1111965D01*
X1102665D01*
Y1112280D01*
X1102980D01*
Y1112910D01*
X1103295D01*
Y1113540D01*
X1103610D01*
Y1114170D01*
X1103925D01*
Y1114485D01*
X1104240D01*
Y1115115D01*
X1104555D01*
Y1115745D01*
X1104870D01*
Y1116060D01*
X1105185D01*
Y1116690D01*
X1105500D01*
Y1117320D01*
X1105815D01*
Y1117950D01*
X1106130D01*
Y1118265D01*
X1106445D01*
Y1118895D01*
X1106760D01*
Y1119525D01*
X1107075D01*
Y1120155D01*
X1107390D01*
Y1120470D01*
X1107705D01*
Y1121100D01*
X1108020D01*
Y1121730D01*
X1108335D01*
Y1122360D01*
X1108650D01*
Y1122675D01*
X1108965D01*
Y1123305D01*
X1109280D01*
Y1123935D01*
X1109595D01*
Y1124565D01*
X1109910D01*
Y1124880D01*
X1110225D01*
Y1125510D01*
X1110540D01*
Y1126140D01*
X1110855D01*
Y1126770D01*
X1111170D01*
Y1127085D01*
X1111485D01*
Y1127715D01*
X1111800D01*
Y1128345D01*
X1112115D01*
Y1128660D01*
X1112430D01*
Y1129290D01*
X1112745D01*
Y1129920D01*
X1113060D01*
Y1130550D01*
X1113375D01*
Y1130865D01*
X1113690D01*
Y1131495D01*
X1114005D01*
Y1132125D01*
X1114320D01*
Y1132755D01*
X1114635D01*
Y1133070D01*
X1114950D01*
Y1133700D01*
X1115265D01*
Y1134330D01*
X1115580D01*
Y1134960D01*
X1115895D01*
Y1135275D01*
X1116210D01*
Y1135905D01*
X1116525D01*
Y1136535D01*
X1116840D01*
Y1137165D01*
X1117155D01*
Y1137480D01*
X1117470D01*
Y1138110D01*
X1117785D01*
Y1138740D01*
X1118100D01*
Y1139370D01*
X1118415D01*
Y1139685D01*
X1118730D01*
Y1140315D01*
X1119045D01*
Y1140945D01*
X1119360D01*
Y1141575D01*
X1119675D01*
Y1141890D01*
X1119990D01*
Y1142520D01*
X1120305D01*
Y1143150D01*
X1120620D01*
Y1143465D01*
X1120935D01*
Y1144095D01*
X1121250D01*
Y1144725D01*
X1121565D01*
Y1145355D01*
X1121880D01*
Y1145670D01*
X1122195D01*
Y1146300D01*
X1122510D01*
Y1146930D01*
X1122825D01*
Y1147560D01*
X1123140D01*
Y1147875D01*
X1123455D01*
Y1148505D01*
X1123770D01*
Y1149135D01*
X1124085D01*
Y1149765D01*
X1124400D01*
Y1150080D01*
X1124715D01*
Y1150710D01*
X1125030D01*
Y1151340D01*
X1125345D01*
Y1151970D01*
X1125660D01*
Y1152285D01*
X1125975D01*
Y1152915D01*
X1126290D01*
Y1153545D01*
X1126605D01*
Y1154175D01*
X1126920D01*
Y1154490D01*
X1127235D01*
Y1155120D01*
X1127550D01*
Y1155750D01*
X1127865D01*
Y1156380D01*
X1128180D01*
Y1156695D01*
X1128495D01*
Y1157325D01*
X1128810D01*
Y1157955D01*
X1129125D01*
Y1158270D01*
X1129440D01*
Y1158900D01*
X1129755D01*
Y1159530D01*
X1130070D01*
Y1160160D01*
X1130385D01*
Y1160475D01*
X1130700D01*
Y1161105D01*
X1131015D01*
Y1161735D01*
X1131330D01*
Y1162365D01*
X1131645D01*
Y1162680D01*
X1131960D01*
Y1163310D01*
X1132275D01*
Y1163940D01*
X1132590D01*
Y1164570D01*
X1132905D01*
Y1164885D01*
X1133220D01*
Y1165515D01*
X1133535D01*
Y1166145D01*
X1133850D01*
Y1166775D01*
X1134165D01*
Y1167090D01*
X1134480D01*
Y1167720D01*
X1134795D01*
Y1168350D01*
X1135110D01*
Y1168980D01*
X1135425D01*
Y1169295D01*
X1135740D01*
Y1169925D01*
X1136055D01*
Y1170555D01*
X1136370D01*
Y1171185D01*
X1136685D01*
Y1171500D01*
X1137000D01*
Y1172130D01*
X1137315D01*
Y1172760D01*
X1137630D01*
Y1173075D01*
X1137945D01*
Y1173705D01*
X1138260D01*
Y1174335D01*
X1138575D01*
Y1174965D01*
X1138890D01*
Y1175280D01*
X1139205D01*
Y1175910D01*
X1139520D01*
Y1176540D01*
X1139835D01*
Y1177170D01*
X1140150D01*
Y1177485D01*
X1140465D01*
Y1178115D01*
X1140780D01*
Y1178745D01*
X1141095D01*
Y1179375D01*
X1141410D01*
Y1179690D01*
X1141725D01*
Y1180320D01*
X1142040D01*
Y1180950D01*
X1142355D01*
Y1181580D01*
X1142670D01*
Y1181895D01*
X1142985D01*
Y1182525D01*
X1143300D01*
Y1183155D01*
X1143615D01*
Y1183785D01*
X1143930D01*
Y1184100D01*
X1144245D01*
Y1184730D01*
X1144560D01*
Y1185360D01*
X1144875D01*
Y1185990D01*
X1145190D01*
Y1186305D01*
X1145505D01*
Y1186935D01*
X1145820D01*
Y1187565D01*
X1146135D01*
Y1187880D01*
X1146450D01*
Y1188510D01*
X1146765D01*
Y1189140D01*
X1147080D01*
Y1189770D01*
X1147395D01*
Y1190085D01*
X1147710D01*
Y1190715D01*
X1148025D01*
Y1191345D01*
X1148340D01*
Y1191975D01*
X1148655D01*
Y1192290D01*
X1148970D01*
Y1192920D01*
X1149285D01*
Y1193550D01*
X1149600D01*
Y1194180D01*
X1149915D01*
Y1194495D01*
X1150230D01*
Y1195125D01*
X1150545D01*
Y1195755D01*
X1150860D01*
Y1196385D01*
X1151175D01*
Y1196700D01*
X1151490D01*
Y1197330D01*
X1151805D01*
Y1197960D01*
X1152120D01*
Y1198590D01*
X1152435D01*
Y1198905D01*
X1152750D01*
Y1199535D01*
X1153065D01*
Y1200165D01*
X1153380D01*
Y1200480D01*
X1153695D01*
Y1201110D01*
X1154010D01*
Y1201740D01*
X1154325D01*
Y1202055D01*
X1154640D01*
Y1202370D01*
X1154955D01*
Y1202685D01*
X1155270D01*
Y1203000D01*
X1155585D01*
Y1203315D01*
X1156215D01*
Y1203630D01*
X1156530D01*
Y1203945D01*
X1157160D01*
Y1204260D01*
X1158105D01*
Y1204575D01*
X1161255D01*
Y1204260D01*
D02*
G37*
G36*
X754483Y576013D02*
Y575844D01*
Y558460D01*
X754314D01*
Y557616D01*
X754146D01*
Y556941D01*
X753977D01*
Y556435D01*
X753808D01*
Y556097D01*
X753639D01*
Y555760D01*
X753471D01*
Y555422D01*
X753302D01*
Y555084D01*
X753133D01*
Y554916D01*
X752964D01*
Y554578D01*
X752795D01*
Y554409D01*
X752627D01*
Y554240D01*
X752458D01*
Y554072D01*
X752289D01*
Y553903D01*
X752120D01*
Y553734D01*
X751952D01*
Y553565D01*
X751783D01*
Y553397D01*
X751445D01*
Y553228D01*
X751276D01*
Y553059D01*
X750939D01*
Y552890D01*
X750770D01*
Y552721D01*
X750433D01*
Y552553D01*
X750095D01*
Y552384D01*
X749757D01*
Y552215D01*
X749251D01*
Y552046D01*
X748745D01*
Y551878D01*
X748070D01*
Y551709D01*
X747394D01*
Y551878D01*
X747732D01*
Y552046D01*
X748070D01*
Y552215D01*
X748407D01*
Y552384D01*
X748576D01*
Y552553D01*
X748913D01*
Y552721D01*
X749082D01*
Y552890D01*
X749251D01*
Y553059D01*
X749589D01*
Y553228D01*
X749757D01*
Y553397D01*
X749926D01*
Y553565D01*
X750095D01*
Y553734D01*
X750264D01*
Y553903D01*
X750433D01*
Y554072D01*
X750601D01*
Y554409D01*
X750770D01*
Y554578D01*
X750939D01*
Y554747D01*
X751108D01*
Y555084D01*
X751276D01*
Y555422D01*
X751445D01*
Y555760D01*
X751614D01*
Y556097D01*
X751783D01*
Y556603D01*
X751952D01*
Y557110D01*
X752120D01*
Y557785D01*
X752289D01*
Y559135D01*
X752458D01*
Y589684D01*
X752627D01*
Y589515D01*
X752795D01*
Y589684D01*
X754483D01*
Y576013D01*
D02*
G37*
G36*
X730517Y565042D02*
Y564873D01*
Y560317D01*
X730686D01*
Y556941D01*
X730854D01*
Y555928D01*
X731023D01*
Y554916D01*
X731192D01*
Y554240D01*
X731361D01*
Y553734D01*
X731529D01*
Y553397D01*
X731698D01*
Y553059D01*
X731867D01*
Y552721D01*
X732036D01*
Y552384D01*
X732205D01*
Y552046D01*
X732373D01*
Y551878D01*
X732542D01*
Y551709D01*
X732373D01*
Y551878D01*
X732036D01*
Y552046D01*
X731867D01*
Y552215D01*
X731698D01*
Y552384D01*
X731361D01*
Y552553D01*
X731192D01*
Y552721D01*
X731023D01*
Y552890D01*
X730854D01*
Y553059D01*
X730686D01*
Y553228D01*
X730517D01*
Y553397D01*
X730348D01*
Y553565D01*
X730179D01*
Y553903D01*
X730011D01*
Y554072D01*
X729842D01*
Y554409D01*
X729673D01*
Y554578D01*
X729504D01*
Y555084D01*
X729335D01*
Y555422D01*
X729167D01*
Y555928D01*
X728998D01*
Y556435D01*
X728829D01*
Y557279D01*
X728660D01*
Y558460D01*
X728492D01*
Y589684D01*
X728660D01*
Y589515D01*
X728829D01*
Y589684D01*
X730517D01*
Y565042D01*
D02*
G37*
G36*
X727310Y588333D02*
Y588165D01*
Y558629D01*
X727479D01*
Y557447D01*
X727648D01*
Y556772D01*
X727816D01*
Y556097D01*
X727985D01*
Y555591D01*
X728154D01*
Y555253D01*
X728323D01*
Y554916D01*
X728492D01*
Y554578D01*
X728660D01*
Y554240D01*
X728829D01*
Y554072D01*
X728998D01*
Y553734D01*
X729167D01*
Y553565D01*
X729335D01*
Y553397D01*
X729504D01*
Y553059D01*
X729673D01*
Y552890D01*
X729842D01*
Y552721D01*
X730011D01*
Y552553D01*
X730179D01*
Y552384D01*
X730348D01*
Y552215D01*
X730517D01*
Y552046D01*
X730854D01*
Y551878D01*
X731023D01*
Y551709D01*
X730686D01*
Y551878D01*
X730348D01*
Y552046D01*
X730011D01*
Y552215D01*
X729504D01*
Y552384D01*
X729335D01*
Y552553D01*
X728998D01*
Y552721D01*
X728660D01*
Y552890D01*
X728492D01*
Y553059D01*
X728154D01*
Y553228D01*
X727985D01*
Y553397D01*
X727816D01*
Y553565D01*
X727648D01*
Y553734D01*
X727479D01*
Y553903D01*
X727310D01*
Y554072D01*
X727141D01*
Y554240D01*
X726973D01*
Y554409D01*
X726804D01*
Y554578D01*
X726635D01*
Y554916D01*
X726466D01*
Y555253D01*
X726298D01*
Y555422D01*
X726129D01*
Y555760D01*
X725960D01*
Y556266D01*
X725791D01*
Y556772D01*
X725622D01*
Y557279D01*
X725454D01*
Y558291D01*
X725285D01*
Y589684D01*
X726129D01*
Y589515D01*
X726466D01*
Y589684D01*
X726973D01*
Y589515D01*
X727141D01*
Y589684D01*
X727310D01*
Y588333D01*
D02*
G37*
G36*
X723935Y589515D02*
X724103D01*
Y558291D01*
X724272D01*
Y557447D01*
X724441D01*
Y556941D01*
X724610D01*
Y556435D01*
X724779D01*
Y555928D01*
X724947D01*
Y555591D01*
X725116D01*
Y555253D01*
X725285D01*
Y554916D01*
X725454D01*
Y554747D01*
X725622D01*
Y554409D01*
X725791D01*
Y554240D01*
X725960D01*
Y554072D01*
X726129D01*
Y553903D01*
X726298D01*
Y553734D01*
X726466D01*
Y553565D01*
X726635D01*
Y553397D01*
X726804D01*
Y553228D01*
X726973D01*
Y553059D01*
X727141D01*
Y552890D01*
X727310D01*
Y552721D01*
X727648D01*
Y552553D01*
X727816D01*
Y552384D01*
X728154D01*
Y552215D01*
X728492D01*
Y552046D01*
X728829D01*
Y551878D01*
X729167D01*
Y551709D01*
X728492D01*
Y551878D01*
X727816D01*
Y552046D01*
X727310D01*
Y552215D01*
X726804D01*
Y552384D01*
X726466D01*
Y552553D01*
X726129D01*
Y552721D01*
X725791D01*
Y552890D01*
X725454D01*
Y553059D01*
X725285D01*
Y553228D01*
X724947D01*
Y553397D01*
X724779D01*
Y553565D01*
X724610D01*
Y553734D01*
X724441D01*
Y553903D01*
X724272D01*
Y554072D01*
X724103D01*
Y554240D01*
X723935D01*
Y554409D01*
X723766D01*
Y554578D01*
X723597D01*
Y554747D01*
X723428D01*
Y555084D01*
X723260D01*
Y555253D01*
X723091D01*
Y555591D01*
X722922D01*
Y555928D01*
X722753D01*
Y556266D01*
X722584D01*
Y556772D01*
X722416D01*
Y557279D01*
X722247D01*
Y557954D01*
X722078D01*
Y559304D01*
X721909D01*
Y581582D01*
Y581751D01*
Y589515D01*
X722078D01*
Y589684D01*
X723597D01*
Y589515D01*
X723766D01*
Y589684D01*
X723935D01*
Y589515D01*
D02*
G37*
G36*
X735918Y599135D02*
X736593D01*
Y598966D01*
X737268D01*
Y598797D01*
X737606D01*
Y598629D01*
X738112D01*
Y598460D01*
X738449D01*
Y598291D01*
X738787D01*
Y598122D01*
X738956D01*
Y597954D01*
X739293D01*
Y597785D01*
X739462D01*
Y597616D01*
X739800D01*
Y597447D01*
X739968D01*
Y597279D01*
X740137D01*
Y597110D01*
X740306D01*
Y596941D01*
X740475D01*
Y596772D01*
X740643D01*
Y596603D01*
X740812D01*
Y596435D01*
X740981D01*
Y596097D01*
X741150D01*
Y595928D01*
X741319D01*
Y595591D01*
X741487D01*
Y595253D01*
X741656D01*
Y594916D01*
X741825D01*
Y594578D01*
X741994D01*
Y594072D01*
X742162D01*
Y593565D01*
X742331D01*
Y592721D01*
X742500D01*
Y557279D01*
X742669D01*
Y557110D01*
X742500D01*
Y556941D01*
X740475D01*
Y569599D01*
Y569768D01*
Y591709D01*
X740306D01*
Y593059D01*
X740137D01*
Y593734D01*
X739968D01*
Y594409D01*
X739800D01*
Y594747D01*
X739631D01*
Y595253D01*
X739462D01*
Y595591D01*
X739293D01*
Y595928D01*
X739125D01*
Y596097D01*
X738956D01*
Y596435D01*
X738787D01*
Y596603D01*
X738618D01*
Y596772D01*
X738449D01*
Y596941D01*
X738281D01*
Y597110D01*
X738112D01*
Y597447D01*
X737943D01*
Y597616D01*
X737606D01*
Y597785D01*
X737437D01*
Y597954D01*
X737268D01*
Y598122D01*
X737099D01*
Y598291D01*
X736762D01*
Y598460D01*
X736593D01*
Y598629D01*
X736255D01*
Y598797D01*
X735918D01*
Y598966D01*
X735580D01*
Y599135D01*
X735243D01*
Y599304D01*
X735918D01*
Y599135D01*
D02*
G37*
G36*
X733724D02*
X734230D01*
Y598966D01*
X734567D01*
Y598797D01*
X734905D01*
Y598629D01*
X735243D01*
Y598460D01*
X735580D01*
Y598291D01*
X735749D01*
Y598122D01*
X736087D01*
Y597954D01*
X736255D01*
Y597785D01*
X736424D01*
Y597616D01*
X736762D01*
Y597447D01*
X736930D01*
Y597279D01*
X737099D01*
Y597110D01*
X737268D01*
Y596941D01*
X737437D01*
Y596772D01*
X737606D01*
Y596435D01*
X737774D01*
Y596266D01*
X737943D01*
Y595928D01*
X738112D01*
Y595760D01*
X738281D01*
Y595422D01*
X738449D01*
Y595084D01*
X738618D01*
Y594578D01*
X738787D01*
Y594072D01*
X738956D01*
Y593397D01*
X739125D01*
Y592890D01*
Y592721D01*
Y592384D01*
X739293D01*
Y556941D01*
X737268D01*
Y557110D01*
X737099D01*
Y592890D01*
X736930D01*
Y593903D01*
X736762D01*
Y594578D01*
X736593D01*
Y595084D01*
X736424D01*
Y595422D01*
X736255D01*
Y595928D01*
X736087D01*
Y596266D01*
X735918D01*
Y596603D01*
X735749D01*
Y596772D01*
X735580D01*
Y597110D01*
X735411D01*
Y597279D01*
X735243D01*
Y597616D01*
X735074D01*
Y597785D01*
X734905D01*
Y597954D01*
X734736D01*
Y598122D01*
X734567D01*
Y598291D01*
X734399D01*
Y598460D01*
X734230D01*
Y598629D01*
X734061D01*
Y598797D01*
X733892D01*
Y598966D01*
X733555D01*
Y599135D01*
X733386D01*
Y599304D01*
X733724D01*
Y599135D01*
D02*
G37*
G36*
X732036D02*
X732373D01*
Y598966D01*
X732542D01*
Y598797D01*
X732880D01*
Y598629D01*
X733048D01*
Y598460D01*
X733217D01*
Y598291D01*
X733555D01*
Y598122D01*
X733724D01*
Y597954D01*
X733892D01*
Y597785D01*
X734061D01*
Y597447D01*
X734230D01*
Y597279D01*
X734399D01*
Y597110D01*
X734567D01*
Y596772D01*
X734736D01*
Y596435D01*
X734905D01*
Y596266D01*
X735074D01*
Y595928D01*
X735243D01*
Y595422D01*
X735411D01*
Y594916D01*
X735580D01*
Y594240D01*
X735749D01*
Y593565D01*
X735918D01*
Y592046D01*
X736087D01*
Y556941D01*
X733892D01*
Y566730D01*
Y566899D01*
Y592890D01*
X733724D01*
Y594578D01*
X733555D01*
Y595591D01*
X733386D01*
Y596435D01*
X733217D01*
Y596941D01*
X733048D01*
Y597447D01*
X732880D01*
Y597785D01*
X732711D01*
Y598122D01*
X732542D01*
Y598460D01*
X732373D01*
Y598797D01*
X732205D01*
Y598966D01*
X732036D01*
Y599135D01*
X731867D01*
Y599304D01*
X732036D01*
Y599135D01*
D02*
G37*
G36*
X751276Y558966D02*
X751108D01*
Y557616D01*
X750939D01*
Y556941D01*
X750770D01*
Y556435D01*
X750601D01*
Y555928D01*
X750433D01*
Y555591D01*
X750264D01*
Y555253D01*
X750095D01*
Y555084D01*
X749926D01*
Y554747D01*
X749757D01*
Y554578D01*
X749589D01*
Y554240D01*
X749420D01*
Y554072D01*
X749251D01*
Y553903D01*
X749082D01*
Y553734D01*
X748913D01*
Y553565D01*
X748745D01*
Y553397D01*
X748576D01*
Y553228D01*
X748238D01*
Y553059D01*
X748070D01*
Y552890D01*
X747732D01*
Y552721D01*
X747563D01*
Y552553D01*
X747226D01*
Y552384D01*
X746888D01*
Y552215D01*
X746551D01*
Y552046D01*
X746044D01*
Y551878D01*
X745707D01*
Y552046D01*
X745875D01*
Y552215D01*
X746044D01*
Y552384D01*
X746213D01*
Y552553D01*
X746382D01*
Y552721D01*
X746551D01*
Y552890D01*
X746719D01*
Y553059D01*
X746888D01*
Y553228D01*
X747057D01*
Y553397D01*
X747226D01*
Y553565D01*
X747394D01*
Y553903D01*
X747563D01*
Y554072D01*
X747732D01*
Y554409D01*
X747901D01*
Y554747D01*
X748070D01*
Y555084D01*
X748238D01*
Y555422D01*
X748407D01*
Y555928D01*
X748576D01*
Y556435D01*
X748745D01*
Y557110D01*
X748913D01*
Y557954D01*
X749082D01*
Y583776D01*
Y583945D01*
Y589515D01*
X749251D01*
Y589684D01*
X751276D01*
Y558966D01*
D02*
G37*
G36*
X747901Y589515D02*
X748070D01*
Y559473D01*
X747901D01*
Y557616D01*
X747732D01*
Y556772D01*
X747563D01*
Y556097D01*
X747394D01*
Y555591D01*
X747226D01*
Y555253D01*
X747057D01*
Y554916D01*
X746888D01*
Y554578D01*
X746719D01*
Y554240D01*
X746551D01*
Y553903D01*
X746382D01*
Y553734D01*
X746213D01*
Y553565D01*
X746044D01*
Y553228D01*
X745875D01*
Y553059D01*
X745707D01*
Y552890D01*
X745538D01*
Y552721D01*
X745200D01*
Y552553D01*
X745032D01*
Y552384D01*
X744863D01*
Y552215D01*
X744525D01*
Y552046D01*
X744357D01*
Y551878D01*
X744019D01*
Y552046D01*
X744188D01*
Y552215D01*
X744357D01*
Y552553D01*
X744525D01*
Y552890D01*
X744694D01*
Y553228D01*
X744863D01*
Y553565D01*
X745032D01*
Y554072D01*
X745200D01*
Y554578D01*
X745369D01*
Y555422D01*
X745538D01*
Y556266D01*
X745707D01*
Y557954D01*
X745875D01*
Y573819D01*
Y573987D01*
Y589684D01*
X747901D01*
Y589515D01*
D02*
G37*
G36*
X745707Y551709D02*
X745369D01*
Y551878D01*
X745707D01*
Y551709D01*
D02*
G37*
G36*
X744019D02*
X743850D01*
Y551878D01*
X744019D01*
Y551709D01*
D02*
G37*
G36*
X739631Y545127D02*
X740643D01*
Y544958D01*
X741319D01*
Y542933D01*
X741150D01*
Y543101D01*
X740812D01*
Y543270D01*
X740475D01*
Y543439D01*
X739631D01*
Y543608D01*
X738787D01*
Y543439D01*
X737943D01*
Y543270D01*
X737606D01*
Y543101D01*
X737268D01*
Y542933D01*
X737099D01*
Y542764D01*
X736930D01*
Y542595D01*
X736762D01*
Y542257D01*
X736593D01*
Y542089D01*
X736424D01*
Y541582D01*
X736255D01*
Y541076D01*
X736087D01*
Y539219D01*
X736255D01*
Y538544D01*
X736424D01*
Y538038D01*
X736593D01*
Y537700D01*
X736762D01*
Y537532D01*
X736930D01*
Y537363D01*
X737099D01*
Y537025D01*
X737437D01*
Y536857D01*
X737774D01*
Y536688D01*
X738112D01*
Y536519D01*
X739293D01*
Y536688D01*
X739462D01*
Y539726D01*
X739293D01*
Y540570D01*
X739125D01*
Y540738D01*
X738956D01*
Y541076D01*
X739293D01*
Y540907D01*
X739462D01*
Y541076D01*
X739631D01*
Y540907D01*
X739800D01*
Y541076D01*
X740812D01*
Y540907D01*
X741487D01*
Y540738D01*
X741656D01*
Y540570D01*
X741825D01*
Y540232D01*
X741994D01*
Y535506D01*
X741825D01*
Y535338D01*
X741150D01*
Y535169D01*
X740306D01*
Y535000D01*
X737943D01*
Y535169D01*
X737099D01*
Y535338D01*
X736593D01*
Y535506D01*
X736255D01*
Y535675D01*
X735918D01*
Y535844D01*
X735580D01*
Y536013D01*
X735411D01*
Y536181D01*
X735074D01*
Y536350D01*
X734905D01*
Y536519D01*
X734736D01*
Y536688D01*
X734567D01*
Y536857D01*
X734399D01*
Y537025D01*
X734230D01*
Y537363D01*
X734061D01*
Y537700D01*
X733892D01*
Y538038D01*
X733724D01*
Y538376D01*
X733555D01*
Y539219D01*
X733386D01*
Y540738D01*
X733555D01*
Y541582D01*
X733724D01*
Y542089D01*
X733892D01*
Y542426D01*
X734061D01*
Y542764D01*
X734230D01*
Y542933D01*
X734399D01*
Y543270D01*
X734567D01*
Y543439D01*
X734736D01*
Y543608D01*
X734905D01*
Y543776D01*
X735074D01*
Y543945D01*
X735243D01*
Y544114D01*
X735580D01*
Y544283D01*
X735749D01*
Y544451D01*
X736087D01*
Y544620D01*
X736424D01*
Y544789D01*
X736930D01*
Y544958D01*
X737437D01*
Y545127D01*
X738618D01*
Y545295D01*
X739631D01*
Y545127D01*
D02*
G37*
G36*
X754483Y543608D02*
Y543439D01*
Y535169D01*
X751952D01*
Y539388D01*
X748913D01*
Y535169D01*
X746382D01*
Y544283D01*
X746213D01*
Y544620D01*
X746044D01*
Y544789D01*
X745875D01*
Y544958D01*
X748238D01*
Y544789D01*
X748576D01*
Y544451D01*
X748745D01*
Y544283D01*
X748913D01*
Y541076D01*
X749082D01*
Y540907D01*
X751952D01*
Y544958D01*
X754483D01*
Y543608D01*
D02*
G37*
G36*
X726973Y544789D02*
X727141D01*
Y544620D01*
X727310D01*
Y544451D01*
X727479D01*
Y544283D01*
X727648D01*
Y543945D01*
X727816D01*
Y543439D01*
X727985D01*
Y543101D01*
X728154D01*
Y542595D01*
X728323D01*
Y542089D01*
X728492D01*
Y541582D01*
X728660D01*
Y541076D01*
X728829D01*
Y540738D01*
X728998D01*
Y540232D01*
X729167D01*
Y539726D01*
X729335D01*
Y539219D01*
X729504D01*
Y538713D01*
X729673D01*
Y538376D01*
X729842D01*
Y537869D01*
X730011D01*
Y537363D01*
X730179D01*
Y536857D01*
X730348D01*
Y536350D01*
X730517D01*
Y535844D01*
X730686D01*
Y535506D01*
X730854D01*
Y535338D01*
X730686D01*
Y535169D01*
X728154D01*
Y535338D01*
X727985D01*
Y535844D01*
X727816D01*
Y536350D01*
X727648D01*
Y536688D01*
X727479D01*
Y537363D01*
X727310D01*
Y537700D01*
X723935D01*
Y537194D01*
X723766D01*
Y536688D01*
X723597D01*
Y536181D01*
X723428D01*
Y535675D01*
X723260D01*
Y535338D01*
X723091D01*
Y535169D01*
X721403D01*
Y535506D01*
X721572D01*
Y536013D01*
X721740D01*
Y536519D01*
X721909D01*
Y537025D01*
X722078D01*
Y537532D01*
X722247D01*
Y538038D01*
X722416D01*
Y538544D01*
X722584D01*
Y539051D01*
X722753D01*
Y539557D01*
X722922D01*
Y540063D01*
X723091D01*
Y540570D01*
X723260D01*
Y541076D01*
X723428D01*
Y541413D01*
X723597D01*
Y542089D01*
X723766D01*
Y542426D01*
X723935D01*
Y542933D01*
X724103D01*
Y543439D01*
X724272D01*
Y544620D01*
X724103D01*
Y544789D01*
X723935D01*
Y544958D01*
X726973D01*
Y544789D01*
D02*
G37*
%LPC*%
G36*
X893943Y1192428D02*
X893529D01*
Y1192221D01*
X893321D01*
Y1191806D01*
X893114D01*
Y1191392D01*
X892907D01*
Y1190977D01*
X892700D01*
Y1190770D01*
X892492D01*
Y1190356D01*
X892285D01*
Y1189941D01*
X892078D01*
Y1189734D01*
X891871D01*
Y1189319D01*
X891664D01*
Y1188905D01*
X891456D01*
Y1188698D01*
X891249D01*
Y1188283D01*
X891042D01*
Y1187869D01*
X890835D01*
Y1187662D01*
X890627D01*
Y1187247D01*
X890420D01*
Y1186833D01*
X890213D01*
Y1186626D01*
X890006D01*
Y1186211D01*
X889799D01*
Y1185797D01*
X889591D01*
Y1185382D01*
X889384D01*
Y1185175D01*
X889177D01*
Y1184760D01*
X888970D01*
Y1184346D01*
X888762D01*
Y1184139D01*
X888555D01*
Y1183724D01*
X888348D01*
Y1183310D01*
X888141D01*
Y1183103D01*
X887934D01*
Y1182688D01*
X887726D01*
Y1182274D01*
X887519D01*
Y1182066D01*
X887312D01*
Y1181652D01*
X887105D01*
Y1181238D01*
X886897D01*
Y1181030D01*
X886690D01*
Y1180616D01*
X886483D01*
Y1180201D01*
X886276D01*
Y1179787D01*
X886068D01*
Y1179580D01*
X885861D01*
Y1179165D01*
X885654D01*
Y1178751D01*
X885447D01*
Y1178544D01*
X885240D01*
Y1178129D01*
X885032D01*
Y1177715D01*
X884825D01*
Y1177508D01*
X884618D01*
Y1177093D01*
X884411D01*
Y1176679D01*
X884203D01*
Y1176471D01*
X883996D01*
Y1176057D01*
X883789D01*
Y1175643D01*
X883582D01*
Y1175435D01*
X883374D01*
Y1175021D01*
X883167D01*
Y1174606D01*
X882960D01*
Y1174192D01*
X882753D01*
Y1173985D01*
X882546D01*
Y1173570D01*
X882338D01*
Y1173156D01*
X882131D01*
Y1172949D01*
X881924D01*
Y1172534D01*
X881717D01*
Y1172120D01*
X881509D01*
Y1171913D01*
X881302D01*
Y1171498D01*
X881095D01*
Y1171084D01*
X880888D01*
Y1170876D01*
X880681D01*
Y1170462D01*
X880473D01*
Y1170048D01*
X880266D01*
Y1169840D01*
X880059D01*
Y1169426D01*
X879852D01*
Y1169011D01*
X879644D01*
Y1168597D01*
X879437D01*
Y1168390D01*
X879230D01*
Y1167975D01*
X879023D01*
Y1167561D01*
X878816D01*
Y1167354D01*
X878608D01*
Y1166939D01*
X878401D01*
Y1166525D01*
X878194D01*
Y1166318D01*
X877987D01*
Y1165903D01*
X877779D01*
Y1165489D01*
X877572D01*
Y1165281D01*
X877365D01*
Y1164867D01*
X877158D01*
Y1164453D01*
X876951D01*
Y1164245D01*
X876743D01*
Y1163831D01*
X876536D01*
Y1163416D01*
X876329D01*
Y1163002D01*
X876122D01*
Y1162795D01*
X875915D01*
Y1162380D01*
X875707D01*
Y1161966D01*
X875500D01*
Y1161759D01*
X875293D01*
Y1161344D01*
X875086D01*
Y1160930D01*
X874878D01*
Y1160722D01*
X874671D01*
Y1160308D01*
X874464D01*
Y1159893D01*
X874257D01*
Y1159686D01*
X874049D01*
Y1159272D01*
X873842D01*
Y1158857D01*
X873635D01*
Y1158650D01*
X873428D01*
Y1158236D01*
X873221D01*
Y1157821D01*
X873013D01*
Y1157407D01*
X872806D01*
Y1157200D01*
X872599D01*
Y1156785D01*
X872392D01*
Y1156371D01*
X872184D01*
Y1156163D01*
X871977D01*
Y1155749D01*
X871770D01*
Y1155335D01*
X871563D01*
Y1155127D01*
X871356D01*
Y1154713D01*
X871148D01*
Y1154298D01*
X870941D01*
Y1154091D01*
X870734D01*
Y1153677D01*
X870527D01*
Y1153262D01*
X870319D01*
Y1153055D01*
X870112D01*
Y1152641D01*
X869905D01*
Y1152226D01*
X869698D01*
Y1151812D01*
X869491D01*
Y1151605D01*
X869283D01*
Y1151190D01*
X869076D01*
Y1150776D01*
X868869D01*
Y1150568D01*
X868662D01*
Y1150154D01*
X868454D01*
Y1149740D01*
X868247D01*
Y1149532D01*
X868040D01*
Y1149118D01*
X867833D01*
Y1148703D01*
X867626D01*
Y1148496D01*
X867418D01*
Y1148082D01*
X867211D01*
Y1147667D01*
X867004D01*
Y1147253D01*
X866797D01*
Y1147046D01*
X866589D01*
Y1146631D01*
X866382D01*
Y1146217D01*
X866175D01*
Y1146010D01*
X865968D01*
Y1145595D01*
X865760D01*
Y1145181D01*
X865553D01*
Y1144973D01*
X865346D01*
Y1144559D01*
X865139D01*
Y1144145D01*
X864932D01*
Y1143937D01*
X864724D01*
Y1143523D01*
X864517D01*
Y1143108D01*
X864310D01*
Y1142901D01*
X864103D01*
Y1142487D01*
X863895D01*
Y1142072D01*
X863688D01*
Y1141658D01*
X863481D01*
Y1141451D01*
X863274D01*
Y1141036D01*
X863066D01*
Y1140622D01*
X862859D01*
Y1140415D01*
X862652D01*
Y1140000D01*
X862445D01*
Y1139586D01*
X862238D01*
Y1139378D01*
X862030D01*
Y1138964D01*
X861823D01*
Y1138549D01*
X861616D01*
Y1138342D01*
X861409D01*
Y1137928D01*
X861201D01*
Y1137513D01*
X860994D01*
Y1137306D01*
X860787D01*
Y1136892D01*
X860580D01*
Y1136477D01*
X860373D01*
Y1136063D01*
X860165D01*
Y1135855D01*
X859958D01*
Y1135441D01*
X859751D01*
Y1135027D01*
X859544D01*
Y1134819D01*
X859336D01*
Y1134405D01*
X859129D01*
Y1133990D01*
X858922D01*
Y1133783D01*
X858715D01*
Y1133369D01*
X858508D01*
Y1132954D01*
X858300D01*
Y1132747D01*
X858093D01*
Y1132333D01*
X857886D01*
Y1131918D01*
X857679D01*
Y1131711D01*
X857471D01*
Y1131297D01*
X857264D01*
Y1130882D01*
X857057D01*
Y1130468D01*
X856850D01*
Y1130260D01*
X856643D01*
Y1129846D01*
X856435D01*
Y1129432D01*
X856228D01*
Y1129224D01*
X856021D01*
Y1128810D01*
X855814D01*
Y1128395D01*
X855607D01*
Y1128188D01*
X855399D01*
Y1127774D01*
X855192D01*
Y1127359D01*
X854985D01*
Y1127152D01*
X854778D01*
Y1126738D01*
X854570D01*
Y1126323D01*
X854363D01*
Y1126116D01*
X854156D01*
Y1125702D01*
X853949D01*
Y1125287D01*
X853741D01*
Y1124873D01*
X853534D01*
Y1124665D01*
X853327D01*
Y1124251D01*
X853120D01*
Y1123837D01*
X852913D01*
Y1123629D01*
X852705D01*
Y1123215D01*
X852498D01*
Y1122800D01*
X852291D01*
Y1122593D01*
X852084D01*
Y1122179D01*
X851876D01*
Y1121764D01*
X851669D01*
Y1121557D01*
X851462D01*
Y1121143D01*
X851255D01*
Y1120728D01*
X851048D01*
Y1120521D01*
X850840D01*
Y1120107D01*
X850633D01*
Y1119692D01*
X850426D01*
Y1119278D01*
X850219D01*
Y1119070D01*
X850011D01*
Y1118656D01*
X849804D01*
Y1118242D01*
X849597D01*
Y1118034D01*
X849390D01*
Y1117620D01*
X849183D01*
Y1117205D01*
X848975D01*
Y1116998D01*
X848768D01*
Y1116584D01*
X848561D01*
Y1116169D01*
X848354D01*
Y1115962D01*
X848146D01*
Y1115547D01*
X847939D01*
Y1115133D01*
X847732D01*
Y1114926D01*
X847525D01*
Y1114511D01*
X847318D01*
Y1114097D01*
X847110D01*
Y1113682D01*
X846903D01*
Y1113475D01*
X846696D01*
Y1113061D01*
X846489D01*
Y1112646D01*
X846281D01*
Y1112439D01*
X846074D01*
Y1112025D01*
X845867D01*
Y1111610D01*
X845660D01*
Y1111403D01*
X845452D01*
Y1110989D01*
X845245D01*
Y1110574D01*
X845038D01*
Y1110367D01*
X844831D01*
Y1109952D01*
X844624D01*
Y1109538D01*
X844416D01*
Y1109331D01*
X844209D01*
Y1108916D01*
X844002D01*
Y1108502D01*
X843795D01*
Y1108087D01*
X843587D01*
Y1107880D01*
X843380D01*
Y1107466D01*
X843173D01*
Y1107259D01*
Y1107051D01*
X842966D01*
Y1106844D01*
X842759D01*
Y1106430D01*
X842551D01*
Y1106015D01*
X842344D01*
Y1105808D01*
X842137D01*
Y1105394D01*
X841930D01*
Y1104979D01*
X841722D01*
Y1104772D01*
X841515D01*
Y1104357D01*
X841308D01*
Y1103943D01*
X841101D01*
Y1103736D01*
X945956D01*
Y1104150D01*
X945749D01*
Y1104565D01*
X945542D01*
Y1104772D01*
X945335D01*
Y1105186D01*
X945127D01*
Y1105601D01*
X944920D01*
Y1105808D01*
X944713D01*
Y1106222D01*
X944506D01*
Y1106637D01*
X944298D01*
Y1106844D01*
X944091D01*
Y1107259D01*
X943884D01*
Y1107673D01*
X943677D01*
Y1107880D01*
X943470D01*
Y1108295D01*
X943262D01*
Y1108709D01*
X943055D01*
Y1109124D01*
X942848D01*
Y1109331D01*
X942641D01*
Y1109745D01*
X942433D01*
Y1110160D01*
X942226D01*
Y1110367D01*
X942019D01*
Y1110781D01*
X941812D01*
Y1111196D01*
X941605D01*
Y1111403D01*
X941397D01*
Y1111817D01*
X941190D01*
Y1112232D01*
X940983D01*
Y1112646D01*
X940776D01*
Y1112854D01*
X940568D01*
Y1113268D01*
X940361D01*
Y1113682D01*
X940154D01*
Y1113890D01*
X939947D01*
Y1114304D01*
X939740D01*
Y1114719D01*
X939532D01*
Y1114926D01*
X939325D01*
Y1115340D01*
X939118D01*
Y1115755D01*
X938911D01*
Y1116169D01*
X938703D01*
Y1116376D01*
X938496D01*
Y1116791D01*
X938289D01*
Y1117205D01*
X938082D01*
Y1117412D01*
X937875D01*
Y1117827D01*
X937667D01*
Y1118242D01*
X937460D01*
Y1118449D01*
X937253D01*
Y1118863D01*
X937046D01*
Y1119278D01*
X936838D01*
Y1119485D01*
X936631D01*
Y1119899D01*
X936424D01*
Y1120314D01*
X936217D01*
Y1120728D01*
X936010D01*
Y1120935D01*
X935802D01*
Y1121350D01*
X935595D01*
Y1121764D01*
X935388D01*
Y1121972D01*
X935181D01*
Y1122386D01*
X934973D01*
Y1122800D01*
X934766D01*
Y1123008D01*
X934559D01*
Y1123422D01*
X934352D01*
Y1123837D01*
X934145D01*
Y1124251D01*
X933937D01*
Y1124458D01*
X933730D01*
Y1124873D01*
X933523D01*
Y1125287D01*
X933316D01*
Y1125494D01*
X933108D01*
Y1125909D01*
X932901D01*
Y1126323D01*
X932694D01*
Y1126530D01*
X932487D01*
Y1126945D01*
X932280D01*
Y1127359D01*
X932072D01*
Y1127774D01*
X931865D01*
Y1127981D01*
X931658D01*
Y1128395D01*
X931451D01*
Y1128810D01*
X931243D01*
Y1129017D01*
X931036D01*
Y1129432D01*
X930829D01*
Y1129846D01*
X930622D01*
Y1130053D01*
X930414D01*
Y1130468D01*
X930207D01*
Y1130882D01*
X930000D01*
Y1131089D01*
X929793D01*
Y1131504D01*
X929585D01*
Y1131918D01*
X929378D01*
Y1132333D01*
X929171D01*
Y1132540D01*
X928964D01*
Y1132954D01*
X928757D01*
Y1133369D01*
X928549D01*
Y1133576D01*
X928342D01*
Y1133990D01*
X928135D01*
Y1134405D01*
X927928D01*
Y1134612D01*
X927720D01*
Y1135027D01*
X927513D01*
Y1135441D01*
X927306D01*
Y1135855D01*
X927099D01*
Y1136063D01*
X926892D01*
Y1136477D01*
X926684D01*
Y1136892D01*
X926477D01*
Y1137099D01*
X926270D01*
Y1137513D01*
X926063D01*
Y1137928D01*
X925855D01*
Y1138135D01*
X925648D01*
Y1138549D01*
X925441D01*
Y1138964D01*
X925234D01*
Y1139378D01*
X925027D01*
Y1139586D01*
X924819D01*
Y1140000D01*
X924612D01*
Y1140415D01*
X924405D01*
Y1140622D01*
X924198D01*
Y1141036D01*
X923990D01*
Y1141451D01*
X923783D01*
Y1141658D01*
X923576D01*
Y1142072D01*
X923369D01*
Y1142487D01*
X923162D01*
Y1142694D01*
X922954D01*
Y1143108D01*
X922747D01*
Y1143523D01*
X922540D01*
Y1143937D01*
X922333D01*
Y1144145D01*
X922125D01*
Y1144559D01*
X921918D01*
Y1144973D01*
X921711D01*
Y1145181D01*
X921504D01*
Y1145595D01*
X921297D01*
Y1146010D01*
X921089D01*
Y1146217D01*
X920882D01*
Y1146631D01*
X920675D01*
Y1147046D01*
X920468D01*
Y1147460D01*
X920260D01*
Y1147667D01*
X920053D01*
Y1148082D01*
X919846D01*
Y1148496D01*
X919639D01*
Y1148703D01*
X919432D01*
Y1149118D01*
X919224D01*
Y1149532D01*
X919017D01*
Y1149740D01*
X918810D01*
Y1150154D01*
X918603D01*
Y1150568D01*
X918395D01*
Y1150983D01*
X918188D01*
Y1151190D01*
X917981D01*
Y1151605D01*
X917774D01*
Y1152019D01*
X917567D01*
Y1152226D01*
X917359D01*
Y1152641D01*
X917152D01*
Y1153055D01*
X916945D01*
Y1153262D01*
X916738D01*
Y1153677D01*
X916530D01*
Y1154091D01*
X916323D01*
Y1154506D01*
X916116D01*
Y1154713D01*
X915909D01*
Y1155127D01*
X915702D01*
Y1155542D01*
X915494D01*
Y1155749D01*
X915287D01*
Y1156163D01*
X915080D01*
Y1156578D01*
X914873D01*
Y1156785D01*
X914665D01*
Y1157200D01*
X914458D01*
Y1157614D01*
X914251D01*
Y1157821D01*
X914044D01*
Y1158236D01*
X913837D01*
Y1158650D01*
X913629D01*
Y1159065D01*
X913422D01*
Y1159272D01*
X913215D01*
Y1159686D01*
X913008D01*
Y1160101D01*
X912800D01*
Y1160308D01*
X912593D01*
Y1160722D01*
X912386D01*
Y1161137D01*
X912179D01*
Y1161344D01*
X911972D01*
Y1161759D01*
X911764D01*
Y1162173D01*
X911557D01*
Y1162587D01*
X911350D01*
Y1162795D01*
X911143D01*
Y1163209D01*
X910935D01*
Y1163624D01*
X910728D01*
Y1163831D01*
X910521D01*
Y1164245D01*
X910314D01*
Y1164660D01*
X910107D01*
Y1164867D01*
X909899D01*
Y1165281D01*
X909692D01*
Y1165696D01*
X909485D01*
Y1166110D01*
X909278D01*
Y1166318D01*
X909070D01*
Y1166732D01*
X908863D01*
Y1167146D01*
X908656D01*
Y1167354D01*
X908449D01*
Y1167768D01*
X908241D01*
Y1168183D01*
X908034D01*
Y1168390D01*
X907827D01*
Y1168804D01*
X907620D01*
Y1169219D01*
X907412D01*
Y1169426D01*
X907205D01*
Y1169840D01*
X906998D01*
Y1170255D01*
X906791D01*
Y1170669D01*
X906584D01*
Y1170876D01*
X906376D01*
Y1171291D01*
X906169D01*
Y1171705D01*
X905962D01*
Y1171913D01*
X905755D01*
Y1172327D01*
X905547D01*
Y1172741D01*
X905340D01*
Y1172949D01*
X905133D01*
Y1173363D01*
X904926D01*
Y1173778D01*
X904719D01*
Y1174192D01*
X904511D01*
Y1174399D01*
X904304D01*
Y1174814D01*
X904097D01*
Y1175228D01*
X903890D01*
Y1175435D01*
X903682D01*
Y1175850D01*
X903475D01*
Y1176264D01*
X903268D01*
Y1176471D01*
X903061D01*
Y1176886D01*
X902854D01*
Y1177300D01*
X902646D01*
Y1177715D01*
X902439D01*
Y1177922D01*
X902232D01*
Y1178336D01*
X902025D01*
Y1178751D01*
X901817D01*
Y1178958D01*
X901610D01*
Y1179373D01*
X901403D01*
Y1179787D01*
X901196D01*
Y1179994D01*
X900989D01*
Y1180409D01*
X900781D01*
Y1180823D01*
X900574D01*
Y1181030D01*
X900367D01*
Y1181445D01*
X900160D01*
Y1181859D01*
X899952D01*
Y1182274D01*
X899745D01*
Y1182481D01*
X899538D01*
Y1182895D01*
X899331D01*
Y1183310D01*
X899124D01*
Y1183517D01*
X898916D01*
Y1183932D01*
X898709D01*
Y1184346D01*
X898502D01*
Y1184553D01*
X898295D01*
Y1184968D01*
X898087D01*
Y1185382D01*
X897880D01*
Y1185797D01*
X897673D01*
Y1186004D01*
X897466D01*
Y1186418D01*
X897259D01*
Y1186833D01*
X897051D01*
Y1187040D01*
X896844D01*
Y1187454D01*
X896637D01*
Y1187869D01*
X896430D01*
Y1188076D01*
X896222D01*
Y1188491D01*
X896015D01*
Y1188905D01*
X895808D01*
Y1189319D01*
X895601D01*
Y1189527D01*
X895394D01*
Y1189941D01*
X895186D01*
Y1190356D01*
X894979D01*
Y1190563D01*
X894772D01*
Y1190977D01*
X894565D01*
Y1191392D01*
X894357D01*
Y1191599D01*
X894150D01*
Y1192013D01*
X893943D01*
Y1192428D01*
D02*
G37*
%LPD*%
G36*
X905755Y1163624D02*
X905962D01*
Y1163002D01*
X906169D01*
Y1162380D01*
X906376D01*
Y1161759D01*
X906584D01*
Y1161137D01*
X906791D01*
Y1160515D01*
X906998D01*
Y1159893D01*
X907205D01*
Y1159272D01*
X907412D01*
Y1158236D01*
X907205D01*
Y1158028D01*
X906998D01*
Y1157614D01*
X906791D01*
Y1157200D01*
X906584D01*
Y1156785D01*
X906376D01*
Y1156371D01*
X906169D01*
Y1155542D01*
X905962D01*
Y1154506D01*
X905755D01*
Y1151190D01*
X905962D01*
Y1149740D01*
X906169D01*
Y1148911D01*
X906376D01*
Y1148289D01*
X906584D01*
Y1147875D01*
X906791D01*
Y1147253D01*
X906998D01*
Y1146838D01*
X907205D01*
Y1146217D01*
X907412D01*
Y1145802D01*
X907620D01*
Y1145388D01*
X907827D01*
Y1144973D01*
X908034D01*
Y1144559D01*
X908241D01*
Y1144145D01*
X908449D01*
Y1143730D01*
X908656D01*
Y1143316D01*
X908863D01*
Y1142901D01*
X909070D01*
Y1142487D01*
X909278D01*
Y1142072D01*
X909485D01*
Y1141658D01*
X909692D01*
Y1141036D01*
X909899D01*
Y1140622D01*
X910107D01*
Y1140207D01*
X910314D01*
Y1139793D01*
X910521D01*
Y1139378D01*
X910728D01*
Y1138964D01*
X910935D01*
Y1138549D01*
X911143D01*
Y1137928D01*
X911350D01*
Y1137513D01*
X911557D01*
Y1137306D01*
Y1137099D01*
X911764D01*
Y1136477D01*
X911972D01*
Y1135855D01*
X912179D01*
Y1135441D01*
X912386D01*
Y1134819D01*
X912593D01*
Y1133990D01*
X912800D01*
Y1133162D01*
X913008D01*
Y1132333D01*
X913215D01*
Y1130882D01*
X913422D01*
Y1127774D01*
X913215D01*
Y1126323D01*
X913008D01*
Y1125287D01*
X912800D01*
Y1124458D01*
X912593D01*
Y1123837D01*
X912386D01*
Y1123215D01*
X912179D01*
Y1122593D01*
X911972D01*
Y1122179D01*
X911764D01*
Y1121764D01*
X911557D01*
Y1121350D01*
X911350D01*
Y1120935D01*
X911143D01*
Y1120521D01*
X910935D01*
Y1120314D01*
X910728D01*
Y1119899D01*
X910521D01*
Y1119692D01*
X910314D01*
Y1119278D01*
X910107D01*
Y1119070D01*
X909899D01*
Y1118863D01*
X909692D01*
Y1118656D01*
X909070D01*
Y1118449D01*
X907620D01*
Y1118242D01*
X906169D01*
Y1118034D01*
X904719D01*
Y1117827D01*
X903268D01*
Y1117620D01*
X902646D01*
Y1117827D01*
X902854D01*
Y1118034D01*
X903061D01*
Y1118242D01*
X903268D01*
Y1118449D01*
X903475D01*
Y1118656D01*
X903682D01*
Y1118863D01*
X903890D01*
Y1119070D01*
X904097D01*
Y1119278D01*
X904304D01*
Y1119485D01*
X904511D01*
Y1119899D01*
X904719D01*
Y1120107D01*
X904926D01*
Y1120314D01*
X905133D01*
Y1120728D01*
X905340D01*
Y1120935D01*
X905547D01*
Y1121350D01*
X905755D01*
Y1121557D01*
X905962D01*
Y1121972D01*
X906169D01*
Y1122386D01*
X906376D01*
Y1122800D01*
X906584D01*
Y1123215D01*
X906791D01*
Y1123629D01*
X906998D01*
Y1124044D01*
X907205D01*
Y1124665D01*
X907412D01*
Y1125287D01*
X907620D01*
Y1126116D01*
X907827D01*
Y1126945D01*
X908034D01*
Y1128810D01*
X908241D01*
Y1129846D01*
X908034D01*
Y1131711D01*
X907827D01*
Y1132747D01*
X907620D01*
Y1133576D01*
X907412D01*
Y1134198D01*
X907205D01*
Y1134819D01*
X906998D01*
Y1135234D01*
X906791D01*
Y1135855D01*
X906584D01*
Y1136270D01*
X906376D01*
Y1136892D01*
X906169D01*
Y1137306D01*
X905962D01*
Y1137720D01*
X905755D01*
Y1138342D01*
X905547D01*
Y1138757D01*
X905340D01*
Y1139171D01*
X905133D01*
Y1139586D01*
X904926D01*
Y1140000D01*
X904719D01*
Y1140415D01*
X904511D01*
Y1140829D01*
X904304D01*
Y1141243D01*
X904097D01*
Y1141658D01*
X903890D01*
Y1142072D01*
X903682D01*
Y1142487D01*
X903475D01*
Y1142901D01*
X903268D01*
Y1143316D01*
X903061D01*
Y1143730D01*
X902854D01*
Y1144145D01*
X902646D01*
Y1144559D01*
X902439D01*
Y1144973D01*
X902232D01*
Y1145595D01*
X902025D01*
Y1146010D01*
X901817D01*
Y1146424D01*
X901610D01*
Y1147046D01*
X901403D01*
Y1147460D01*
X901196D01*
Y1148082D01*
X900989D01*
Y1148911D01*
X900781D01*
Y1149740D01*
X900574D01*
Y1154506D01*
X900781D01*
Y1155542D01*
X900989D01*
Y1156371D01*
X901196D01*
Y1157200D01*
X901403D01*
Y1157821D01*
X901610D01*
Y1158236D01*
X901817D01*
Y1158857D01*
X902025D01*
Y1159272D01*
X902232D01*
Y1159686D01*
X902439D01*
Y1160101D01*
X902646D01*
Y1160515D01*
X902854D01*
Y1160722D01*
X903061D01*
Y1161137D01*
X903268D01*
Y1161551D01*
X903475D01*
Y1161759D01*
X903682D01*
Y1162173D01*
X903890D01*
Y1162380D01*
X904097D01*
Y1162587D01*
X904304D01*
Y1163002D01*
X904511D01*
Y1163209D01*
X904719D01*
Y1163416D01*
X904926D01*
Y1163624D01*
X905133D01*
Y1163831D01*
X905340D01*
Y1164038D01*
X905755D01*
Y1163624D01*
D02*
G37*
G36*
X893736Y1163416D02*
X893943D01*
Y1162795D01*
X894150D01*
Y1162173D01*
X894357D01*
Y1161551D01*
X894565D01*
Y1160930D01*
X894772D01*
Y1160308D01*
X894979D01*
Y1159686D01*
X895186D01*
Y1159065D01*
X895394D01*
Y1158443D01*
X895186D01*
Y1158028D01*
X894979D01*
Y1157821D01*
X894772D01*
Y1157407D01*
X894565D01*
Y1156992D01*
X894357D01*
Y1156578D01*
X894150D01*
Y1155956D01*
X893943D01*
Y1154920D01*
X893736D01*
Y1150568D01*
X893943D01*
Y1149532D01*
X894150D01*
Y1148703D01*
X894357D01*
Y1148082D01*
X894565D01*
Y1147667D01*
X894772D01*
Y1147046D01*
X894979D01*
Y1146631D01*
X895186D01*
Y1146217D01*
X895394D01*
Y1145595D01*
X895601D01*
Y1145181D01*
X895808D01*
Y1144766D01*
X896015D01*
Y1144352D01*
X896222D01*
Y1143937D01*
X896430D01*
Y1143523D01*
X896637D01*
Y1143108D01*
X896844D01*
Y1142694D01*
X897051D01*
Y1142280D01*
X897259D01*
Y1141865D01*
X897466D01*
Y1141451D01*
X897673D01*
Y1141036D01*
X897880D01*
Y1140622D01*
X898087D01*
Y1140207D01*
X898295D01*
Y1139793D01*
X898502D01*
Y1139171D01*
X898709D01*
Y1138757D01*
X898916D01*
Y1138342D01*
X899124D01*
Y1137928D01*
X899331D01*
Y1137306D01*
X899538D01*
Y1136892D01*
X899745D01*
Y1136270D01*
X899952D01*
Y1135855D01*
X900160D01*
Y1135234D01*
X900367D01*
Y1134612D01*
X900574D01*
Y1133783D01*
X900781D01*
Y1132954D01*
X900989D01*
Y1131918D01*
X901196D01*
Y1126738D01*
X900989D01*
Y1125494D01*
X900781D01*
Y1124665D01*
X900574D01*
Y1124044D01*
X900367D01*
Y1123422D01*
X900160D01*
Y1122800D01*
X899952D01*
Y1122386D01*
X899745D01*
Y1121972D01*
X899538D01*
Y1121557D01*
X899331D01*
Y1121143D01*
X899124D01*
Y1120728D01*
X898916D01*
Y1120314D01*
X898709D01*
Y1120107D01*
X898502D01*
Y1119692D01*
X898295D01*
Y1119485D01*
X898087D01*
Y1119070D01*
X897880D01*
Y1118863D01*
X897673D01*
Y1118656D01*
X897051D01*
Y1118449D01*
X895601D01*
Y1118242D01*
X894150D01*
Y1118034D01*
X892700D01*
Y1117827D01*
X891042D01*
Y1117620D01*
X890627D01*
Y1117827D01*
X890835D01*
Y1118034D01*
X891042D01*
Y1118242D01*
X891249D01*
Y1118449D01*
X891456D01*
Y1118656D01*
X891664D01*
Y1118863D01*
X891871D01*
Y1119278D01*
X892078D01*
Y1119485D01*
X892285D01*
Y1119692D01*
X892492D01*
Y1119899D01*
X892700D01*
Y1120107D01*
X892907D01*
Y1120521D01*
X893114D01*
Y1120728D01*
X893321D01*
Y1121143D01*
X893529D01*
Y1121350D01*
X893736D01*
Y1121764D01*
X893943D01*
Y1122179D01*
X894150D01*
Y1122386D01*
X894357D01*
Y1122800D01*
X894565D01*
Y1123215D01*
X894772D01*
Y1123837D01*
X894979D01*
Y1124251D01*
X895186D01*
Y1124873D01*
X895394D01*
Y1125494D01*
X895601D01*
Y1126323D01*
X895808D01*
Y1127359D01*
X896015D01*
Y1131297D01*
X895808D01*
Y1132540D01*
X895601D01*
Y1133162D01*
X895394D01*
Y1133990D01*
X895186D01*
Y1134612D01*
X894979D01*
Y1135234D01*
X894772D01*
Y1135648D01*
X894565D01*
Y1136270D01*
X894357D01*
Y1136684D01*
X894150D01*
Y1137099D01*
X893943D01*
Y1137720D01*
X893736D01*
Y1138135D01*
X893529D01*
Y1138549D01*
X893321D01*
Y1138964D01*
X893114D01*
Y1139378D01*
X892907D01*
Y1139793D01*
X892700D01*
Y1140207D01*
X892492D01*
Y1140622D01*
X892285D01*
Y1141036D01*
X892078D01*
Y1141451D01*
X891871D01*
Y1141865D01*
X891664D01*
Y1142072D01*
Y1142280D01*
X891456D01*
Y1142694D01*
X891249D01*
Y1143108D01*
X891042D01*
Y1143523D01*
X890835D01*
Y1144145D01*
X890627D01*
Y1144559D01*
X890420D01*
Y1144973D01*
X890213D01*
Y1145388D01*
X890006D01*
Y1145802D01*
X889799D01*
Y1146424D01*
X889591D01*
Y1146838D01*
X889384D01*
Y1147460D01*
X889177D01*
Y1147875D01*
X888970D01*
Y1148496D01*
X888762D01*
Y1149325D01*
X888555D01*
Y1150776D01*
X888348D01*
Y1153262D01*
X888555D01*
Y1154920D01*
X888762D01*
Y1155956D01*
X888970D01*
Y1156578D01*
X889177D01*
Y1157407D01*
X889384D01*
Y1157821D01*
X889591D01*
Y1158443D01*
X889799D01*
Y1158857D01*
X890006D01*
Y1159479D01*
X890213D01*
Y1159893D01*
X890420D01*
Y1160308D01*
X890627D01*
Y1160515D01*
X890835D01*
Y1160930D01*
X891042D01*
Y1161344D01*
X891249D01*
Y1161551D01*
X891456D01*
Y1161966D01*
X891664D01*
Y1162173D01*
X891871D01*
Y1162380D01*
X892078D01*
Y1162795D01*
X892285D01*
Y1163002D01*
X892492D01*
Y1163209D01*
X892700D01*
Y1163416D01*
X892907D01*
Y1163624D01*
X893114D01*
Y1163831D01*
X893321D01*
Y1164038D01*
X893736D01*
Y1163416D01*
D02*
G37*
G36*
X881717Y1163831D02*
X881924D01*
Y1163209D01*
X882131D01*
Y1162587D01*
X882338D01*
Y1161966D01*
X882546D01*
Y1161344D01*
X882753D01*
Y1160722D01*
X882960D01*
Y1160101D01*
X883167D01*
Y1159479D01*
X883374D01*
Y1158857D01*
X883582D01*
Y1158443D01*
X883374D01*
Y1158236D01*
X883167D01*
Y1157821D01*
X882960D01*
Y1157614D01*
X882753D01*
Y1157200D01*
X882546D01*
Y1156578D01*
X882338D01*
Y1156163D01*
X882131D01*
Y1155335D01*
X881924D01*
Y1153677D01*
X881717D01*
Y1152226D01*
X881924D01*
Y1150154D01*
X882131D01*
Y1149118D01*
X882338D01*
Y1148496D01*
X882546D01*
Y1147875D01*
X882753D01*
Y1147460D01*
X882960D01*
Y1146838D01*
X883167D01*
Y1146424D01*
X883374D01*
Y1146010D01*
X883582D01*
Y1145595D01*
X883789D01*
Y1145181D01*
X883996D01*
Y1144559D01*
X884203D01*
Y1144145D01*
X884411D01*
Y1143730D01*
X884618D01*
Y1143316D01*
X884825D01*
Y1142901D01*
X885032D01*
Y1142487D01*
X885240D01*
Y1142072D01*
X885447D01*
Y1141658D01*
X885654D01*
Y1141243D01*
X885861D01*
Y1140829D01*
X886068D01*
Y1140415D01*
X886276D01*
Y1140000D01*
X886483D01*
Y1139586D01*
X886690D01*
Y1139171D01*
X886897D01*
Y1138549D01*
X887105D01*
Y1138135D01*
X887312D01*
Y1137720D01*
X887519D01*
Y1137099D01*
X887726D01*
Y1136684D01*
X887934D01*
Y1136063D01*
X888141D01*
Y1135648D01*
X888348D01*
Y1135027D01*
X888555D01*
Y1134198D01*
X888762D01*
Y1133576D01*
X888970D01*
Y1132747D01*
X889177D01*
Y1131504D01*
X889384D01*
Y1127152D01*
X889177D01*
Y1125909D01*
X888970D01*
Y1125080D01*
X888762D01*
Y1124251D01*
X888555D01*
Y1123629D01*
X888348D01*
Y1123008D01*
X888141D01*
Y1122800D01*
Y1122593D01*
X887934D01*
Y1121972D01*
X887726D01*
Y1121557D01*
X887519D01*
Y1121143D01*
X887312D01*
Y1120728D01*
X887105D01*
Y1120521D01*
X886897D01*
Y1120107D01*
X886690D01*
Y1119899D01*
X886483D01*
Y1119485D01*
X886276D01*
Y1119278D01*
X886068D01*
Y1119070D01*
X885861D01*
Y1118656D01*
X885032D01*
Y1118449D01*
X883582D01*
Y1118242D01*
X882131D01*
Y1118034D01*
X880681D01*
Y1117827D01*
X879230D01*
Y1117620D01*
X878816D01*
Y1118034D01*
X879023D01*
Y1118242D01*
X879230D01*
Y1118449D01*
X879437D01*
Y1118656D01*
X879644D01*
Y1118863D01*
X879852D01*
Y1119070D01*
X880059D01*
Y1119278D01*
X880266D01*
Y1119485D01*
X880473D01*
Y1119692D01*
X880681D01*
Y1120107D01*
X880888D01*
Y1120314D01*
X881095D01*
Y1120521D01*
X881302D01*
Y1120935D01*
X881509D01*
Y1121143D01*
X881717D01*
Y1121557D01*
X881924D01*
Y1121764D01*
X882131D01*
Y1122179D01*
X882338D01*
Y1122593D01*
X882546D01*
Y1123008D01*
X882753D01*
Y1123422D01*
X882960D01*
Y1123837D01*
X883167D01*
Y1124458D01*
X883374D01*
Y1125080D01*
X883582D01*
Y1125702D01*
X883789D01*
Y1126530D01*
X883996D01*
Y1127981D01*
X884203D01*
Y1130882D01*
X883996D01*
Y1132125D01*
X883789D01*
Y1132954D01*
X883582D01*
Y1133783D01*
X883374D01*
Y1134405D01*
X883167D01*
Y1135027D01*
X882960D01*
Y1135441D01*
X882753D01*
Y1136063D01*
X882546D01*
Y1136477D01*
X882338D01*
Y1137099D01*
X882131D01*
Y1137513D01*
X881924D01*
Y1137928D01*
X881717D01*
Y1138342D01*
X881509D01*
Y1138757D01*
X881302D01*
Y1139171D01*
X881095D01*
Y1139793D01*
X880888D01*
Y1140207D01*
X880681D01*
Y1140622D01*
X880473D01*
Y1141036D01*
X880266D01*
Y1141451D01*
X880059D01*
Y1141865D01*
X879852D01*
Y1142280D01*
X879644D01*
Y1142694D01*
X879437D01*
Y1143108D01*
X879230D01*
Y1143523D01*
X879023D01*
Y1143937D01*
X878816D01*
Y1144352D01*
X878608D01*
Y1144766D01*
X878401D01*
Y1145181D01*
X878194D01*
Y1145595D01*
X877987D01*
Y1146217D01*
X877779D01*
Y1146631D01*
X877572D01*
Y1147253D01*
X877365D01*
Y1147667D01*
X877158D01*
Y1148289D01*
X876951D01*
Y1149118D01*
X876743D01*
Y1150154D01*
X876536D01*
Y1153884D01*
X876743D01*
Y1155127D01*
X876951D01*
Y1156163D01*
X877158D01*
Y1156992D01*
X877365D01*
Y1157614D01*
X877572D01*
Y1158028D01*
X877779D01*
Y1158650D01*
X877987D01*
Y1159065D01*
X878194D01*
Y1159479D01*
X878401D01*
Y1159893D01*
X878608D01*
Y1160308D01*
X878816D01*
Y1160722D01*
X879023D01*
Y1161137D01*
X879230D01*
Y1161344D01*
X879437D01*
Y1161759D01*
X879644D01*
Y1161966D01*
X879852D01*
Y1162173D01*
X880059D01*
Y1162587D01*
X880266D01*
Y1162795D01*
X880473D01*
Y1163002D01*
X880681D01*
Y1163416D01*
X880888D01*
Y1163624D01*
X881095D01*
Y1163831D01*
X881302D01*
Y1164038D01*
X881509D01*
Y1164245D01*
X881717D01*
Y1163831D01*
D02*
G37*
G36*
X920468Y1108502D02*
X867833D01*
Y1115133D01*
X920468D01*
Y1108502D01*
D02*
G37*
%LPC*%
G36*
X1159995Y1198275D02*
X1159365D01*
Y1197645D01*
X1159050D01*
Y1197330D01*
X1158735D01*
Y1196700D01*
X1158420D01*
Y1196070D01*
X1158105D01*
Y1195440D01*
X1157790D01*
Y1195125D01*
X1157475D01*
Y1194495D01*
X1157160D01*
Y1193865D01*
X1156845D01*
Y1193550D01*
X1156530D01*
Y1192920D01*
X1156215D01*
Y1192605D01*
Y1192290D01*
X1155900D01*
Y1191660D01*
X1155585D01*
Y1191345D01*
X1155270D01*
Y1190715D01*
X1154955D01*
Y1190085D01*
X1154640D01*
Y1189455D01*
X1154325D01*
Y1189140D01*
X1154010D01*
Y1188510D01*
X1153695D01*
Y1187880D01*
X1153380D01*
Y1187250D01*
X1153065D01*
Y1186935D01*
X1152750D01*
Y1186305D01*
X1152435D01*
Y1185675D01*
X1152120D01*
Y1185045D01*
X1151805D01*
Y1184730D01*
X1151490D01*
Y1184100D01*
X1151175D01*
Y1183470D01*
X1150860D01*
Y1183155D01*
X1150545D01*
Y1182525D01*
X1150230D01*
Y1181895D01*
X1149915D01*
Y1181265D01*
X1149600D01*
Y1180950D01*
X1149285D01*
Y1180320D01*
X1148970D01*
Y1179690D01*
X1148655D01*
Y1179060D01*
X1148340D01*
Y1178745D01*
X1148025D01*
Y1178115D01*
X1147710D01*
Y1177485D01*
X1147395D01*
Y1176855D01*
X1147080D01*
Y1176540D01*
X1146765D01*
Y1175910D01*
X1146450D01*
Y1175280D01*
X1146135D01*
Y1174650D01*
X1145820D01*
Y1174335D01*
X1145505D01*
Y1173705D01*
X1145190D01*
Y1173075D01*
X1144875D01*
Y1172445D01*
X1144560D01*
Y1172130D01*
X1144245D01*
Y1171500D01*
X1143930D01*
Y1170870D01*
X1143615D01*
Y1170240D01*
X1143300D01*
Y1169925D01*
X1142985D01*
Y1169295D01*
X1142670D01*
Y1168665D01*
X1142355D01*
Y1168350D01*
X1142040D01*
Y1167720D01*
X1141725D01*
Y1167090D01*
X1141410D01*
Y1166460D01*
X1141095D01*
Y1166145D01*
X1140780D01*
Y1165515D01*
X1140465D01*
Y1164885D01*
X1140150D01*
Y1164255D01*
X1139835D01*
Y1163940D01*
X1139520D01*
Y1163310D01*
X1139205D01*
Y1162680D01*
X1138890D01*
Y1162050D01*
X1138575D01*
Y1161735D01*
X1138260D01*
Y1161105D01*
X1137945D01*
Y1160475D01*
X1137630D01*
Y1159845D01*
X1137315D01*
Y1159530D01*
X1137000D01*
Y1158900D01*
X1136685D01*
Y1158270D01*
X1136370D01*
Y1157640D01*
X1136055D01*
Y1157325D01*
X1135740D01*
Y1156695D01*
X1135425D01*
Y1156065D01*
X1135110D01*
Y1155435D01*
X1134795D01*
Y1155120D01*
X1134480D01*
Y1154490D01*
X1134165D01*
Y1153860D01*
X1133850D01*
Y1153545D01*
X1133535D01*
Y1152915D01*
X1133220D01*
Y1152285D01*
X1132905D01*
Y1151655D01*
X1132590D01*
Y1151340D01*
X1132275D01*
Y1150710D01*
X1131960D01*
Y1150080D01*
X1131645D01*
Y1149450D01*
X1131330D01*
Y1149135D01*
X1131015D01*
Y1148505D01*
X1130700D01*
Y1147875D01*
X1130385D01*
Y1147245D01*
X1130070D01*
Y1146930D01*
X1129755D01*
Y1146300D01*
X1129440D01*
Y1145670D01*
X1129125D01*
Y1145040D01*
X1128810D01*
Y1144725D01*
X1128495D01*
Y1144095D01*
X1128180D01*
Y1143465D01*
X1127865D01*
Y1143150D01*
X1127550D01*
Y1142520D01*
X1127235D01*
Y1141890D01*
X1126920D01*
Y1141260D01*
X1126605D01*
Y1140945D01*
X1126290D01*
Y1140315D01*
X1125975D01*
Y1139685D01*
X1125660D01*
Y1139055D01*
X1125345D01*
Y1138740D01*
X1125030D01*
Y1138110D01*
X1124715D01*
Y1137480D01*
X1124400D01*
Y1136850D01*
X1124085D01*
Y1136535D01*
X1123770D01*
Y1135905D01*
X1123455D01*
Y1135275D01*
X1123140D01*
Y1134645D01*
X1122825D01*
Y1134330D01*
X1122510D01*
Y1133700D01*
X1122195D01*
Y1133070D01*
X1121880D01*
Y1132440D01*
X1121565D01*
Y1132125D01*
X1121250D01*
Y1131495D01*
X1120935D01*
Y1130865D01*
X1120620D01*
Y1130235D01*
X1120305D01*
Y1129920D01*
X1119990D01*
Y1129290D01*
X1119675D01*
Y1128660D01*
X1119360D01*
Y1128345D01*
X1119045D01*
Y1127715D01*
X1118730D01*
Y1127085D01*
X1118415D01*
Y1126455D01*
X1118100D01*
Y1126140D01*
X1117785D01*
Y1125510D01*
X1117470D01*
Y1124880D01*
X1117155D01*
Y1124250D01*
X1116840D01*
Y1123935D01*
X1116525D01*
Y1123305D01*
X1116210D01*
Y1122675D01*
X1115895D01*
Y1122045D01*
X1115580D01*
Y1121730D01*
X1115265D01*
Y1121100D01*
X1114950D01*
Y1120470D01*
X1114635D01*
Y1119840D01*
X1114320D01*
Y1119525D01*
X1114005D01*
Y1118895D01*
X1113690D01*
Y1118265D01*
X1113375D01*
Y1117635D01*
X1113060D01*
Y1117320D01*
X1112745D01*
Y1116690D01*
X1112430D01*
Y1116060D01*
X1112115D01*
Y1115430D01*
X1111800D01*
Y1115115D01*
X1111485D01*
Y1114485D01*
X1111170D01*
Y1113855D01*
X1110855D01*
Y1113225D01*
X1110540D01*
Y1112910D01*
X1110225D01*
Y1112280D01*
X1109910D01*
Y1111650D01*
X1109595D01*
Y1111335D01*
X1109280D01*
Y1110705D01*
X1108965D01*
Y1110075D01*
X1108650D01*
Y1109445D01*
X1108335D01*
Y1109130D01*
X1108020D01*
Y1108500D01*
X1107705D01*
Y1107870D01*
X1107390D01*
Y1107240D01*
X1107075D01*
Y1106925D01*
X1106760D01*
Y1106295D01*
X1106445D01*
Y1105665D01*
X1106130D01*
Y1105035D01*
X1105815D01*
Y1104720D01*
X1105500D01*
Y1104090D01*
X1105185D01*
Y1103460D01*
X1104870D01*
Y1102830D01*
X1104555D01*
Y1102515D01*
X1104240D01*
Y1101885D01*
X1103925D01*
Y1101255D01*
X1103610D01*
Y1100310D01*
X1214490D01*
Y1100625D01*
X1214805D01*
Y1101255D01*
X1214490D01*
Y1101885D01*
X1214175D01*
Y1102515D01*
X1213860D01*
Y1103145D01*
X1213545D01*
Y1103460D01*
X1213230D01*
Y1104090D01*
X1212915D01*
Y1104720D01*
X1212600D01*
Y1105350D01*
X1212285D01*
Y1105980D01*
X1211970D01*
Y1106295D01*
X1211655D01*
Y1106925D01*
X1211340D01*
Y1107555D01*
X1211025D01*
Y1108185D01*
X1210710D01*
Y1108500D01*
X1210395D01*
Y1109130D01*
X1210080D01*
Y1109760D01*
X1209765D01*
Y1110390D01*
X1209450D01*
Y1111020D01*
X1209135D01*
Y1111335D01*
X1208820D01*
Y1111965D01*
X1208505D01*
Y1112595D01*
X1208190D01*
Y1113225D01*
X1207875D01*
Y1113540D01*
X1207560D01*
Y1114170D01*
X1207245D01*
Y1114800D01*
X1206930D01*
Y1115430D01*
X1206615D01*
Y1115745D01*
X1206300D01*
Y1116375D01*
X1205985D01*
Y1117005D01*
X1205670D01*
Y1117635D01*
X1205355D01*
Y1118265D01*
X1205040D01*
Y1118580D01*
X1204725D01*
Y1119210D01*
X1204410D01*
Y1119840D01*
X1204095D01*
Y1120470D01*
X1203780D01*
Y1120785D01*
X1203465D01*
Y1121415D01*
X1203150D01*
Y1122045D01*
X1202835D01*
Y1122675D01*
X1202520D01*
Y1123305D01*
X1202205D01*
Y1123620D01*
X1201890D01*
Y1124250D01*
X1201575D01*
Y1124880D01*
X1201260D01*
Y1125510D01*
X1200945D01*
Y1125825D01*
X1200630D01*
Y1126455D01*
X1200315D01*
Y1127085D01*
X1200000D01*
Y1127715D01*
X1199685D01*
Y1128030D01*
X1199370D01*
Y1128660D01*
X1199055D01*
Y1129290D01*
X1198740D01*
Y1129920D01*
X1198425D01*
Y1130550D01*
X1198110D01*
Y1130865D01*
X1197795D01*
Y1131495D01*
X1197480D01*
Y1132125D01*
X1197165D01*
Y1132755D01*
X1196850D01*
Y1133070D01*
X1196535D01*
Y1133700D01*
X1196220D01*
Y1134330D01*
X1195905D01*
Y1134960D01*
X1195590D01*
Y1135275D01*
X1195275D01*
Y1135905D01*
X1194960D01*
Y1136535D01*
X1194645D01*
Y1137165D01*
X1194330D01*
Y1137795D01*
X1194015D01*
Y1138110D01*
X1193700D01*
Y1138740D01*
X1193385D01*
Y1139370D01*
X1193070D01*
Y1140000D01*
X1192755D01*
Y1140630D01*
X1192440D01*
Y1140945D01*
X1192125D01*
Y1141575D01*
X1191810D01*
Y1142205D01*
X1191495D01*
Y1142835D01*
X1191180D01*
Y1143150D01*
X1190865D01*
Y1143780D01*
X1190550D01*
Y1144410D01*
X1190235D01*
Y1145040D01*
X1189920D01*
Y1145355D01*
X1189605D01*
Y1145985D01*
X1189290D01*
Y1146615D01*
X1188975D01*
Y1147245D01*
X1188660D01*
Y1147560D01*
X1188345D01*
Y1148190D01*
X1188030D01*
Y1148820D01*
X1187715D01*
Y1149450D01*
X1187400D01*
Y1149765D01*
X1187085D01*
Y1150395D01*
X1186770D01*
Y1151025D01*
X1186455D01*
Y1151655D01*
X1186140D01*
Y1152285D01*
X1185825D01*
Y1152600D01*
X1185510D01*
Y1153230D01*
X1185195D01*
Y1153860D01*
X1184880D01*
Y1154490D01*
X1184565D01*
Y1154805D01*
X1184250D01*
Y1155435D01*
X1183935D01*
Y1156065D01*
X1183620D01*
Y1156695D01*
X1183305D01*
Y1157325D01*
X1182990D01*
Y1157640D01*
X1182675D01*
Y1158270D01*
X1182360D01*
Y1158900D01*
X1182045D01*
Y1159530D01*
X1181730D01*
Y1160160D01*
X1181415D01*
Y1160475D01*
X1181100D01*
Y1161105D01*
X1180785D01*
Y1161735D01*
X1180470D01*
Y1162365D01*
X1180155D01*
Y1162680D01*
X1179840D01*
Y1163310D01*
X1179525D01*
Y1163940D01*
X1179210D01*
Y1164570D01*
X1178895D01*
Y1164885D01*
X1178580D01*
Y1165515D01*
X1178265D01*
Y1166145D01*
X1177950D01*
Y1166775D01*
X1177635D01*
Y1167405D01*
X1177320D01*
Y1167720D01*
X1177005D01*
Y1168350D01*
X1176690D01*
Y1168980D01*
X1176375D01*
Y1169610D01*
X1176060D01*
Y1169925D01*
X1175745D01*
Y1170555D01*
X1175430D01*
Y1171185D01*
X1175115D01*
Y1171815D01*
X1174800D01*
Y1172130D01*
X1174485D01*
Y1172760D01*
X1174170D01*
Y1173390D01*
X1173855D01*
Y1174020D01*
X1173540D01*
Y1174650D01*
X1173225D01*
Y1174965D01*
X1172910D01*
Y1175595D01*
X1172595D01*
Y1176225D01*
X1172280D01*
Y1176855D01*
X1171965D01*
Y1177170D01*
X1171650D01*
Y1177800D01*
X1171335D01*
Y1178430D01*
X1171020D01*
Y1179060D01*
X1170705D01*
Y1179690D01*
X1170390D01*
Y1180005D01*
X1170075D01*
Y1180635D01*
X1169760D01*
Y1181265D01*
X1169445D01*
Y1181895D01*
X1169130D01*
Y1182210D01*
X1168815D01*
Y1182840D01*
X1168500D01*
Y1183470D01*
X1168185D01*
Y1184100D01*
X1167870D01*
Y1184730D01*
X1167555D01*
Y1185045D01*
X1167240D01*
Y1185675D01*
X1166925D01*
Y1186305D01*
X1166610D01*
Y1186935D01*
X1166295D01*
Y1187250D01*
X1165980D01*
Y1187880D01*
X1165665D01*
Y1188510D01*
X1165350D01*
Y1189140D01*
X1165035D01*
Y1189455D01*
X1164720D01*
Y1190085D01*
X1164405D01*
Y1190715D01*
X1164090D01*
Y1191345D01*
X1163775D01*
Y1191660D01*
X1163460D01*
Y1192290D01*
X1163145D01*
Y1192920D01*
X1162830D01*
Y1193550D01*
X1162515D01*
Y1194180D01*
X1162200D01*
Y1194495D01*
X1161885D01*
Y1195125D01*
X1161570D01*
Y1195755D01*
X1161255D01*
Y1196385D01*
X1160940D01*
Y1197015D01*
X1160625D01*
Y1197330D01*
X1160310D01*
Y1197960D01*
X1159995D01*
Y1198275D01*
D02*
G37*
%LPD*%
G36*
X1164090Y1177170D02*
X1163775D01*
Y1176225D01*
X1163460D01*
Y1175595D01*
X1163145D01*
Y1174650D01*
X1162830D01*
Y1173705D01*
X1162515D01*
Y1173075D01*
X1162200D01*
Y1172130D01*
X1161885D01*
Y1171500D01*
X1161570D01*
Y1170555D01*
X1161255D01*
Y1169610D01*
X1160940D01*
Y1168980D01*
X1160625D01*
Y1168035D01*
X1160310D01*
Y1167090D01*
X1159995D01*
Y1166460D01*
X1159680D01*
Y1165515D01*
X1159365D01*
Y1164885D01*
X1159050D01*
Y1163940D01*
X1158735D01*
Y1162995D01*
X1158420D01*
Y1162365D01*
X1158105D01*
Y1161420D01*
X1157790D01*
Y1160475D01*
X1157475D01*
Y1159845D01*
X1157160D01*
Y1158900D01*
X1156845D01*
Y1158270D01*
X1156530D01*
Y1157325D01*
X1156215D01*
Y1156380D01*
X1155900D01*
Y1155750D01*
X1155585D01*
Y1154805D01*
X1155270D01*
Y1153860D01*
X1154955D01*
Y1153230D01*
X1154640D01*
Y1152285D01*
X1154325D01*
Y1151655D01*
X1154010D01*
Y1150710D01*
X1153695D01*
Y1149765D01*
X1153380D01*
Y1149135D01*
X1153065D01*
Y1148190D01*
X1152750D01*
Y1147875D01*
X1153695D01*
Y1148190D01*
X1154640D01*
Y1148505D01*
X1155270D01*
Y1148820D01*
X1156215D01*
Y1149135D01*
X1157160D01*
Y1149450D01*
X1158105D01*
Y1149765D01*
X1158735D01*
Y1150080D01*
X1159680D01*
Y1150395D01*
X1160625D01*
Y1150710D01*
X1161570D01*
Y1151025D01*
X1162200D01*
Y1151340D01*
X1163145D01*
Y1151655D01*
X1164090D01*
Y1151970D01*
X1165035D01*
Y1152285D01*
X1165665D01*
Y1152600D01*
X1166610D01*
Y1152915D01*
X1167555D01*
Y1153230D01*
X1168500D01*
Y1153545D01*
X1169130D01*
Y1153860D01*
X1170075D01*
Y1154175D01*
X1171020D01*
Y1154490D01*
X1171965D01*
Y1154805D01*
X1172595D01*
Y1155120D01*
X1172910D01*
Y1154175D01*
X1172595D01*
Y1153545D01*
X1172280D01*
Y1152915D01*
X1171965D01*
Y1151970D01*
X1171650D01*
Y1151340D01*
X1171335D01*
Y1150710D01*
X1171020D01*
Y1149765D01*
X1170705D01*
Y1149135D01*
X1170390D01*
Y1148505D01*
X1170075D01*
Y1147875D01*
X1169760D01*
Y1146930D01*
X1169445D01*
Y1146300D01*
X1169130D01*
Y1145670D01*
X1168815D01*
Y1144725D01*
X1168500D01*
Y1144095D01*
X1168185D01*
Y1143465D01*
X1167870D01*
Y1142520D01*
X1167555D01*
Y1141890D01*
X1167240D01*
Y1141260D01*
X1166925D01*
Y1140630D01*
X1166610D01*
Y1139685D01*
X1166295D01*
Y1139055D01*
X1165980D01*
Y1138425D01*
X1165665D01*
Y1137480D01*
X1165350D01*
Y1136850D01*
X1165035D01*
Y1136220D01*
X1164720D01*
Y1135275D01*
X1164405D01*
Y1134645D01*
X1164090D01*
Y1134015D01*
X1163775D01*
Y1133070D01*
X1163460D01*
Y1132440D01*
X1163145D01*
Y1131810D01*
X1162830D01*
Y1131180D01*
X1162515D01*
Y1130235D01*
X1162200D01*
Y1129605D01*
X1161885D01*
Y1128975D01*
X1161570D01*
Y1128030D01*
X1161255D01*
Y1127400D01*
X1160940D01*
Y1126770D01*
X1160625D01*
Y1125825D01*
X1160310D01*
Y1125195D01*
X1159995D01*
Y1124565D01*
X1159680D01*
Y1123935D01*
X1159365D01*
Y1122990D01*
X1159050D01*
Y1122360D01*
X1158735D01*
Y1121730D01*
X1158420D01*
Y1120785D01*
X1158105D01*
Y1120155D01*
X1157790D01*
Y1119525D01*
X1157475D01*
Y1119210D01*
X1163775D01*
Y1118580D01*
X1163460D01*
Y1118265D01*
X1163145D01*
Y1117950D01*
X1162830D01*
Y1117635D01*
X1162515D01*
Y1117320D01*
X1162200D01*
Y1116690D01*
X1161885D01*
Y1116375D01*
X1161570D01*
Y1116060D01*
X1161255D01*
Y1115430D01*
X1160940D01*
Y1115115D01*
X1160625D01*
Y1114800D01*
X1160310D01*
Y1114485D01*
X1159995D01*
Y1113855D01*
X1159680D01*
Y1113540D01*
X1159365D01*
Y1113225D01*
X1159050D01*
Y1112910D01*
X1158735D01*
Y1112280D01*
X1158420D01*
Y1111965D01*
X1158105D01*
Y1111650D01*
X1157790D01*
Y1111335D01*
X1157475D01*
Y1110705D01*
X1157160D01*
Y1110390D01*
X1156845D01*
Y1110075D01*
X1156530D01*
Y1109760D01*
X1156215D01*
Y1109130D01*
X1155900D01*
Y1108815D01*
X1155585D01*
Y1108500D01*
X1155270D01*
Y1108185D01*
X1154955D01*
Y1107555D01*
X1154640D01*
Y1107240D01*
X1154325D01*
Y1106925D01*
X1154010D01*
Y1106610D01*
X1153695D01*
Y1105980D01*
X1153380D01*
Y1105665D01*
X1153065D01*
Y1105350D01*
X1152750D01*
Y1105035D01*
X1152435D01*
Y1104405D01*
X1151805D01*
Y1105980D01*
X1151490D01*
Y1107555D01*
X1151175D01*
Y1109130D01*
X1150860D01*
Y1110705D01*
X1150545D01*
Y1112280D01*
X1150230D01*
Y1113540D01*
X1149915D01*
Y1115115D01*
X1149600D01*
Y1117005D01*
X1149285D01*
Y1118265D01*
X1148970D01*
Y1119840D01*
X1148655D01*
Y1121415D01*
X1148340D01*
Y1122990D01*
X1148025D01*
Y1123935D01*
X1148340D01*
Y1123620D01*
X1148655D01*
Y1123305D01*
X1149285D01*
Y1122990D01*
X1149600D01*
Y1122675D01*
X1149915D01*
Y1122360D01*
X1150230D01*
Y1122045D01*
X1150860D01*
Y1121730D01*
X1151175D01*
Y1121415D01*
X1151805D01*
Y1121100D01*
X1152120D01*
Y1120785D01*
X1152435D01*
Y1120470D01*
X1153065D01*
Y1120155D01*
X1153380D01*
Y1121100D01*
X1153695D01*
Y1121730D01*
X1154010D01*
Y1122675D01*
X1154325D01*
Y1123305D01*
X1154640D01*
Y1124250D01*
X1154955D01*
Y1124880D01*
X1155270D01*
Y1125825D01*
X1155585D01*
Y1126770D01*
X1155900D01*
Y1127715D01*
X1156215D01*
Y1128345D01*
X1156530D01*
Y1129290D01*
X1156845D01*
Y1129920D01*
X1157160D01*
Y1130865D01*
X1157475D01*
Y1131810D01*
X1157790D01*
Y1132755D01*
X1158105D01*
Y1133385D01*
X1158420D01*
Y1134330D01*
X1158735D01*
Y1135275D01*
X1159050D01*
Y1135905D01*
X1159365D01*
Y1136850D01*
X1159680D01*
Y1137795D01*
X1159995D01*
Y1138425D01*
X1160310D01*
Y1139370D01*
X1160625D01*
Y1140315D01*
X1160940D01*
Y1140945D01*
X1161255D01*
Y1141890D01*
X1161570D01*
Y1142835D01*
X1161885D01*
Y1143465D01*
X1162200D01*
Y1144410D01*
X1162515D01*
Y1145355D01*
X1161885D01*
Y1145040D01*
X1161255D01*
Y1144725D01*
X1160310D01*
Y1144410D01*
X1159365D01*
Y1144095D01*
X1158420D01*
Y1143780D01*
X1157475D01*
Y1143465D01*
X1156530D01*
Y1143150D01*
X1155585D01*
Y1142835D01*
X1154955D01*
Y1142520D01*
X1154010D01*
Y1142205D01*
X1153065D01*
Y1141890D01*
X1152120D01*
Y1141575D01*
X1151175D01*
Y1141260D01*
X1150230D01*
Y1140945D01*
X1149600D01*
Y1140630D01*
X1148655D01*
Y1140315D01*
X1147710D01*
Y1140000D01*
X1146765D01*
Y1139685D01*
X1145820D01*
Y1139370D01*
X1145505D01*
Y1140315D01*
X1145820D01*
Y1141890D01*
X1146135D01*
Y1143780D01*
X1146450D01*
Y1145355D01*
X1146765D01*
Y1146930D01*
X1147080D01*
Y1148820D01*
X1147395D01*
Y1150710D01*
X1147710D01*
Y1152285D01*
X1148025D01*
Y1154175D01*
X1148340D01*
Y1155750D01*
X1148655D01*
Y1157640D01*
X1148970D01*
Y1159530D01*
X1149285D01*
Y1161105D01*
X1149600D01*
Y1162995D01*
X1149915D01*
Y1164570D01*
X1150230D01*
Y1166460D01*
X1150545D01*
Y1168035D01*
X1150860D01*
Y1169925D01*
X1151175D01*
Y1171500D01*
X1151490D01*
Y1173390D01*
X1151805D01*
Y1174965D01*
X1152120D01*
Y1176855D01*
X1152435D01*
Y1178115D01*
X1164090D01*
Y1177170D01*
D02*
G37*
%LPC*%
G36*
X725622Y542426D02*
X725454D01*
Y541920D01*
X725285D01*
Y541413D01*
X725116D01*
Y540907D01*
X724947D01*
Y540401D01*
X724779D01*
Y539894D01*
X724610D01*
Y539219D01*
X726635D01*
Y539726D01*
X726466D01*
Y540232D01*
X726298D01*
Y540738D01*
X726129D01*
Y541245D01*
X725960D01*
Y541751D01*
X725791D01*
Y542257D01*
X725622D01*
Y542426D01*
D02*
G37*
%LPD*%
D10*
X1250400Y559800D02*
G03*
X1250400Y559800I-1250J0D01*
G01*
X740407Y662102D02*
G03*
X740407Y662102I-1250J0D01*
G01*
X883250Y676000D02*
G03*
X883250Y676000I-1250J0D01*
G01*
X1274250Y588500D02*
G03*
X1274250Y588500I-1250J0D01*
G01*
X1303500Y799750D02*
G03*
X1303500Y799750I-1250J0D01*
G01*
X936650Y972500D02*
G03*
X936650Y972500I-1250J0D01*
G01*
X1204200Y956500D02*
G03*
X1204200Y956500I-1250J0D01*
G01*
X1264500Y661500D02*
G03*
X1264500Y661500I-1250J0D01*
G01*
X996750Y619450D02*
G03*
X996750Y619450I-1250J0D01*
G01*
D11*
X873750Y752720D02*
G03*
X873750Y752720I-500J0D01*
G01*
X900250Y739280D02*
G03*
X900250Y739280I-500J0D01*
G01*
X908750Y752720D02*
G03*
X908750Y752720I-500J0D01*
G01*
X935250Y739280D02*
G03*
X935250Y739280I-500J0D01*
G01*
X920250Y629280D02*
G03*
X920250Y629280I-500J0D01*
G01*
X923750Y642720D02*
G03*
X923750Y642720I-500J0D01*
G01*
X1392621Y665371D02*
G03*
X1392621Y665371I-500J0D01*
G01*
X1407621D02*
G03*
X1407621Y665371I-500J0D01*
G01*
X1259121Y786871D02*
G03*
X1259121Y786871I-500J0D01*
G01*
X1311621D02*
G03*
X1311621Y786871I-500J0D01*
G01*
D12*
X955500Y937750D02*
G03*
X955500Y937750I-2500J0D01*
G01*
D13*
X1195500Y934000D02*
G03*
X1195500Y934000I-3000J0D01*
G01*
X1258000Y639500D02*
G03*
X1258000Y639500I-3000J0D01*
G01*
X1024750Y607500D02*
G03*
X1024750Y607500I-3000J0D01*
G01*
D14*
X1001500Y972000D02*
Y978000D01*
X1018500Y972000D02*
Y978000D01*
X1001500Y1019000D02*
Y1025000D01*
X1018500Y1019000D02*
Y1025000D01*
X1001500Y1066000D02*
Y1072000D01*
X1018500Y1066000D02*
Y1072000D01*
X1330450Y474250D02*
Y488250D01*
Y513750D02*
Y528550D01*
X1233150Y474250D02*
X1330450D01*
X1233150D02*
Y488250D01*
Y513750D02*
Y528550D01*
X757810Y674758D02*
X766242Y683190D01*
X771758Y660810D02*
X780190Y669242D01*
X701560Y731008D02*
X709992Y739440D01*
X715508Y717060D02*
X723940Y725492D01*
X733500Y665637D02*
X734582Y666719D01*
X732418D02*
X733500Y665637D01*
X702387Y696750D02*
X703469Y695668D01*
X702387Y696750D02*
X703469Y697832D01*
X732418Y726781D02*
X733500Y727863D01*
X734582Y726781D01*
X763531Y695668D02*
X764613Y696750D01*
X763531Y697832D02*
X764613Y696750D01*
X925500Y684500D02*
Y697500D01*
X882500Y684500D02*
Y697500D01*
X925500D01*
X882500Y684500D02*
X925500D01*
X1275500Y602750D02*
X1306500D01*
X1275500Y597500D02*
X1306500D01*
Y602750D01*
X1275500Y597500D02*
Y602750D01*
X1383000Y648000D02*
Y654000D01*
X1389000Y648000D02*
Y654000D01*
X1398000Y648000D02*
Y654000D01*
X1404000Y648000D02*
Y654000D01*
X1268500Y833000D02*
X1291500D01*
X1268500Y802000D02*
X1291500D01*
X1268500D02*
Y833000D01*
X1291500Y802000D02*
Y833000D01*
X1249500Y769500D02*
Y775500D01*
X1255500Y769500D02*
Y775500D01*
X1302000Y769500D02*
Y775500D01*
X1308000Y769500D02*
Y775500D01*
X962500Y873250D02*
Y946750D01*
X857500Y873250D02*
X962500D01*
X857500D02*
Y946750D01*
X962500D01*
X1097500Y876000D02*
Y944000D01*
X1202500Y876000D02*
Y944000D01*
X1097500Y876000D02*
X1202500D01*
X1097500Y944000D02*
X1202500D01*
X1047000Y970000D02*
Y980000D01*
X1033000Y970000D02*
Y980000D01*
X1047000Y1017000D02*
Y1027000D01*
X1033000Y1017000D02*
Y1027000D01*
X1047000Y1064000D02*
Y1074000D01*
X1033000Y1064000D02*
Y1074000D01*
X1284000Y1045000D02*
X1306000D01*
X1260000Y999000D02*
Y1021000D01*
X1284000Y975000D02*
X1306000D01*
X1330000Y999000D02*
Y1021000D01*
X1284000Y1175000D02*
X1306000D01*
X1260000Y1129000D02*
Y1151000D01*
X1284000Y1105000D02*
X1306000D01*
X1330000Y1129000D02*
Y1151000D01*
X790000Y999000D02*
Y1021000D01*
X744000Y975000D02*
X766000D01*
X720000Y999000D02*
Y1021000D01*
X744000Y1045000D02*
X766000D01*
X744000Y1175000D02*
X766000D01*
X720000Y1129000D02*
Y1151000D01*
X744000Y1105000D02*
X766000D01*
X790000Y1129000D02*
Y1151000D01*
X1161000Y649500D02*
X1265000D01*
X1161000Y602500D02*
X1265000D01*
Y649500D01*
X1161000Y602500D02*
Y649500D01*
X617250Y645750D02*
X652750D01*
X617250Y712250D02*
X652750D01*
Y645750D02*
Y712250D01*
X617250Y645750D02*
Y712250D01*
X1377500Y775300D02*
Y830100D01*
X1442500D01*
Y775300D02*
Y830100D01*
X1377500Y775300D02*
X1442500D01*
X1011750Y514500D02*
Y617500D01*
X1072250Y514500D02*
Y617500D01*
X1011750D02*
X1072250D01*
X1011750Y514500D02*
X1072250D01*
D15*
X750000Y860000D02*
X790000D01*
Y820000D02*
Y860000D01*
X750000Y820000D02*
X790000D01*
X750000D02*
Y860000D01*
X710000D02*
X750000D01*
Y820000D02*
Y860000D01*
X710000Y820000D02*
X750000D01*
X710000D02*
Y860000D01*
X670000D02*
X710000D01*
Y820000D02*
Y860000D01*
X670000Y820000D02*
X710000D01*
X670000D02*
Y860000D01*
X630000Y820000D02*
Y860000D01*
Y820000D02*
X670000D01*
Y860000D01*
X630000D02*
X670000D01*
X1297540Y665537D02*
Y657206D01*
X1299206Y655540D01*
X1302538D01*
X1304205Y657206D01*
Y665537D01*
X1314201Y663871D02*
X1312535Y665537D01*
X1309203D01*
X1307537Y663871D01*
Y662205D01*
X1309203Y660538D01*
X1312535D01*
X1314201Y658872D01*
Y657206D01*
X1312535Y655540D01*
X1309203D01*
X1307537Y657206D01*
X1317534Y665537D02*
Y655540D01*
X1322532D01*
X1324198Y657206D01*
Y658872D01*
X1322532Y660538D01*
X1317534D01*
X1322532D01*
X1324198Y662205D01*
Y663871D01*
X1322532Y665537D01*
X1317534D01*
X1133540Y540537D02*
X1140204D01*
X1136872D01*
Y530540D01*
X1143537Y537205D02*
X1150201Y530540D01*
X1146869Y533872D01*
X1150201Y537205D01*
X1143537Y530540D01*
X1134540Y503540D02*
Y513537D01*
X1139538D01*
X1141205Y511871D01*
Y508538D01*
X1139538Y506872D01*
X1134540D01*
X1137872D02*
X1141205Y503540D01*
X1144537Y510205D02*
X1151201Y503540D01*
X1147869Y506872D01*
X1151201Y510205D01*
X1144537Y503540D01*
X1406460Y677540D02*
X1396463D01*
Y682538D01*
X1398129Y684204D01*
X1401462D01*
X1403128Y682538D01*
Y677540D01*
Y680872D02*
X1406460Y684204D01*
X1399795Y687537D02*
X1406460Y694201D01*
X1403128Y690869D01*
X1399795Y694201D01*
X1406460Y687537D01*
X1380463Y677540D02*
Y684204D01*
Y680872D01*
X1390460D01*
X1383795Y687537D02*
X1390460Y694201D01*
X1387128Y690869D01*
X1383795Y694201D01*
X1390460Y687537D01*
X1247463Y719204D02*
Y712540D01*
X1257460D01*
Y719204D01*
X1252462Y712540D02*
Y715872D01*
X1250796Y722537D02*
X1257460D01*
X1254128D01*
X1252462Y724203D01*
X1250796Y725869D01*
Y727535D01*
Y732533D02*
X1257460D01*
X1254128D01*
X1252462Y734200D01*
X1250796Y735866D01*
Y737532D01*
X1309460Y711540D02*
X1299463D01*
Y716538D01*
X1301129Y718204D01*
X1304462D01*
X1306128Y716538D01*
Y711540D01*
X1299463Y721537D02*
X1309460D01*
X1306128Y724869D01*
X1309460Y728201D01*
X1299463D01*
X1309460Y731534D02*
X1299463D01*
Y736532D01*
X1301129Y738198D01*
X1304462D01*
X1306128Y736532D01*
Y731534D01*
Y734866D02*
X1309460Y738198D01*
X1316540Y863775D02*
Y853618D01*
X1321618Y848540D01*
X1326697Y853618D01*
Y863775D01*
X1331775Y848540D02*
X1336853D01*
X1334314D01*
Y858697D01*
X1331775D01*
X1344471Y848540D02*
Y858697D01*
X1352088D01*
X1354628Y856158D01*
Y848540D01*
X1359706Y858697D02*
X1362245D01*
Y856158D01*
X1359706D01*
Y858697D01*
Y851079D02*
X1362245D01*
Y848540D01*
X1359706D01*
Y851079D01*
X1395255Y848540D02*
Y863775D01*
X1387637Y856158D01*
X1397794D01*
X1402872D02*
X1413029D01*
X1428264Y863775D02*
X1423185Y861236D01*
X1418107Y856158D01*
Y851079D01*
X1420646Y848540D01*
X1425725D01*
X1428264Y851079D01*
Y853618D01*
X1425725Y856158D01*
X1418107D01*
X1433342Y863775D02*
Y853618D01*
X1438421Y848540D01*
X1443499Y853618D01*
Y863775D01*
X1359540Y789540D02*
X1369697D01*
X1359540Y815618D02*
X1369697D01*
X1364618Y820697D02*
Y810540D01*
X629697Y615775D02*
X624618D01*
X627158D01*
Y603079D01*
X624618Y600540D01*
X622079D01*
X619540Y603079D01*
X634775Y615775D02*
X644932D01*
X639853D01*
Y600540D01*
X650010D02*
Y610697D01*
X655089Y615775D01*
X660167Y610697D01*
Y600540D01*
Y608158D01*
X650010D01*
X675402Y613236D02*
X672863Y615775D01*
X667784D01*
X665245Y613236D01*
Y603079D01*
X667784Y600540D01*
X672863D01*
X675402Y603079D01*
Y608158D01*
X670324D01*
X722540Y520869D02*
Y510872D01*
X727538D01*
X729204Y512538D01*
Y519203D01*
X727538Y520869D01*
X722540D01*
X737535Y510872D02*
X734203D01*
X732537Y512538D01*
Y515871D01*
X734203Y517537D01*
X737535D01*
X739201Y515871D01*
Y514204D01*
X732537D01*
X742534Y510872D02*
X747532D01*
X749198Y512538D01*
X747532Y514204D01*
X744200D01*
X742534Y515871D01*
X744200Y517537D01*
X749198D01*
X752530Y510872D02*
X755863D01*
X754196D01*
Y517537D01*
X752530D01*
X764193Y507540D02*
X765859D01*
X767525Y509206D01*
Y517537D01*
X762527D01*
X760861Y515871D01*
Y512538D01*
X762527Y510872D01*
X767525D01*
X770858D02*
Y517537D01*
X775856D01*
X777522Y515871D01*
Y510872D01*
X785853D02*
X782521D01*
X780854Y512538D01*
Y515871D01*
X782521Y517537D01*
X785853D01*
X787519Y515871D01*
Y514204D01*
X780854D01*
X790851Y517537D02*
Y510872D01*
Y514204D01*
X792517Y515871D01*
X794184Y517537D01*
X795850D01*
X800848D02*
X802514D01*
Y515871D01*
X800848D01*
Y517537D01*
Y512538D02*
X802514D01*
Y510872D01*
X800848D01*
Y512538D01*
X819175Y510872D02*
Y520869D01*
X822508Y517537D01*
X825840Y520869D01*
Y510872D01*
X829172D02*
X832505D01*
X830838D01*
Y517537D01*
X829172D01*
X837503Y510872D02*
Y520869D01*
Y514204D02*
X842501Y517537D01*
X837503Y514204D02*
X842501Y510872D01*
X849166D02*
X852498D01*
X854164Y512538D01*
Y515871D01*
X852498Y517537D01*
X849166D01*
X847500Y515871D01*
Y512538D01*
X849166Y510872D01*
X857496D02*
X860829D01*
X859163D01*
Y520869D01*
X857496D01*
X867493Y517537D02*
X870826D01*
X872492Y515871D01*
Y510872D01*
X867493D01*
X865827Y512538D01*
X867493Y514204D01*
X872492D01*
X875824Y507540D02*
X877490D01*
X879156Y509206D01*
Y517537D01*
X895817Y510872D02*
Y520869D01*
X900816D01*
X902482Y519203D01*
Y515871D01*
X900816Y514204D01*
X895817D01*
X905814Y510872D02*
X909146D01*
X907480D01*
Y517537D01*
X905814D01*
X920809D02*
X915811D01*
X914145Y515871D01*
Y512538D01*
X915811Y510872D01*
X920809D01*
X924142Y520869D02*
Y510872D01*
Y515871D01*
X925808Y517537D01*
X929140D01*
X930806Y515871D01*
Y510872D01*
X934138D02*
X937471D01*
X935805D01*
Y517537D01*
X934138D01*
X944135Y519203D02*
Y517537D01*
X942469D01*
X945801D01*
X944135D01*
Y512538D01*
X945801Y510872D01*
X952466Y517537D02*
X955798D01*
X957464Y515871D01*
Y510872D01*
X952466D01*
X950800Y512538D01*
X952466Y514204D01*
X957464D01*
X729204Y494203D02*
X727538Y495869D01*
X724206D01*
X722540Y494203D01*
Y492537D01*
X724206Y490871D01*
X727538D01*
X729204Y489204D01*
Y487538D01*
X727538Y485872D01*
X724206D01*
X722540Y487538D01*
X737535Y485872D02*
X734203D01*
X732537Y487538D01*
Y490871D01*
X734203Y492537D01*
X737535D01*
X739201Y490871D01*
Y489204D01*
X732537D01*
X742534Y485872D02*
Y492537D01*
X747532D01*
X749198Y490871D01*
Y485872D01*
X752530D02*
X757529D01*
X759195Y487538D01*
X757529Y489204D01*
X754196D01*
X752530Y490871D01*
X754196Y492537D01*
X759195D01*
X764193Y485872D02*
X767525D01*
X769192Y487538D01*
Y490871D01*
X767525Y492537D01*
X764193D01*
X762527Y490871D01*
Y487538D01*
X764193Y485872D01*
X772524Y492537D02*
Y485872D01*
Y489204D01*
X774190Y490871D01*
X775856Y492537D01*
X777522D01*
X782521Y485872D02*
X787519D01*
X789185Y487538D01*
X787519Y489204D01*
X784187D01*
X782521Y490871D01*
X784187Y492537D01*
X789185D01*
X802514Y485872D02*
X805846D01*
X804180D01*
Y492537D01*
X802514D01*
X810845Y485872D02*
Y492537D01*
X815843D01*
X817509Y490871D01*
Y485872D01*
X835837D02*
X832505D01*
X830838Y487538D01*
Y490871D01*
X832505Y492537D01*
X835837D01*
X837503Y490871D01*
Y489204D01*
X830838D01*
X840835Y485872D02*
Y492537D01*
X842501D01*
X844167Y490871D01*
Y485872D01*
Y490871D01*
X845834Y492537D01*
X847500Y490871D01*
Y485872D01*
X850832Y495869D02*
Y485872D01*
X855830D01*
X857496Y487538D01*
Y489204D01*
Y490871D01*
X855830Y492537D01*
X850832D01*
X865827Y485872D02*
X862495D01*
X860829Y487538D01*
Y490871D01*
X862495Y492537D01*
X865827D01*
X867493Y490871D01*
Y489204D01*
X860829D01*
X877490Y495869D02*
Y485872D01*
X872492D01*
X870826Y487538D01*
Y490871D01*
X872492Y492537D01*
X877490D01*
X887487Y495869D02*
Y485872D01*
X882488D01*
X880822Y487538D01*
Y490871D01*
X882488Y492537D01*
X887487D01*
X895817Y485872D02*
X892485D01*
X890819Y487538D01*
Y490871D01*
X892485Y492537D01*
X895817D01*
X897484Y490871D01*
Y489204D01*
X890819D01*
X907480Y495869D02*
Y485872D01*
X902482D01*
X900816Y487538D01*
Y490871D01*
X902482Y492537D01*
X907480D01*
X922476D02*
X925808D01*
X927474Y490871D01*
Y485872D01*
X922476D01*
X920809Y487538D01*
X922476Y489204D01*
X927474D01*
X930806Y482540D02*
Y492537D01*
X935805D01*
X937471Y490871D01*
Y487538D01*
X935805Y485872D01*
X930806D01*
X940803Y482540D02*
Y492537D01*
X945801D01*
X947467Y490871D01*
Y487538D01*
X945801Y485872D01*
X940803D01*
X950800D02*
X954132D01*
X952466D01*
Y495869D01*
X950800D01*
X959130Y485872D02*
X962463D01*
X960797D01*
Y492537D01*
X959130D01*
X974126D02*
X969127D01*
X967461Y490871D01*
Y487538D01*
X969127Y485872D01*
X974126D01*
X979124Y492537D02*
X982456D01*
X984122Y490871D01*
Y485872D01*
X979124D01*
X977458Y487538D01*
X979124Y489204D01*
X984122D01*
X989121Y494203D02*
Y492537D01*
X987455D01*
X990787D01*
X989121D01*
Y487538D01*
X990787Y485872D01*
X995785D02*
X999118D01*
X997451D01*
Y492537D01*
X995785D01*
X1005782Y485872D02*
X1009114D01*
X1010780Y487538D01*
Y490871D01*
X1009114Y492537D01*
X1005782D01*
X1004116Y490871D01*
Y487538D01*
X1005782Y485872D01*
X1014113D02*
Y492537D01*
X1019111D01*
X1020777Y490871D01*
Y485872D01*
X1024109D02*
X1029108D01*
X1030774Y487538D01*
X1029108Y489204D01*
X1025776D01*
X1024109Y490871D01*
X1025776Y492537D01*
X1030774D01*
D16*
X622693Y641950D02*
X621000Y640257D01*
Y636872D01*
X622693Y635179D01*
X629464D01*
X631157Y636872D01*
Y640257D01*
X629464Y641950D01*
X627771D01*
X626078Y640257D01*
Y635179D01*
X639000Y641950D02*
Y638564D01*
Y640257D01*
X649157D01*
X647464Y641950D01*
Y633486D02*
X649157Y631793D01*
Y628408D01*
X647464Y626715D01*
X640693D01*
X639000Y628408D01*
Y631793D01*
X640693Y633486D01*
X647464D01*
X621000Y719050D02*
Y715665D01*
Y717357D01*
X631157D01*
X629464Y719050D01*
X639000Y716279D02*
Y723050D01*
X645771Y716279D01*
X647464D01*
X649157Y717972D01*
Y721357D01*
X647464Y723050D01*
M02*
