G04*
G04 #@! TF.GenerationSoftware,Altium Limited,Altium Designer,24.2.2 (26)*
G04*
G04 Layer_Physical_Order=4*
G04 Layer_Color=16736095*
%FSLAX44Y44*%
%MOMM*%
G71*
G04*
G04 #@! TF.SameCoordinates,6A8CA8D3-F6E6-494B-9A6B-4A02BC4B17F5*
G04*
G04*
G04 #@! TF.FilePolarity,Positive*
G04*
G01*
G75*
%ADD14C,0.2000*%
%ADD15C,0.2540*%
G04:AMPARAMS|DCode=69|XSize=1mm|YSize=1.8mm|CornerRadius=0.5mm|HoleSize=0mm|Usage=FLASHONLY|Rotation=0.000|XOffset=0mm|YOffset=0mm|HoleType=Round|Shape=RoundedRectangle|*
%AMROUNDEDRECTD69*
21,1,1.0000,0.8000,0,0,0.0*
21,1,0.0000,1.8000,0,0,0.0*
1,1,1.0000,0.0000,-0.4000*
1,1,1.0000,0.0000,-0.4000*
1,1,1.0000,0.0000,0.4000*
1,1,1.0000,0.0000,0.4000*
%
%ADD69ROUNDEDRECTD69*%
G04:AMPARAMS|DCode=70|XSize=1mm|YSize=2.1mm|CornerRadius=0.5mm|HoleSize=0mm|Usage=FLASHONLY|Rotation=0.000|XOffset=0mm|YOffset=0mm|HoleType=Round|Shape=RoundedRectangle|*
%AMROUNDEDRECTD70*
21,1,1.0000,1.1000,0,0,0.0*
21,1,0.0000,2.1000,0,0,0.0*
1,1,1.0000,0.0000,-0.5500*
1,1,1.0000,0.0000,-0.5500*
1,1,1.0000,0.0000,0.5500*
1,1,1.0000,0.0000,0.5500*
%
%ADD70ROUNDEDRECTD70*%
%ADD71C,0.6500*%
%ADD81C,0.3000*%
%ADD82C,0.3810*%
%ADD83C,0.7000*%
%ADD84C,3.2000*%
%ADD85C,0.9500*%
G04:AMPARAMS|DCode=86|XSize=0.95mm|YSize=0.95mm|CornerRadius=0.2375mm|HoleSize=0mm|Usage=FLASHONLY|Rotation=270.000|XOffset=0mm|YOffset=0mm|HoleType=Round|Shape=RoundedRectangle|*
%AMROUNDEDRECTD86*
21,1,0.9500,0.4750,0,0,270.0*
21,1,0.4750,0.9500,0,0,270.0*
1,1,0.4750,-0.2375,-0.2375*
1,1,0.4750,-0.2375,0.2375*
1,1,0.4750,0.2375,0.2375*
1,1,0.4750,0.2375,-0.2375*
%
%ADD86ROUNDEDRECTD86*%
G04:AMPARAMS|DCode=87|XSize=1.95mm|YSize=1.95mm|CornerRadius=0.4875mm|HoleSize=0mm|Usage=FLASHONLY|Rotation=90.000|XOffset=0mm|YOffset=0mm|HoleType=Round|Shape=RoundedRectangle|*
%AMROUNDEDRECTD87*
21,1,1.9500,0.9750,0,0,90.0*
21,1,0.9750,1.9500,0,0,90.0*
1,1,0.9750,0.4875,0.4875*
1,1,0.9750,0.4875,-0.4875*
1,1,0.9750,-0.4875,-0.4875*
1,1,0.9750,-0.4875,0.4875*
%
%ADD87ROUNDEDRECTD87*%
%ADD88C,1.9500*%
%ADD89C,3.5000*%
%ADD90C,0.6000*%
%ADD91C,1.2700*%
%ADD92C,0.5000*%
G36*
X1450000Y947000D02*
X600000D01*
Y1225000D01*
X1450000D01*
Y947000D01*
D02*
G37*
%LPC*%
G36*
X1381270Y1205470D02*
Y1201270D01*
X1385470D01*
X1384696Y1203138D01*
X1383138Y1204696D01*
X1381270Y1205470D01*
D02*
G37*
G36*
X1378730D02*
X1376861Y1204696D01*
X1375303Y1203138D01*
X1374529Y1201270D01*
X1378730D01*
Y1205470D01*
D02*
G37*
G36*
X901270D02*
Y1201270D01*
X905470D01*
X904696Y1203138D01*
X903138Y1204696D01*
X901270Y1205470D01*
D02*
G37*
G36*
X898730D02*
X896862Y1204696D01*
X895303Y1203138D01*
X894529Y1201270D01*
X898730D01*
Y1205470D01*
D02*
G37*
G36*
X1327419Y1208350D02*
X1321281D01*
X1315217Y1207390D01*
X1309379Y1205493D01*
X1303910Y1202706D01*
X1298943Y1199098D01*
X1295000Y1195154D01*
X1291057Y1199098D01*
X1286091Y1202706D01*
X1280621Y1205493D01*
X1274782Y1207390D01*
X1268719Y1208350D01*
X1262581D01*
X1256517Y1207390D01*
X1250679Y1205493D01*
X1245210Y1202706D01*
X1240243Y1199098D01*
X1235902Y1194757D01*
X1232294Y1189790D01*
X1229507Y1184321D01*
X1227610Y1178483D01*
X1226650Y1172419D01*
Y1166281D01*
X1227610Y1160218D01*
X1229507Y1154379D01*
X1232294Y1148910D01*
X1235902Y1143943D01*
X1239846Y1140000D01*
X1235902Y1136057D01*
X1232294Y1131090D01*
X1229507Y1125621D01*
X1227610Y1119782D01*
X1226650Y1113719D01*
Y1107581D01*
X1227610Y1101517D01*
X1229507Y1095679D01*
X1232294Y1090210D01*
X1235902Y1085243D01*
X1240243Y1080902D01*
X1245210Y1077294D01*
X1250679Y1074507D01*
X1256517Y1072610D01*
X1262581Y1071650D01*
X1268719D01*
X1274782Y1072610D01*
X1280621Y1074507D01*
X1286091Y1077294D01*
X1291057Y1080902D01*
X1295000Y1084846D01*
X1298943Y1080902D01*
X1303910Y1077294D01*
X1309379Y1074507D01*
X1315217Y1072610D01*
X1321281Y1071650D01*
X1327419D01*
X1333483Y1072610D01*
X1339321Y1074507D01*
X1343931Y1076856D01*
X1345303Y1076861D01*
X1346861Y1075303D01*
X1348730Y1074529D01*
Y1080000D01*
X1350000D01*
Y1081144D01*
X1350125Y1081270D01*
X1355470D01*
X1354696Y1083138D01*
X1353344Y1084490D01*
X1354098Y1085243D01*
X1357706Y1090210D01*
X1360493Y1095679D01*
X1362390Y1101517D01*
X1363350Y1107581D01*
Y1113719D01*
X1362390Y1119782D01*
X1360493Y1125621D01*
X1357706Y1131090D01*
X1354098Y1136057D01*
X1350154Y1140000D01*
X1354098Y1143943D01*
X1357706Y1148910D01*
X1360493Y1154379D01*
X1362390Y1160218D01*
X1363350Y1166281D01*
Y1172419D01*
X1362390Y1178483D01*
X1360493Y1184321D01*
X1357706Y1189790D01*
X1354098Y1194757D01*
X1349757Y1199098D01*
X1344790Y1202706D01*
X1339321Y1205493D01*
X1333483Y1207390D01*
X1327419Y1208350D01*
D02*
G37*
G36*
X787419D02*
X781281D01*
X775218Y1207390D01*
X769379Y1205493D01*
X763910Y1202706D01*
X758943Y1199098D01*
X755000Y1195154D01*
X751057Y1199098D01*
X746090Y1202706D01*
X740621Y1205493D01*
X734782Y1207390D01*
X728719Y1208350D01*
X722581D01*
X716517Y1207390D01*
X710679Y1205493D01*
X705210Y1202706D01*
X700243Y1199098D01*
X695902Y1194757D01*
X692294Y1189790D01*
X689507Y1184321D01*
X687610Y1178483D01*
X686650Y1172419D01*
Y1166281D01*
X687610Y1160218D01*
X689507Y1154379D01*
X692294Y1148910D01*
X695902Y1143943D01*
X699846Y1140000D01*
X695902Y1136057D01*
X692294Y1131090D01*
X689507Y1125621D01*
X687610Y1119782D01*
X686650Y1113719D01*
Y1107581D01*
X687610Y1101517D01*
X689507Y1095679D01*
X692294Y1090210D01*
X695902Y1085243D01*
X700243Y1080902D01*
X705210Y1077294D01*
X710679Y1074507D01*
X716517Y1072610D01*
X722581Y1071650D01*
X728719D01*
X734782Y1072610D01*
X740621Y1074507D01*
X746090Y1077294D01*
X751057Y1080902D01*
X755000Y1084846D01*
X758943Y1080902D01*
X763910Y1077294D01*
X769379Y1074507D01*
X775218Y1072610D01*
X781281Y1071650D01*
X787419D01*
X793483Y1072610D01*
X799321Y1074507D01*
X804790Y1077294D01*
X809757Y1080902D01*
X814098Y1085243D01*
X817706Y1090210D01*
X820493Y1095679D01*
X822390Y1101517D01*
X823350Y1107581D01*
Y1113719D01*
X822390Y1119782D01*
X820493Y1125621D01*
X817706Y1131090D01*
X814098Y1136057D01*
X810154Y1140000D01*
X814098Y1143943D01*
X817706Y1148910D01*
X820493Y1154379D01*
X822390Y1160218D01*
X823350Y1166281D01*
Y1172419D01*
X822390Y1178483D01*
X820493Y1184321D01*
X817706Y1189790D01*
X814098Y1194757D01*
X809757Y1199098D01*
X804790Y1202706D01*
X799321Y1205493D01*
X793483Y1207390D01*
X787419Y1208350D01*
D02*
G37*
G36*
X1385470Y1198730D02*
X1381270D01*
Y1194529D01*
X1383138Y1195303D01*
X1384696Y1196861D01*
X1385470Y1198730D01*
D02*
G37*
G36*
X1378730D02*
X1374529D01*
X1375303Y1196861D01*
X1376861Y1195303D01*
X1378730Y1194529D01*
Y1198730D01*
D02*
G37*
G36*
X905470D02*
X901270D01*
Y1194529D01*
X903138Y1195303D01*
X904696Y1196861D01*
X905470Y1198730D01*
D02*
G37*
G36*
X898730D02*
X894529D01*
X895303Y1196861D01*
X896862Y1195303D01*
X898730Y1194529D01*
Y1198730D01*
D02*
G37*
G36*
X1401974Y1195040D02*
X1398026D01*
X1394155Y1194270D01*
X1390508Y1192759D01*
X1387225Y1190566D01*
X1384434Y1187775D01*
X1382241Y1184492D01*
X1380730Y1180845D01*
X1379960Y1176974D01*
Y1173026D01*
X1380730Y1169155D01*
X1382241Y1165508D01*
X1384434Y1162225D01*
X1387225Y1159434D01*
X1390508Y1157241D01*
X1394155Y1155730D01*
X1398026Y1154960D01*
X1401974D01*
X1405845Y1155730D01*
X1409492Y1157241D01*
X1412775Y1159434D01*
X1415566Y1162225D01*
X1417759Y1165508D01*
X1419270Y1169155D01*
X1420040Y1173026D01*
Y1176974D01*
X1419270Y1180845D01*
X1417759Y1184492D01*
X1415566Y1187775D01*
X1412775Y1190566D01*
X1409492Y1192759D01*
X1405845Y1194270D01*
X1401974Y1195040D01*
D02*
G37*
G36*
X651974D02*
X648026D01*
X644155Y1194270D01*
X640508Y1192759D01*
X637225Y1190566D01*
X634434Y1187775D01*
X632241Y1184492D01*
X630730Y1180845D01*
X629960Y1176974D01*
Y1173026D01*
X630730Y1169155D01*
X632241Y1165508D01*
X634434Y1162225D01*
X637225Y1159434D01*
X640508Y1157241D01*
X644155Y1155730D01*
X648026Y1154960D01*
X651974D01*
X655845Y1155730D01*
X659492Y1157241D01*
X662775Y1159434D01*
X665566Y1162225D01*
X667759Y1165508D01*
X669270Y1169155D01*
X670040Y1173026D01*
Y1176974D01*
X669270Y1180845D01*
X667759Y1184492D01*
X665566Y1187775D01*
X662775Y1190566D01*
X659492Y1192759D01*
X655845Y1194270D01*
X651974Y1195040D01*
D02*
G37*
G36*
X1411270Y1145470D02*
Y1141270D01*
X1415470D01*
X1414696Y1143138D01*
X1413138Y1144696D01*
X1411270Y1145470D01*
D02*
G37*
G36*
X1408730D02*
X1406861Y1144696D01*
X1405303Y1143138D01*
X1404529Y1141270D01*
X1408730D01*
Y1145470D01*
D02*
G37*
G36*
X1381270D02*
Y1141270D01*
X1385470D01*
X1384696Y1143138D01*
X1383138Y1144696D01*
X1381270Y1145470D01*
D02*
G37*
G36*
X1378730D02*
X1376861Y1144696D01*
X1375303Y1143138D01*
X1374529Y1141270D01*
X1378730D01*
Y1145470D01*
D02*
G37*
G36*
X661270D02*
Y1141270D01*
X665470D01*
X664696Y1143138D01*
X663138Y1144696D01*
X661270Y1145470D01*
D02*
G37*
G36*
X658730D02*
X656862Y1144696D01*
X655303Y1143138D01*
X654529Y1141270D01*
X658730D01*
Y1145470D01*
D02*
G37*
G36*
X631270D02*
Y1141270D01*
X635470D01*
X634696Y1143138D01*
X633138Y1144696D01*
X631270Y1145470D01*
D02*
G37*
G36*
X628730D02*
X626862Y1144696D01*
X625303Y1143138D01*
X624529Y1141270D01*
X628730D01*
Y1145470D01*
D02*
G37*
G36*
X1415470Y1138730D02*
X1411270D01*
Y1134529D01*
X1413138Y1135303D01*
X1414696Y1136861D01*
X1415470Y1138730D01*
D02*
G37*
G36*
X1408730D02*
X1404529D01*
X1405303Y1136861D01*
X1406861Y1135303D01*
X1408730Y1134529D01*
Y1138730D01*
D02*
G37*
G36*
X1385470D02*
X1381270D01*
Y1134529D01*
X1383138Y1135303D01*
X1384696Y1136861D01*
X1385470Y1138730D01*
D02*
G37*
G36*
X1378730D02*
X1374529D01*
X1375303Y1136861D01*
X1376861Y1135303D01*
X1378730Y1134529D01*
Y1138730D01*
D02*
G37*
G36*
X665470D02*
X661270D01*
Y1134529D01*
X663138Y1135303D01*
X664696Y1136861D01*
X665470Y1138730D01*
D02*
G37*
G36*
X658730D02*
X654529D01*
X655303Y1136861D01*
X656862Y1135303D01*
X658730Y1134529D01*
Y1138730D01*
D02*
G37*
G36*
X635470D02*
X631270D01*
Y1134529D01*
X633138Y1135303D01*
X634696Y1136861D01*
X635470Y1138730D01*
D02*
G37*
G36*
X628730D02*
X624529D01*
X625303Y1136861D01*
X626862Y1135303D01*
X628730Y1134529D01*
Y1138730D01*
D02*
G37*
G36*
X1426270Y1115470D02*
Y1111270D01*
X1430470D01*
X1429696Y1113138D01*
X1428138Y1114696D01*
X1426270Y1115470D01*
D02*
G37*
G36*
X1423730D02*
X1421861Y1114696D01*
X1420303Y1113138D01*
X1419529Y1111270D01*
X1423730D01*
Y1115470D01*
D02*
G37*
G36*
X1396270D02*
Y1111270D01*
X1400470D01*
X1399696Y1113138D01*
X1398138Y1114696D01*
X1396270Y1115470D01*
D02*
G37*
G36*
X1393730D02*
X1391861Y1114696D01*
X1390303Y1113138D01*
X1389529Y1111270D01*
X1393730D01*
Y1115470D01*
D02*
G37*
G36*
X646270D02*
Y1111270D01*
X650470D01*
X649696Y1113138D01*
X648138Y1114696D01*
X646270Y1115470D01*
D02*
G37*
G36*
X643730D02*
X641862Y1114696D01*
X640303Y1113138D01*
X639529Y1111270D01*
X643730D01*
Y1115470D01*
D02*
G37*
G36*
X1430470Y1108730D02*
X1426270D01*
Y1104529D01*
X1428138Y1105303D01*
X1429696Y1106861D01*
X1430470Y1108730D01*
D02*
G37*
G36*
X1423730D02*
X1419529D01*
X1420303Y1106861D01*
X1421861Y1105303D01*
X1423730Y1104529D01*
Y1108730D01*
D02*
G37*
G36*
X1400470D02*
X1396270D01*
Y1104529D01*
X1398138Y1105303D01*
X1399696Y1106861D01*
X1400470Y1108730D01*
D02*
G37*
G36*
X1393730D02*
X1389529D01*
X1390303Y1106861D01*
X1391861Y1105303D01*
X1393730Y1104529D01*
Y1108730D01*
D02*
G37*
G36*
X650470D02*
X646270D01*
Y1104529D01*
X648138Y1105303D01*
X649696Y1106861D01*
X650470Y1108730D01*
D02*
G37*
G36*
X643730D02*
X639529D01*
X640303Y1106861D01*
X641862Y1105303D01*
X643730Y1104529D01*
Y1108730D01*
D02*
G37*
G36*
X1411270Y1085470D02*
Y1081270D01*
X1415470D01*
X1414696Y1083138D01*
X1413138Y1084696D01*
X1411270Y1085470D01*
D02*
G37*
G36*
X1408730D02*
X1406861Y1084696D01*
X1405303Y1083138D01*
X1404529Y1081270D01*
X1408730D01*
Y1085470D01*
D02*
G37*
G36*
X1381270D02*
Y1081270D01*
X1385470D01*
X1384696Y1083138D01*
X1383138Y1084696D01*
X1381270Y1085470D01*
D02*
G37*
G36*
X1378730D02*
X1376861Y1084696D01*
X1375303Y1083138D01*
X1374529Y1081270D01*
X1378730D01*
Y1085470D01*
D02*
G37*
G36*
X661270D02*
Y1081270D01*
X665470D01*
X664696Y1083138D01*
X663138Y1084696D01*
X661270Y1085470D01*
D02*
G37*
G36*
X658730D02*
X656862Y1084696D01*
X655303Y1083138D01*
X654529Y1081270D01*
X658730D01*
Y1085470D01*
D02*
G37*
G36*
X631270D02*
Y1081270D01*
X635470D01*
X634696Y1083138D01*
X633138Y1084696D01*
X631270Y1085470D01*
D02*
G37*
G36*
X628730D02*
X626862Y1084696D01*
X625303Y1083138D01*
X624529Y1081270D01*
X628730D01*
Y1085470D01*
D02*
G37*
G36*
X1415470Y1078730D02*
X1411270D01*
Y1074529D01*
X1413138Y1075303D01*
X1414696Y1076861D01*
X1415470Y1078730D01*
D02*
G37*
G36*
X1408730D02*
X1404529D01*
X1405303Y1076861D01*
X1406861Y1075303D01*
X1408730Y1074529D01*
Y1078730D01*
D02*
G37*
G36*
X1385470D02*
X1381270D01*
Y1074529D01*
X1383138Y1075303D01*
X1384696Y1076861D01*
X1385470Y1078730D01*
D02*
G37*
G36*
X1378730D02*
X1374529D01*
X1375303Y1076861D01*
X1376861Y1075303D01*
X1378730Y1074529D01*
Y1078730D01*
D02*
G37*
G36*
X1355470D02*
X1351270D01*
Y1074529D01*
X1353138Y1075303D01*
X1354696Y1076861D01*
X1355470Y1078730D01*
D02*
G37*
G36*
X665470D02*
X661270D01*
Y1074529D01*
X663138Y1075303D01*
X664696Y1076861D01*
X665470Y1078730D01*
D02*
G37*
G36*
X658730D02*
X654529D01*
X655303Y1076861D01*
X656862Y1075303D01*
X658730Y1074529D01*
Y1078730D01*
D02*
G37*
G36*
X635470D02*
X631270D01*
Y1074529D01*
X633138Y1075303D01*
X634696Y1076861D01*
X635470Y1078730D01*
D02*
G37*
G36*
X628730D02*
X624529D01*
X625303Y1076861D01*
X626862Y1075303D01*
X628730Y1074529D01*
Y1078730D01*
D02*
G37*
G36*
X1426270Y1055470D02*
Y1051270D01*
X1430470D01*
X1429696Y1053138D01*
X1428138Y1054696D01*
X1426270Y1055470D01*
D02*
G37*
G36*
X1423730D02*
X1421861Y1054696D01*
X1420303Y1053138D01*
X1419529Y1051270D01*
X1423730D01*
Y1055470D01*
D02*
G37*
G36*
X1396270D02*
Y1051270D01*
X1400470D01*
X1399696Y1053138D01*
X1398138Y1054696D01*
X1396270Y1055470D01*
D02*
G37*
G36*
X1393730D02*
X1391861Y1054696D01*
X1390303Y1053138D01*
X1389529Y1051270D01*
X1393730D01*
Y1055470D01*
D02*
G37*
G36*
X1366270D02*
Y1051270D01*
X1370470D01*
X1369696Y1053138D01*
X1368138Y1054696D01*
X1366270Y1055470D01*
D02*
G37*
G36*
X1363730D02*
X1361861Y1054696D01*
X1360303Y1053138D01*
X1359529Y1051270D01*
X1363730D01*
Y1055470D01*
D02*
G37*
G36*
X1246270D02*
Y1051270D01*
X1250470D01*
X1249696Y1053138D01*
X1248138Y1054696D01*
X1246270Y1055470D01*
D02*
G37*
G36*
X1243730D02*
X1241861Y1054696D01*
X1240303Y1053138D01*
X1239529Y1051270D01*
X1243730D01*
Y1055470D01*
D02*
G37*
G36*
X1216270D02*
Y1051270D01*
X1220470D01*
X1219696Y1053138D01*
X1218138Y1054696D01*
X1216270Y1055470D01*
D02*
G37*
G36*
X1213730D02*
X1211861Y1054696D01*
X1210303Y1053138D01*
X1209529Y1051270D01*
X1213730D01*
Y1055470D01*
D02*
G37*
G36*
X1186270D02*
Y1051270D01*
X1190470D01*
X1189696Y1053138D01*
X1188138Y1054696D01*
X1186270Y1055470D01*
D02*
G37*
G36*
X1183730D02*
X1181861Y1054696D01*
X1180303Y1053138D01*
X1179529Y1051270D01*
X1183730D01*
Y1055470D01*
D02*
G37*
G36*
X1156270D02*
Y1051270D01*
X1160470D01*
X1159696Y1053138D01*
X1158138Y1054696D01*
X1156270Y1055470D01*
D02*
G37*
G36*
X1153730D02*
X1151861Y1054696D01*
X1150303Y1053138D01*
X1149529Y1051270D01*
X1153730D01*
Y1055470D01*
D02*
G37*
G36*
X1126270D02*
Y1051270D01*
X1130470D01*
X1129696Y1053138D01*
X1128138Y1054696D01*
X1126270Y1055470D01*
D02*
G37*
G36*
X1123730D02*
X1121861Y1054696D01*
X1120303Y1053138D01*
X1119529Y1051270D01*
X1123730D01*
Y1055470D01*
D02*
G37*
G36*
X1096270D02*
Y1051270D01*
X1100470D01*
X1099696Y1053138D01*
X1098138Y1054696D01*
X1096270Y1055470D01*
D02*
G37*
G36*
X1093730D02*
X1091861Y1054696D01*
X1090303Y1053138D01*
X1089529Y1051270D01*
X1093730D01*
Y1055470D01*
D02*
G37*
G36*
X1066270D02*
Y1051270D01*
X1070470D01*
X1069696Y1053138D01*
X1068138Y1054696D01*
X1066270Y1055470D01*
D02*
G37*
G36*
X1063730D02*
X1061861Y1054696D01*
X1060303Y1053138D01*
X1059529Y1051270D01*
X1063730D01*
Y1055470D01*
D02*
G37*
G36*
X706270D02*
Y1051270D01*
X710470D01*
X709696Y1053138D01*
X708138Y1054696D01*
X706270Y1055470D01*
D02*
G37*
G36*
X703730D02*
X701862Y1054696D01*
X700303Y1053138D01*
X699529Y1051270D01*
X703730D01*
Y1055470D01*
D02*
G37*
G36*
X676270D02*
Y1051270D01*
X680470D01*
X679696Y1053138D01*
X678138Y1054696D01*
X676270Y1055470D01*
D02*
G37*
G36*
X673730D02*
X671862Y1054696D01*
X670303Y1053138D01*
X669529Y1051270D01*
X673730D01*
Y1055470D01*
D02*
G37*
G36*
X646270D02*
Y1051270D01*
X650470D01*
X649696Y1053138D01*
X648138Y1054696D01*
X646270Y1055470D01*
D02*
G37*
G36*
X643730D02*
X641862Y1054696D01*
X640303Y1053138D01*
X639529Y1051270D01*
X643730D01*
Y1055470D01*
D02*
G37*
G36*
X1430470Y1048730D02*
X1426270D01*
Y1044529D01*
X1428138Y1045303D01*
X1429696Y1046861D01*
X1430470Y1048730D01*
D02*
G37*
G36*
X1423730D02*
X1419529D01*
X1420303Y1046861D01*
X1421861Y1045303D01*
X1423730Y1044529D01*
Y1048730D01*
D02*
G37*
G36*
X1400470D02*
X1396270D01*
Y1044529D01*
X1398138Y1045303D01*
X1399696Y1046861D01*
X1400470Y1048730D01*
D02*
G37*
G36*
X1393730D02*
X1389529D01*
X1390303Y1046861D01*
X1391861Y1045303D01*
X1393730Y1044529D01*
Y1048730D01*
D02*
G37*
G36*
X1370470D02*
X1366270D01*
Y1044529D01*
X1368138Y1045303D01*
X1369696Y1046861D01*
X1370470Y1048730D01*
D02*
G37*
G36*
X1363730D02*
X1359529D01*
X1360303Y1046861D01*
X1361861Y1045303D01*
X1363730Y1044529D01*
Y1048730D01*
D02*
G37*
G36*
X1250470D02*
X1246270D01*
Y1044529D01*
X1248138Y1045303D01*
X1249696Y1046861D01*
X1250470Y1048730D01*
D02*
G37*
G36*
X1243730D02*
X1239529D01*
X1240303Y1046861D01*
X1241861Y1045303D01*
X1243730Y1044529D01*
Y1048730D01*
D02*
G37*
G36*
X1220470D02*
X1216270D01*
Y1044529D01*
X1218138Y1045303D01*
X1219696Y1046861D01*
X1220470Y1048730D01*
D02*
G37*
G36*
X1213730D02*
X1209529D01*
X1210303Y1046861D01*
X1211861Y1045303D01*
X1213730Y1044529D01*
Y1048730D01*
D02*
G37*
G36*
X1190470D02*
X1186270D01*
Y1044529D01*
X1188138Y1045303D01*
X1189696Y1046861D01*
X1190470Y1048730D01*
D02*
G37*
G36*
X1183730D02*
X1179529D01*
X1180303Y1046861D01*
X1181861Y1045303D01*
X1183730Y1044529D01*
Y1048730D01*
D02*
G37*
G36*
X1160470D02*
X1156270D01*
Y1044529D01*
X1158138Y1045303D01*
X1159696Y1046861D01*
X1160470Y1048730D01*
D02*
G37*
G36*
X1153730D02*
X1149529D01*
X1150303Y1046861D01*
X1151861Y1045303D01*
X1153730Y1044529D01*
Y1048730D01*
D02*
G37*
G36*
X1130470D02*
X1126270D01*
Y1044529D01*
X1128138Y1045303D01*
X1129696Y1046861D01*
X1130470Y1048730D01*
D02*
G37*
G36*
X1123730D02*
X1119529D01*
X1120303Y1046861D01*
X1121861Y1045303D01*
X1123730Y1044529D01*
Y1048730D01*
D02*
G37*
G36*
X1100470D02*
X1096270D01*
Y1044529D01*
X1098138Y1045303D01*
X1099696Y1046861D01*
X1100470Y1048730D01*
D02*
G37*
G36*
X1093730D02*
X1089529D01*
X1090303Y1046861D01*
X1091861Y1045303D01*
X1093730Y1044529D01*
Y1048730D01*
D02*
G37*
G36*
X1070470D02*
X1066270D01*
Y1044529D01*
X1068138Y1045303D01*
X1069696Y1046861D01*
X1070470Y1048730D01*
D02*
G37*
G36*
X1063730D02*
X1059529D01*
X1060303Y1046861D01*
X1061861Y1045303D01*
X1063730Y1044529D01*
Y1048730D01*
D02*
G37*
G36*
X710470D02*
X706270D01*
Y1044529D01*
X708138Y1045303D01*
X709696Y1046861D01*
X710470Y1048730D01*
D02*
G37*
G36*
X703730D02*
X699529D01*
X700303Y1046861D01*
X701862Y1045303D01*
X703730Y1044529D01*
Y1048730D01*
D02*
G37*
G36*
X680470D02*
X676270D01*
Y1044529D01*
X678138Y1045303D01*
X679696Y1046861D01*
X680470Y1048730D01*
D02*
G37*
G36*
X673730D02*
X669529D01*
X670303Y1046861D01*
X671862Y1045303D01*
X673730Y1044529D01*
Y1048730D01*
D02*
G37*
G36*
X650470D02*
X646270D01*
Y1044529D01*
X648138Y1045303D01*
X649696Y1046861D01*
X650470Y1048730D01*
D02*
G37*
G36*
X643730D02*
X639529D01*
X640303Y1046861D01*
X641862Y1045303D01*
X643730Y1044529D01*
Y1048730D01*
D02*
G37*
G36*
X988436Y1029304D02*
Y1025104D01*
X992637D01*
X991863Y1026972D01*
X990304Y1028530D01*
X988436Y1029304D01*
D02*
G37*
G36*
X985896D02*
X984028Y1028530D01*
X982470Y1026972D01*
X981696Y1025104D01*
X985896D01*
Y1029304D01*
D02*
G37*
G36*
X1411270Y1025470D02*
Y1021270D01*
X1415470D01*
X1414696Y1023138D01*
X1413138Y1024696D01*
X1411270Y1025470D01*
D02*
G37*
G36*
X1408730D02*
X1406861Y1024696D01*
X1405303Y1023138D01*
X1404529Y1021270D01*
X1408730D01*
Y1025470D01*
D02*
G37*
G36*
X1381270D02*
Y1021270D01*
X1385470D01*
X1384696Y1023138D01*
X1383138Y1024696D01*
X1381270Y1025470D01*
D02*
G37*
G36*
X1378730D02*
X1376861Y1024696D01*
X1375303Y1023138D01*
X1374529Y1021270D01*
X1378730D01*
Y1025470D01*
D02*
G37*
G36*
X1351270D02*
Y1021270D01*
X1355470D01*
X1354696Y1023138D01*
X1353138Y1024696D01*
X1351270Y1025470D01*
D02*
G37*
G36*
X1348730D02*
X1346861Y1024696D01*
X1345303Y1023138D01*
X1344529Y1021270D01*
X1348730D01*
Y1025470D01*
D02*
G37*
G36*
X1231270D02*
Y1021270D01*
X1235470D01*
X1234696Y1023138D01*
X1233138Y1024696D01*
X1231270Y1025470D01*
D02*
G37*
G36*
X1228730D02*
X1226861Y1024696D01*
X1225303Y1023138D01*
X1224529Y1021270D01*
X1228730D01*
Y1025470D01*
D02*
G37*
G36*
X1171270D02*
Y1021270D01*
X1175470D01*
X1174696Y1023138D01*
X1173138Y1024696D01*
X1171270Y1025470D01*
D02*
G37*
G36*
X1168730D02*
X1166861Y1024696D01*
X1165303Y1023138D01*
X1164529Y1021270D01*
X1168730D01*
Y1025470D01*
D02*
G37*
G36*
X811270D02*
Y1021270D01*
X815470D01*
X814696Y1023138D01*
X813138Y1024696D01*
X811270Y1025470D01*
D02*
G37*
G36*
X808730D02*
X806862Y1024696D01*
X805303Y1023138D01*
X804529Y1021270D01*
X808730D01*
Y1025470D01*
D02*
G37*
G36*
X691270D02*
Y1021270D01*
X695470D01*
X694696Y1023138D01*
X693138Y1024696D01*
X691270Y1025470D01*
D02*
G37*
G36*
X688730D02*
X686862Y1024696D01*
X685303Y1023138D01*
X684529Y1021270D01*
X688730D01*
Y1025470D01*
D02*
G37*
G36*
X661270D02*
Y1021270D01*
X665470D01*
X664696Y1023138D01*
X663138Y1024696D01*
X661270Y1025470D01*
D02*
G37*
G36*
X658730D02*
X656862Y1024696D01*
X655303Y1023138D01*
X654529Y1021270D01*
X658730D01*
Y1025470D01*
D02*
G37*
G36*
X631270D02*
Y1021270D01*
X635470D01*
X634696Y1023138D01*
X633138Y1024696D01*
X631270Y1025470D01*
D02*
G37*
G36*
X628730D02*
X626862Y1024696D01*
X625303Y1023138D01*
X624529Y1021270D01*
X628730D01*
Y1025470D01*
D02*
G37*
G36*
X992637Y1022564D02*
X988436D01*
Y1018363D01*
X990304Y1019137D01*
X991863Y1020696D01*
X992637Y1022564D01*
D02*
G37*
G36*
X985896D02*
X981696D01*
X982470Y1020696D01*
X984028Y1019137D01*
X985896Y1018363D01*
Y1022564D01*
D02*
G37*
G36*
X1415470Y1018730D02*
X1411270D01*
Y1014529D01*
X1413138Y1015303D01*
X1414696Y1016861D01*
X1415470Y1018730D01*
D02*
G37*
G36*
X1408730D02*
X1404529D01*
X1405303Y1016861D01*
X1406861Y1015303D01*
X1408730Y1014529D01*
Y1018730D01*
D02*
G37*
G36*
X1385470D02*
X1381270D01*
Y1014529D01*
X1383138Y1015303D01*
X1384696Y1016861D01*
X1385470Y1018730D01*
D02*
G37*
G36*
X1378730D02*
X1374529D01*
X1375303Y1016861D01*
X1376861Y1015303D01*
X1378730Y1014529D01*
Y1018730D01*
D02*
G37*
G36*
X1355470D02*
X1351270D01*
Y1014529D01*
X1353138Y1015303D01*
X1354696Y1016861D01*
X1355470Y1018730D01*
D02*
G37*
G36*
X1348730D02*
X1344529D01*
X1345303Y1016861D01*
X1346861Y1015303D01*
X1348730Y1014529D01*
Y1018730D01*
D02*
G37*
G36*
X1235470D02*
X1231270D01*
Y1014529D01*
X1233138Y1015303D01*
X1234696Y1016861D01*
X1235470Y1018730D01*
D02*
G37*
G36*
X1228730D02*
X1224529D01*
X1225303Y1016861D01*
X1226861Y1015303D01*
X1228730Y1014529D01*
Y1018730D01*
D02*
G37*
G36*
X1175470D02*
X1171270D01*
Y1014529D01*
X1173138Y1015303D01*
X1174696Y1016861D01*
X1175470Y1018730D01*
D02*
G37*
G36*
X1168730D02*
X1164529D01*
X1165303Y1016861D01*
X1166861Y1015303D01*
X1168730Y1014529D01*
Y1018730D01*
D02*
G37*
G36*
X815470D02*
X811270D01*
Y1014529D01*
X813138Y1015303D01*
X814696Y1016861D01*
X815470Y1018730D01*
D02*
G37*
G36*
X808730D02*
X804529D01*
X805303Y1016861D01*
X806862Y1015303D01*
X808730Y1014529D01*
Y1018730D01*
D02*
G37*
G36*
X695470D02*
X691270D01*
Y1014529D01*
X693138Y1015303D01*
X694696Y1016861D01*
X695470Y1018730D01*
D02*
G37*
G36*
X688730D02*
X684529D01*
X685303Y1016861D01*
X686862Y1015303D01*
X688730Y1014529D01*
Y1018730D01*
D02*
G37*
G36*
X665470D02*
X661270D01*
Y1014529D01*
X663138Y1015303D01*
X664696Y1016861D01*
X665470Y1018730D01*
D02*
G37*
G36*
X658730D02*
X654529D01*
X655303Y1016861D01*
X656862Y1015303D01*
X658730Y1014529D01*
Y1018730D01*
D02*
G37*
G36*
X635470D02*
X631270D01*
Y1014529D01*
X633138Y1015303D01*
X634696Y1016861D01*
X635470Y1018730D01*
D02*
G37*
G36*
X628730D02*
X624529D01*
X625303Y1016861D01*
X626862Y1015303D01*
X628730Y1014529D01*
Y1018730D01*
D02*
G37*
G36*
X988436Y1003304D02*
Y999104D01*
X992637D01*
X991863Y1000972D01*
X990304Y1002530D01*
X988436Y1003304D01*
D02*
G37*
G36*
X985896D02*
X984028Y1002530D01*
X982470Y1000972D01*
X981696Y999104D01*
X985896D01*
Y1003304D01*
D02*
G37*
G36*
X992637Y996564D02*
X988436D01*
Y992363D01*
X990304Y993137D01*
X991863Y994696D01*
X992637Y996564D01*
D02*
G37*
G36*
X985896D02*
X981696D01*
X982470Y994696D01*
X984028Y993137D01*
X985896Y992363D01*
Y996564D01*
D02*
G37*
G36*
X1426270Y995470D02*
Y991270D01*
X1430470D01*
X1429696Y993138D01*
X1428138Y994696D01*
X1426270Y995470D01*
D02*
G37*
G36*
X1423730D02*
X1421861Y994696D01*
X1420303Y993138D01*
X1419529Y991270D01*
X1423730D01*
Y995470D01*
D02*
G37*
G36*
X1396270D02*
Y991270D01*
X1400470D01*
X1399696Y993138D01*
X1398138Y994696D01*
X1396270Y995470D01*
D02*
G37*
G36*
X1393730D02*
X1391861Y994696D01*
X1390303Y993138D01*
X1389529Y991270D01*
X1393730D01*
Y995470D01*
D02*
G37*
G36*
X1366270D02*
Y991270D01*
X1370470D01*
X1369696Y993138D01*
X1368138Y994696D01*
X1366270Y995470D01*
D02*
G37*
G36*
X1363730D02*
X1361861Y994696D01*
X1360303Y993138D01*
X1359529Y991270D01*
X1363730D01*
Y995470D01*
D02*
G37*
G36*
X1216270D02*
Y991270D01*
X1220470D01*
X1219696Y993138D01*
X1218138Y994696D01*
X1216270Y995470D01*
D02*
G37*
G36*
X1213730D02*
X1211861Y994696D01*
X1210303Y993138D01*
X1209529Y991270D01*
X1213730D01*
Y995470D01*
D02*
G37*
G36*
X1096270D02*
Y991270D01*
X1100470D01*
X1099696Y993138D01*
X1098138Y994696D01*
X1096270Y995470D01*
D02*
G37*
G36*
X1093730D02*
X1091861Y994696D01*
X1090303Y993138D01*
X1089529Y991270D01*
X1093730D01*
Y995470D01*
D02*
G37*
G36*
X1066270D02*
Y991270D01*
X1070470D01*
X1069696Y993138D01*
X1068138Y994696D01*
X1066270Y995470D01*
D02*
G37*
G36*
X1063730D02*
X1061861Y994696D01*
X1060303Y993138D01*
X1059529Y991270D01*
X1063730D01*
Y995470D01*
D02*
G37*
G36*
X826270D02*
Y991270D01*
X830470D01*
X829696Y993138D01*
X828138Y994696D01*
X826270Y995470D01*
D02*
G37*
G36*
X823730D02*
X821862Y994696D01*
X820303Y993138D01*
X819529Y991270D01*
X823730D01*
Y995470D01*
D02*
G37*
G36*
X676270D02*
Y991270D01*
X680470D01*
X679696Y993138D01*
X678138Y994696D01*
X676270Y995470D01*
D02*
G37*
G36*
X673730D02*
X671862Y994696D01*
X670303Y993138D01*
X669529Y991270D01*
X673730D01*
Y995470D01*
D02*
G37*
G36*
X646270D02*
Y991270D01*
X650470D01*
X649696Y993138D01*
X648138Y994696D01*
X646270Y995470D01*
D02*
G37*
G36*
X643730D02*
X641862Y994696D01*
X640303Y993138D01*
X639529Y991270D01*
X643730D01*
Y995470D01*
D02*
G37*
G36*
X1430470Y988730D02*
X1426270D01*
Y984529D01*
X1428138Y985303D01*
X1429696Y986862D01*
X1430470Y988730D01*
D02*
G37*
G36*
X1423730D02*
X1419529D01*
X1420303Y986862D01*
X1421861Y985303D01*
X1423730Y984529D01*
Y988730D01*
D02*
G37*
G36*
X1400470D02*
X1396270D01*
Y984529D01*
X1398138Y985303D01*
X1399696Y986862D01*
X1400470Y988730D01*
D02*
G37*
G36*
X1393730D02*
X1389529D01*
X1390303Y986862D01*
X1391861Y985303D01*
X1393730Y984529D01*
Y988730D01*
D02*
G37*
G36*
X1370470D02*
X1366270D01*
Y984529D01*
X1368138Y985303D01*
X1369696Y986862D01*
X1370470Y988730D01*
D02*
G37*
G36*
X1363730D02*
X1359529D01*
X1360303Y986862D01*
X1361861Y985303D01*
X1363730Y984529D01*
Y988730D01*
D02*
G37*
G36*
X1220470D02*
X1216270D01*
Y984529D01*
X1218138Y985303D01*
X1219696Y986862D01*
X1220470Y988730D01*
D02*
G37*
G36*
X1213730D02*
X1209529D01*
X1210303Y986862D01*
X1211861Y985303D01*
X1213730Y984529D01*
Y988730D01*
D02*
G37*
G36*
X1100470D02*
X1096270D01*
Y984529D01*
X1098138Y985303D01*
X1099696Y986862D01*
X1100470Y988730D01*
D02*
G37*
G36*
X1093730D02*
X1089529D01*
X1090303Y986862D01*
X1091861Y985303D01*
X1093730Y984529D01*
Y988730D01*
D02*
G37*
G36*
X1070470D02*
X1066270D01*
Y984529D01*
X1068138Y985303D01*
X1069696Y986862D01*
X1070470Y988730D01*
D02*
G37*
G36*
X1063730D02*
X1059529D01*
X1060303Y986862D01*
X1061861Y985303D01*
X1063730Y984529D01*
Y988730D01*
D02*
G37*
G36*
X830470D02*
X826270D01*
Y984529D01*
X828138Y985303D01*
X829696Y986862D01*
X830470Y988730D01*
D02*
G37*
G36*
X823730D02*
X819529D01*
X820303Y986862D01*
X821862Y985303D01*
X823730Y984529D01*
Y988730D01*
D02*
G37*
G36*
X680470D02*
X676270D01*
Y984529D01*
X678138Y985303D01*
X679696Y986862D01*
X680470Y988730D01*
D02*
G37*
G36*
X673730D02*
X669529D01*
X670303Y986862D01*
X671862Y985303D01*
X673730Y984529D01*
Y988730D01*
D02*
G37*
G36*
X650470D02*
X646270D01*
Y984529D01*
X648138Y985303D01*
X649696Y986862D01*
X650470Y988730D01*
D02*
G37*
G36*
X643730D02*
X639529D01*
X640303Y986862D01*
X641862Y985303D01*
X643730Y984529D01*
Y988730D01*
D02*
G37*
G36*
X988436Y979304D02*
Y975104D01*
X992637D01*
X991863Y976972D01*
X990304Y978530D01*
X988436Y979304D01*
D02*
G37*
G36*
X985896D02*
X984028Y978530D01*
X982470Y976972D01*
X981696Y975104D01*
X985896D01*
Y979304D01*
D02*
G37*
G36*
X1153102Y994540D02*
X1150898D01*
X1148862Y993697D01*
X1147303Y992138D01*
X1146460Y990102D01*
Y987898D01*
X1147303Y985862D01*
X1148862Y984303D01*
X1150898Y983460D01*
X1153102D01*
X1155138Y984303D01*
X1155716Y984881D01*
X1185294D01*
X1192460Y977715D01*
Y976898D01*
X1193303Y974862D01*
X1194862Y973303D01*
X1196898Y972460D01*
X1199102D01*
X1201138Y973303D01*
X1202697Y974862D01*
X1203540Y976898D01*
Y979102D01*
X1202697Y981138D01*
X1201138Y982697D01*
X1199102Y983540D01*
X1198285D01*
X1189913Y991913D01*
X1188576Y992806D01*
X1187000Y993119D01*
X1155716D01*
X1155138Y993697D01*
X1153102Y994540D01*
D02*
G37*
G36*
X1109639Y1037874D02*
X1107435D01*
X1105398Y1037030D01*
X1103840Y1035472D01*
X1102997Y1033436D01*
Y1031232D01*
X1103840Y1029196D01*
X1104899Y1028137D01*
X1105289Y1027383D01*
X1104899Y1026477D01*
X1103906Y1025485D01*
X1103063Y1023449D01*
Y1021245D01*
X1103906Y1019209D01*
X1105465Y1017650D01*
X1107501Y1016807D01*
X1109070D01*
X1114881Y1010996D01*
Y981704D01*
X1114862Y981697D01*
X1113303Y980138D01*
X1112460Y978102D01*
Y975898D01*
X1113303Y973862D01*
X1114862Y972303D01*
X1116898Y971460D01*
X1119102D01*
X1121138Y972303D01*
X1122697Y973862D01*
X1123431Y975634D01*
X1124528Y976056D01*
X1124773Y976096D01*
X1125552Y975676D01*
X1126303Y973862D01*
X1127862Y972303D01*
X1129898Y971460D01*
X1132102D01*
X1134138Y972303D01*
X1135697Y973862D01*
X1136540Y975898D01*
Y978102D01*
X1135697Y980138D01*
X1134899Y980936D01*
X1134806Y981405D01*
X1133913Y982741D01*
X1132576Y983634D01*
X1131000Y983948D01*
X1130875D01*
Y1015915D01*
X1130562Y1017491D01*
X1129669Y1018828D01*
X1121130Y1027367D01*
X1114387Y1034109D01*
X1113572Y1034654D01*
X1113233Y1035472D01*
X1111675Y1037030D01*
X1109639Y1037874D01*
D02*
G37*
G36*
X992637Y972564D02*
X988436D01*
Y968363D01*
X990304Y969137D01*
X991863Y970696D01*
X992637Y972564D01*
D02*
G37*
G36*
X985896D02*
X981696D01*
X982470Y970696D01*
X984028Y969137D01*
X985896Y968363D01*
Y972564D01*
D02*
G37*
G36*
X1411270Y965470D02*
Y961270D01*
X1415470D01*
X1414696Y963138D01*
X1413138Y964696D01*
X1411270Y965470D01*
D02*
G37*
G36*
X1408730D02*
X1406861Y964696D01*
X1405303Y963138D01*
X1404529Y961270D01*
X1408730D01*
Y965470D01*
D02*
G37*
G36*
X1381270D02*
Y961270D01*
X1385470D01*
X1384696Y963138D01*
X1383138Y964696D01*
X1381270Y965470D01*
D02*
G37*
G36*
X1378730D02*
X1376861Y964696D01*
X1375303Y963138D01*
X1374529Y961270D01*
X1378730D01*
Y965470D01*
D02*
G37*
G36*
X1351270D02*
Y961270D01*
X1355470D01*
X1354696Y963138D01*
X1353138Y964696D01*
X1351270Y965470D01*
D02*
G37*
G36*
X1348730D02*
X1346861Y964696D01*
X1345303Y963138D01*
X1344529Y961270D01*
X1348730D01*
Y965470D01*
D02*
G37*
G36*
X1291270D02*
Y961270D01*
X1295470D01*
X1294696Y963138D01*
X1293138Y964696D01*
X1291270Y965470D01*
D02*
G37*
G36*
X1288730D02*
X1286862Y964696D01*
X1285303Y963138D01*
X1284529Y961270D01*
X1288730D01*
Y965470D01*
D02*
G37*
G36*
X1231270D02*
Y961270D01*
X1235470D01*
X1234696Y963138D01*
X1233138Y964696D01*
X1231270Y965470D01*
D02*
G37*
G36*
X1228730D02*
X1226861Y964696D01*
X1225303Y963138D01*
X1224529Y961270D01*
X1228730D01*
Y965470D01*
D02*
G37*
G36*
X1081270D02*
Y961270D01*
X1085470D01*
X1084696Y963138D01*
X1083138Y964696D01*
X1081270Y965470D01*
D02*
G37*
G36*
X1078730D02*
X1076861Y964696D01*
X1075303Y963138D01*
X1074529Y961270D01*
X1078730D01*
Y965470D01*
D02*
G37*
G36*
X811270D02*
Y961270D01*
X815470D01*
X814696Y963138D01*
X813138Y964696D01*
X811270Y965470D01*
D02*
G37*
G36*
X808730D02*
X806862Y964696D01*
X805303Y963138D01*
X804529Y961270D01*
X808730D01*
Y965470D01*
D02*
G37*
G36*
X751270D02*
Y961270D01*
X755470D01*
X754696Y963138D01*
X753138Y964696D01*
X751270Y965470D01*
D02*
G37*
G36*
X748730D02*
X746862Y964696D01*
X745303Y963138D01*
X744529Y961270D01*
X748730D01*
Y965470D01*
D02*
G37*
G36*
X691270D02*
Y961270D01*
X695470D01*
X694696Y963138D01*
X693138Y964696D01*
X691270Y965470D01*
D02*
G37*
G36*
X688730D02*
X686862Y964696D01*
X685303Y963138D01*
X684529Y961270D01*
X688730D01*
Y965470D01*
D02*
G37*
G36*
X661270D02*
Y961270D01*
X665470D01*
X664696Y963138D01*
X663138Y964696D01*
X661270Y965470D01*
D02*
G37*
G36*
X658730D02*
X656862Y964696D01*
X655303Y963138D01*
X654529Y961270D01*
X658730D01*
Y965470D01*
D02*
G37*
G36*
X1415470Y958730D02*
X1411270D01*
Y954529D01*
X1413138Y955303D01*
X1414696Y956862D01*
X1415470Y958730D01*
D02*
G37*
G36*
X1408730D02*
X1404529D01*
X1405303Y956862D01*
X1406861Y955303D01*
X1408730Y954529D01*
Y958730D01*
D02*
G37*
G36*
X1385470D02*
X1381270D01*
Y954529D01*
X1383138Y955303D01*
X1384696Y956862D01*
X1385470Y958730D01*
D02*
G37*
G36*
X1378730D02*
X1374529D01*
X1375303Y956862D01*
X1376861Y955303D01*
X1378730Y954529D01*
Y958730D01*
D02*
G37*
G36*
X1355470D02*
X1351270D01*
Y954529D01*
X1353138Y955303D01*
X1354696Y956862D01*
X1355470Y958730D01*
D02*
G37*
G36*
X1348730D02*
X1344529D01*
X1345303Y956862D01*
X1346861Y955303D01*
X1348730Y954529D01*
Y958730D01*
D02*
G37*
G36*
X1295470D02*
X1291270D01*
Y954529D01*
X1293138Y955303D01*
X1294696Y956862D01*
X1295470Y958730D01*
D02*
G37*
G36*
X1288730D02*
X1284529D01*
X1285303Y956862D01*
X1286862Y955303D01*
X1288730Y954529D01*
Y958730D01*
D02*
G37*
G36*
X1235470D02*
X1231270D01*
Y954529D01*
X1233138Y955303D01*
X1234696Y956862D01*
X1235470Y958730D01*
D02*
G37*
G36*
X1228730D02*
X1224529D01*
X1225303Y956862D01*
X1226861Y955303D01*
X1228730Y954529D01*
Y958730D01*
D02*
G37*
G36*
X1085470D02*
X1081270D01*
Y954529D01*
X1083138Y955303D01*
X1084696Y956862D01*
X1085470Y958730D01*
D02*
G37*
G36*
X1078730D02*
X1074529D01*
X1075303Y956862D01*
X1076861Y955303D01*
X1078730Y954529D01*
Y958730D01*
D02*
G37*
G36*
X815470D02*
X811270D01*
Y954529D01*
X813138Y955303D01*
X814696Y956862D01*
X815470Y958730D01*
D02*
G37*
G36*
X808730D02*
X804529D01*
X805303Y956862D01*
X806862Y955303D01*
X808730Y954529D01*
Y958730D01*
D02*
G37*
G36*
X755470D02*
X751270D01*
Y954529D01*
X753138Y955303D01*
X754696Y956862D01*
X755470Y958730D01*
D02*
G37*
G36*
X748730D02*
X744529D01*
X745303Y956862D01*
X746862Y955303D01*
X748730Y954529D01*
Y958730D01*
D02*
G37*
G36*
X695470D02*
X691270D01*
Y954529D01*
X693138Y955303D01*
X694696Y956862D01*
X695470Y958730D01*
D02*
G37*
G36*
X688730D02*
X684529D01*
X685303Y956862D01*
X686862Y955303D01*
X688730Y954529D01*
Y958730D01*
D02*
G37*
G36*
X665470D02*
X661270D01*
Y954529D01*
X663138Y955303D01*
X664696Y956862D01*
X665470Y958730D01*
D02*
G37*
G36*
X658730D02*
X654529D01*
X655303Y956862D01*
X656862Y955303D01*
X658730Y954529D01*
Y958730D01*
D02*
G37*
%LPD*%
D14*
X1285971Y622275D02*
X1306725D01*
X1338000Y591000D01*
X1257000Y562000D02*
X1263000Y568000D01*
X1296000D01*
X1385000Y570000D02*
X1401000Y586000D01*
X1309000Y570000D02*
X1385000D01*
X1300000Y561000D02*
X1309000Y570000D01*
X1375000Y575000D02*
X1386000Y586000D01*
X1303000Y575000D02*
X1375000D01*
X1296000Y568000D02*
X1303000Y575000D01*
X865000Y803000D02*
X893000D01*
X916350Y826350D01*
D15*
X769843Y832540D02*
Y847775D01*
X777460Y840157D01*
X767303D01*
D69*
X1238600Y501000D02*
D03*
X1325000D02*
D03*
D70*
X1238600Y542800D02*
D03*
X1325000D02*
D03*
D71*
X1252900Y537800D02*
D03*
X1310700D02*
D03*
D81*
X1109355Y1022347D02*
X1119000Y1012702D01*
X1108603Y1022347D02*
X1109355D01*
X1111475Y1031197D02*
X1118217Y1024454D01*
X1108537Y1031197D02*
X1111475D01*
X1108537D02*
Y1032334D01*
X1118217Y1024454D02*
X1126756Y1015915D01*
X1119000Y978000D02*
Y1012702D01*
X1126756Y981334D02*
Y1015915D01*
X1131000Y977000D02*
Y979828D01*
X1127256D02*
X1131000D01*
X1127256D02*
Y980834D01*
X1126756Y981334D02*
X1127256Y980834D01*
X1140110Y554500D02*
Y566110D01*
Y554500D02*
X1161210Y533400D01*
X1168400D01*
X1140110Y566110D02*
X1148000Y574000D01*
X1133766Y617760D02*
X1135014Y619008D01*
X1133766Y543234D02*
Y617760D01*
Y543234D02*
X1157000Y520000D01*
X1213500D01*
X1215750Y522250D01*
X667000Y761000D02*
X668000Y762000D01*
X667000Y649000D02*
Y761000D01*
Y649000D02*
X677000Y639000D01*
X762000D01*
X780000Y657000D01*
X857000Y765000D02*
X857000Y765000D01*
X879000D01*
Y757000D02*
X886000Y750000D01*
X907000D01*
X879000Y757000D02*
Y765000D01*
X914000Y757000D02*
Y764000D01*
X907000Y750000D02*
X914000Y757000D01*
X1290000Y657000D02*
X1301000Y646000D01*
X1181000Y657000D02*
X1290000D01*
X1135014Y619008D02*
X1173006Y657000D01*
X1181000D01*
X1301000Y646000D02*
X1333000D01*
X1372000D02*
X1398000D01*
X1333000D02*
X1372000D01*
Y629000D02*
Y646000D01*
X1398000D02*
X1415000Y629000D01*
X1333000Y636040D02*
Y646000D01*
X1277000Y629000D02*
X1315000D01*
X1323000Y621000D01*
X1378000D01*
X1386000Y629000D01*
X1240000Y636000D02*
Y644000D01*
X1211000Y607000D02*
X1240000Y636000D01*
X1148000Y574000D02*
X1155000D01*
X1225000Y644000D02*
X1229000D01*
X1155000Y574000D02*
X1225000Y644000D01*
X1238000Y573000D02*
X1248000Y583000D01*
X1355000D02*
X1401000Y629000D01*
X1248000Y583000D02*
X1355000D01*
X1256000Y608000D02*
X1277000Y629000D01*
X1148000Y559000D02*
X1177000D01*
X1255000Y637000D02*
Y644000D01*
X1177000Y559000D02*
X1255000Y637000D01*
X827000Y665000D02*
X876292D01*
X800000Y692000D02*
X827000Y665000D01*
X799000Y736000D02*
X834000Y701000D01*
X838000D01*
X1131000Y779000D02*
Y844000D01*
X1123000Y771000D02*
X1131000Y779000D01*
X1118000Y771000D02*
X1123000D01*
X1118000Y790000D02*
Y844000D01*
X822000Y573000D02*
X931000D01*
X775000Y736000D02*
X799000D01*
X778000Y692000D02*
X800000D01*
X1187000Y989000D02*
X1198000Y978000D01*
X1152000Y989000D02*
X1187000D01*
X698000Y727000D02*
X745000Y774000D01*
X698000Y675034D02*
Y727000D01*
X745000Y774000D02*
X960000D01*
X677000Y664000D02*
Y729000D01*
X751000Y803000D01*
X834000D01*
X960000Y774000D02*
X989000Y745000D01*
X1147000D01*
X1172000Y770000D01*
X1171960Y826370D02*
X1172000Y826410D01*
X1171960Y819710D02*
Y826370D01*
Y819710D02*
X1172000Y819670D01*
Y826410D02*
Y832000D01*
Y770000D02*
Y819670D01*
X1166000Y838000D02*
X1172000Y832000D01*
X1118000Y977000D02*
X1119000Y978000D01*
D82*
X944175Y686825D02*
X975000Y656000D01*
Y649203D02*
Y656000D01*
X890445Y686825D02*
X944175D01*
X975250Y724250D02*
Y732500D01*
X944175Y693175D02*
X975250Y724250D01*
X893075Y693175D02*
X944175D01*
X747250Y756945D02*
X749345Y754850D01*
X747250Y746405D02*
X749345Y748500D01*
X828770D01*
X749345Y754850D02*
X831400D01*
X828770Y748500D02*
X890445Y686825D01*
X831400Y754850D02*
X893075Y693175D01*
D83*
X610000Y639000D02*
Y736000D01*
X628650Y704400D02*
Y754650D01*
X610000Y736000D02*
X628650Y754650D01*
X610000Y639000D02*
X649000Y600000D01*
X914000D01*
Y619000D02*
Y645914D01*
X858914Y701000D02*
X914000Y645914D01*
X853000Y701000D02*
X858914D01*
X914000Y600000D02*
Y619000D01*
Y600000D02*
X923000Y591000D01*
X851000Y787000D02*
X913000D01*
X834000D02*
X851000D01*
X834000Y833000D02*
X851000Y816000D01*
Y787000D02*
Y816000D01*
X913000Y787000D02*
X927000Y801000D01*
X929000D01*
X1279000Y748000D02*
Y806000D01*
X1255000Y830000D02*
X1279000Y806000D01*
X1212250Y830000D02*
X1255000D01*
X1147000Y861000D02*
X1181250D01*
X1026000D02*
X1147000D01*
Y791000D02*
Y861000D01*
X1181250D02*
X1212250Y830000D01*
X989000Y824000D02*
X1026000Y861000D01*
X989000Y813000D02*
Y824000D01*
X977000Y801000D02*
X989000Y813000D01*
X929000Y801000D02*
X977000D01*
X820000Y833000D02*
X834000D01*
X800000Y813000D02*
X820000Y833000D01*
X687000Y813000D02*
X800000D01*
X636000Y762000D02*
X687000Y813000D01*
X628650Y754650D02*
X636000Y762000D01*
D84*
X1324350Y980650D02*
D03*
X1265650D02*
D03*
X1324350Y1039350D02*
D03*
X1265650D02*
D03*
X1324350Y1110650D02*
D03*
X1265650D02*
D03*
X1324350Y1169350D02*
D03*
X1265650D02*
D03*
X725650Y1039350D02*
D03*
X784350D02*
D03*
X725650Y980650D02*
D03*
X784350D02*
D03*
X784350Y1110650D02*
D03*
X725650D02*
D03*
X784350Y1169350D02*
D03*
X725650D02*
D03*
D85*
X641350Y653600D02*
D03*
Y666300D02*
D03*
X628650Y653600D02*
D03*
Y666300D02*
D03*
X641350Y679000D02*
D03*
Y691700D02*
D03*
X628650Y679000D02*
D03*
Y691700D02*
D03*
X641350Y704400D02*
D03*
D86*
X628650D02*
D03*
D87*
X1410000Y790000D02*
D03*
D88*
Y815400D02*
D03*
D89*
X1400000Y525000D02*
D03*
X650000D02*
D03*
X1400000Y1175000D02*
D03*
X650000D02*
D03*
D90*
X987166Y973834D02*
D03*
Y997834D02*
D03*
Y1023834D02*
D03*
X1108603Y1022347D02*
D03*
X1108537Y1032334D02*
D03*
X1026000Y755000D02*
D03*
Y839000D02*
D03*
X1113000Y650000D02*
D03*
X765000Y789000D02*
D03*
X650609Y736631D02*
D03*
X861000Y615000D02*
D03*
X816000Y649000D02*
D03*
X790000Y622000D02*
D03*
X1375000Y855000D02*
D03*
X1297000D02*
D03*
X1260000D02*
D03*
X1297000Y795000D02*
D03*
X1260000D02*
D03*
X1425000Y550000D02*
D03*
X1400000Y500000D02*
D03*
X1350000Y600000D02*
D03*
X1375000Y550000D02*
D03*
X1350000Y500000D02*
D03*
X1300000Y600000D02*
D03*
X1150000D02*
D03*
X1125000Y550000D02*
D03*
X1100000Y500000D02*
D03*
X1425000Y750000D02*
D03*
X1350000Y800000D02*
D03*
X1375000Y750000D02*
D03*
X1200000Y800000D02*
D03*
X1225000Y750000D02*
D03*
X1175000D02*
D03*
X1050000Y800000D02*
D03*
X1000000D02*
D03*
Y700000D02*
D03*
Y500000D02*
D03*
X975000Y550000D02*
D03*
X950000Y500000D02*
D03*
X925000Y550000D02*
D03*
X900000Y500000D02*
D03*
X875000Y550000D02*
D03*
X850000Y500000D02*
D03*
X825000Y550000D02*
D03*
X800000Y500000D02*
D03*
X775000Y550000D02*
D03*
X750000Y500000D02*
D03*
X700000Y800000D02*
D03*
X725000Y550000D02*
D03*
X700000Y500000D02*
D03*
X650000Y800000D02*
D03*
X675000Y550000D02*
D03*
X650000Y500000D02*
D03*
X1157000Y567000D02*
D03*
X1114000Y522000D02*
D03*
X857000Y765000D02*
D03*
X627000Y770000D02*
D03*
X1110334Y780275D02*
D03*
X821997Y562354D02*
D03*
X923529Y565748D02*
D03*
X985500Y732500D02*
D03*
X986000Y650000D02*
D03*
X872000Y812000D02*
D03*
X687000Y672000D02*
D03*
X833000Y692000D02*
D03*
X786000Y684000D02*
D03*
X764000Y736000D02*
D03*
X1372000Y612000D02*
D03*
Y629000D02*
D03*
X1135014Y619008D02*
D03*
X1122000Y619000D02*
D03*
X1240000Y644000D02*
D03*
X1211000Y607000D02*
D03*
X1215000Y644000D02*
D03*
X1415000Y629000D02*
D03*
X1416000Y615000D02*
D03*
X1242000Y562000D02*
D03*
X1319391Y562390D02*
D03*
X1401000Y586000D02*
D03*
X1386000D02*
D03*
X1333000Y636040D02*
D03*
X1348000D02*
D03*
Y591000D02*
D03*
X1170000Y549000D02*
D03*
X1200289Y607057D02*
D03*
X1215750Y522250D02*
D03*
Y533250D02*
D03*
X1386000Y629000D02*
D03*
X1256000Y608000D02*
D03*
X1239000Y607000D02*
D03*
X1401000Y629000D02*
D03*
X1238000Y573000D02*
D03*
X1255000Y644000D02*
D03*
X1148000Y559000D02*
D03*
X1229000Y644000D02*
D03*
X1148000Y574000D02*
D03*
X838500Y720000D02*
D03*
X854000Y712000D02*
D03*
X838000Y701000D02*
D03*
X929000Y801000D02*
D03*
X989000Y839000D02*
D03*
Y824000D02*
D03*
X923000Y591000D02*
D03*
X1147000Y791000D02*
D03*
X1118000Y771000D02*
D03*
Y790000D02*
D03*
X636000Y762000D02*
D03*
X780000Y657000D02*
D03*
X668000Y762000D02*
D03*
X789000Y668000D02*
D03*
X853000Y701000D02*
D03*
X679500Y773000D02*
D03*
X660000Y960000D02*
D03*
X1410000Y1140000D02*
D03*
X1425000Y1110000D02*
D03*
X1410000Y1080000D02*
D03*
X1425000Y1050000D02*
D03*
X1410000Y1020000D02*
D03*
X1425000Y990000D02*
D03*
X1410000Y960000D02*
D03*
X1380000Y1200000D02*
D03*
Y1140000D02*
D03*
X1395000Y1110000D02*
D03*
X1380000Y1080000D02*
D03*
X1395000Y1050000D02*
D03*
X1380000Y1020000D02*
D03*
X1395000Y990000D02*
D03*
X1380000Y960000D02*
D03*
X1350000Y1080000D02*
D03*
X1365000Y1050000D02*
D03*
X1350000Y1020000D02*
D03*
X1365000Y990000D02*
D03*
X1350000Y960000D02*
D03*
X1290000D02*
D03*
X1245000Y1050000D02*
D03*
X1230000Y1020000D02*
D03*
Y960000D02*
D03*
X1215000Y1050000D02*
D03*
Y990000D02*
D03*
X1185000Y1050000D02*
D03*
X1170000Y1020000D02*
D03*
X1155000Y1050000D02*
D03*
X1125000D02*
D03*
X1095000D02*
D03*
Y990000D02*
D03*
X1080000Y960000D02*
D03*
X1065000Y1050000D02*
D03*
Y990000D02*
D03*
X900000Y1200000D02*
D03*
X810000Y1020000D02*
D03*
X825000Y990000D02*
D03*
X810000Y960000D02*
D03*
X750000D02*
D03*
X705000Y1050000D02*
D03*
X690000Y1020000D02*
D03*
Y960000D02*
D03*
X660000Y1140000D02*
D03*
Y1080000D02*
D03*
X675000Y1050000D02*
D03*
X660000Y1020000D02*
D03*
X675000Y990000D02*
D03*
X630000Y1140000D02*
D03*
X645000Y1110000D02*
D03*
X630000Y1080000D02*
D03*
X645000Y1050000D02*
D03*
X630000Y1020000D02*
D03*
X645000Y990000D02*
D03*
X755000Y655000D02*
D03*
X968000Y534000D02*
D03*
X943000Y605000D02*
D03*
X822000Y573000D02*
D03*
X931000D02*
D03*
X778000Y692000D02*
D03*
X876000Y665000D02*
D03*
X1198000Y978000D02*
D03*
X1152000Y989000D02*
D03*
X685000Y619000D02*
D03*
X899000Y619000D02*
D03*
X951000Y666000D02*
D03*
Y718000D02*
D03*
X698000Y675034D02*
D03*
X677000Y664000D02*
D03*
X775000Y736000D02*
D03*
X834000Y803000D02*
D03*
X914000Y619000D02*
D03*
X929000D02*
D03*
X747250Y756945D02*
D03*
Y746405D02*
D03*
X975250Y732500D02*
D03*
X975250Y649500D02*
D03*
X865000Y803000D02*
D03*
X916350Y826350D02*
D03*
X1212000Y815000D02*
D03*
X1212250Y830000D02*
D03*
X1253000Y748000D02*
D03*
X1279000D02*
D03*
X1316000D02*
D03*
X1330000D02*
D03*
X1350000Y815000D02*
D03*
X879000Y765000D02*
D03*
X894000Y764000D02*
D03*
X929000D02*
D03*
X914000D02*
D03*
X834000Y833000D02*
D03*
Y787000D02*
D03*
X1099000Y815000D02*
D03*
X1166000Y838000D02*
D03*
X1180000Y823040D02*
D03*
X1131000Y844000D02*
D03*
X1118000D02*
D03*
X865000Y841000D02*
D03*
X942000Y820000D02*
D03*
X1131000Y977000D02*
D03*
X1118000D02*
D03*
D91*
X1282000Y645000D02*
D03*
X1168400Y533400D02*
D03*
Y508000D02*
D03*
D92*
X1257000Y562000D02*
D03*
X1300000Y561000D02*
D03*
X1193024Y496244D02*
D03*
X1338000Y591000D02*
D03*
X1291000Y575000D02*
D03*
X1285971Y622275D02*
D03*
M02*
