G04*
G04 #@! TF.GenerationSoftware,Altium Limited,Altium Designer,24.2.2 (26)*
G04*
G04 Layer_Color=8388736*
%FSLAX44Y44*%
%MOMM*%
G71*
G04*
G04 #@! TF.SameCoordinates,6A8CA8D3-F6E6-494B-9A6B-4A02BC4B17F5*
G04*
G04*
G04 #@! TF.FilePolarity,Negative*
G04*
G01*
G75*
%ADD19R,0.3000X1.1500*%
%ADD20R,0.6000X1.1500*%
G04:AMPARAMS|DCode=21|XSize=0.5213mm|YSize=1.1725mm|CornerRadius=0mm|HoleSize=0mm|Usage=FLASHONLY|Rotation=45.000|XOffset=0mm|YOffset=0mm|HoleType=Round|Shape=Rectangle|*
%AMROTATEDRECTD21*
4,1,4,0.2302,-0.5988,-0.5988,0.2302,-0.2302,0.5988,0.5988,-0.2302,0.2302,-0.5988,0.0*
%
%ADD21ROTATEDRECTD21*%

G04:AMPARAMS|DCode=39|XSize=1.65mm|YSize=4.41mm|CornerRadius=0.0495mm|HoleSize=0mm|Usage=FLASHONLY|Rotation=270.000|XOffset=0mm|YOffset=0mm|HoleType=Round|Shape=RoundedRectangle|*
%AMROUNDEDRECTD39*
21,1,1.6500,4.3110,0,0,270.0*
21,1,1.5510,4.4100,0,0,270.0*
1,1,0.0990,-2.1555,-0.7755*
1,1,0.0990,-2.1555,0.7755*
1,1,0.0990,2.1555,0.7755*
1,1,0.0990,2.1555,-0.7755*
%
%ADD39ROUNDEDRECTD39*%
G04:AMPARAMS|DCode=40|XSize=1.65mm|YSize=0.6mm|CornerRadius=0.051mm|HoleSize=0mm|Usage=FLASHONLY|Rotation=270.000|XOffset=0mm|YOffset=0mm|HoleType=Round|Shape=RoundedRectangle|*
%AMROUNDEDRECTD40*
21,1,1.6500,0.4980,0,0,270.0*
21,1,1.5480,0.6000,0,0,270.0*
1,1,0.1020,-0.2490,-0.7740*
1,1,0.1020,-0.2490,0.7740*
1,1,0.1020,0.2490,0.7740*
1,1,0.1020,0.2490,-0.7740*
%
%ADD40ROUNDEDRECTD40*%
%ADD45C,3.0000*%
G04:AMPARAMS|DCode=46|XSize=2.1032mm|YSize=1.6032mm|CornerRadius=0.4516mm|HoleSize=0mm|Usage=FLASHONLY|Rotation=0.000|XOffset=0mm|YOffset=0mm|HoleType=Round|Shape=RoundedRectangle|*
%AMROUNDEDRECTD46*
21,1,2.1032,0.7000,0,0,0.0*
21,1,1.2000,1.6032,0,0,0.0*
1,1,0.9032,0.6000,-0.3500*
1,1,0.9032,-0.6000,-0.3500*
1,1,0.9032,-0.6000,0.3500*
1,1,0.9032,0.6000,0.3500*
%
%ADD46ROUNDEDRECTD46*%
%ADD47C,1.2032*%
G04:AMPARAMS|DCode=48|XSize=1.2032mm|YSize=1.2532mm|CornerRadius=0.3516mm|HoleSize=0mm|Usage=FLASHONLY|Rotation=90.000|XOffset=0mm|YOffset=0mm|HoleType=Round|Shape=RoundedRectangle|*
%AMROUNDEDRECTD48*
21,1,1.2032,0.5500,0,0,90.0*
21,1,0.5000,1.2532,0,0,90.0*
1,1,0.7032,0.2750,0.2500*
1,1,0.7032,0.2750,-0.2500*
1,1,0.7032,-0.2750,-0.2500*
1,1,0.7032,-0.2750,0.2500*
%
%ADD48ROUNDEDRECTD48*%
G04:AMPARAMS|DCode=49|XSize=1.1032mm|YSize=1.0032mm|CornerRadius=0.3016mm|HoleSize=0mm|Usage=FLASHONLY|Rotation=0.000|XOffset=0mm|YOffset=0mm|HoleType=Round|Shape=RoundedRectangle|*
%AMROUNDEDRECTD49*
21,1,1.1032,0.4000,0,0,0.0*
21,1,0.5000,1.0032,0,0,0.0*
1,1,0.6032,0.2500,-0.2000*
1,1,0.6032,-0.2500,-0.2000*
1,1,0.6032,-0.2500,0.2000*
1,1,0.6032,0.2500,0.2000*
%
%ADD49ROUNDEDRECTD49*%
G04:AMPARAMS|DCode=50|XSize=1.1032mm|YSize=1.0532mm|CornerRadius=0.3141mm|HoleSize=0mm|Usage=FLASHONLY|Rotation=0.000|XOffset=0mm|YOffset=0mm|HoleType=Round|Shape=RoundedRectangle|*
%AMROUNDEDRECTD50*
21,1,1.1032,0.4250,0,0,0.0*
21,1,0.4750,1.0532,0,0,0.0*
1,1,0.6282,0.2375,-0.2125*
1,1,0.6282,-0.2375,-0.2125*
1,1,0.6282,-0.2375,0.2125*
1,1,0.6282,0.2375,0.2125*
%
%ADD50ROUNDEDRECTD50*%
G04:AMPARAMS|DCode=51|XSize=1.2032mm|YSize=1.2532mm|CornerRadius=0.3516mm|HoleSize=0mm|Usage=FLASHONLY|Rotation=135.000|XOffset=0mm|YOffset=0mm|HoleType=Round|Shape=RoundedRectangle|*
%AMROUNDEDRECTD51*
21,1,1.2032,0.5500,0,0,135.0*
21,1,0.5000,1.2532,0,0,135.0*
1,1,0.7032,0.0177,0.3712*
1,1,0.7032,0.3712,0.0177*
1,1,0.7032,-0.0177,-0.3712*
1,1,0.7032,-0.3712,-0.0177*
%
%ADD51ROUNDEDRECTD51*%
G04:AMPARAMS|DCode=52|XSize=0.5032mm|YSize=0.4532mm|CornerRadius=0mm|HoleSize=0mm|Usage=FLASHONLY|Rotation=315.000|XOffset=0mm|YOffset=0mm|HoleType=Round|Shape=Rectangle|*
%AMROTATEDRECTD52*
4,1,4,-0.3381,0.0177,-0.0177,0.3381,0.3381,-0.0177,0.0177,-0.3381,-0.3381,0.0177,0.0*
%
%ADD52ROTATEDRECTD52*%

G04:AMPARAMS|DCode=53|XSize=0.5032mm|YSize=0.4532mm|CornerRadius=0mm|HoleSize=0mm|Usage=FLASHONLY|Rotation=225.000|XOffset=0mm|YOffset=0mm|HoleType=Round|Shape=Rectangle|*
%AMROTATEDRECTD53*
4,1,4,0.0177,0.3381,0.3381,0.0177,-0.0177,-0.3381,-0.3381,-0.0177,0.0177,0.3381,0.0*
%
%ADD53ROTATEDRECTD53*%

G04:AMPARAMS|DCode=54|XSize=0.5032mm|YSize=1.2032mm|CornerRadius=0mm|HoleSize=0mm|Usage=FLASHONLY|Rotation=225.000|XOffset=0mm|YOffset=0mm|HoleType=Round|Shape=Rectangle|*
%AMROTATEDRECTD54*
4,1,4,-0.2475,0.6033,0.6033,-0.2475,0.2475,-0.6033,-0.6033,0.2475,-0.2475,0.6033,0.0*
%
%ADD54ROTATEDRECTD54*%

G04:AMPARAMS|DCode=55|XSize=0.5032mm|YSize=1.2032mm|CornerRadius=0mm|HoleSize=0mm|Usage=FLASHONLY|Rotation=135.000|XOffset=0mm|YOffset=0mm|HoleType=Round|Shape=Rectangle|*
%AMROTATEDRECTD55*
4,1,4,0.6033,0.2475,-0.2475,-0.6033,-0.6033,-0.2475,0.2475,0.6033,0.6033,0.2475,0.0*
%
%ADD55ROTATEDRECTD55*%

%ADD56R,0.7032X0.8032*%
G04:AMPARAMS|DCode=57|XSize=1.2032mm|YSize=1.2532mm|CornerRadius=0.3516mm|HoleSize=0mm|Usage=FLASHONLY|Rotation=0.000|XOffset=0mm|YOffset=0mm|HoleType=Round|Shape=RoundedRectangle|*
%AMROUNDEDRECTD57*
21,1,1.2032,0.5500,0,0,0.0*
21,1,0.5000,1.2532,0,0,0.0*
1,1,0.7032,0.2500,-0.2750*
1,1,0.7032,-0.2500,-0.2750*
1,1,0.7032,-0.2500,0.2750*
1,1,0.7032,0.2500,0.2750*
%
%ADD57ROUNDEDRECTD57*%
%ADD58R,0.5532X0.5532*%
%ADD59O,0.5032X1.2532*%
%ADD60R,0.8032X0.7032*%
G04:AMPARAMS|DCode=61|XSize=1.1032mm|YSize=1.0532mm|CornerRadius=0.3141mm|HoleSize=0mm|Usage=FLASHONLY|Rotation=270.000|XOffset=0mm|YOffset=0mm|HoleType=Round|Shape=RoundedRectangle|*
%AMROUNDEDRECTD61*
21,1,1.1032,0.4250,0,0,270.0*
21,1,0.4750,1.0532,0,0,270.0*
1,1,0.6282,-0.2125,-0.2375*
1,1,0.6282,-0.2125,0.2375*
1,1,0.6282,0.2125,0.2375*
1,1,0.6282,0.2125,-0.2375*
%
%ADD61ROUNDEDRECTD61*%
G04:AMPARAMS|DCode=62|XSize=0.8032mm|YSize=1.4032mm|CornerRadius=0.2516mm|HoleSize=0mm|Usage=FLASHONLY|Rotation=180.000|XOffset=0mm|YOffset=0mm|HoleType=Round|Shape=RoundedRectangle|*
%AMROUNDEDRECTD62*
21,1,0.8032,0.9000,0,0,180.0*
21,1,0.3000,1.4032,0,0,180.0*
1,1,0.5032,-0.1500,0.4500*
1,1,0.5032,0.1500,0.4500*
1,1,0.5032,0.1500,-0.4500*
1,1,0.5032,-0.1500,-0.4500*
%
%ADD62ROUNDEDRECTD62*%
%ADD63R,1.0032X1.0032*%
G04:AMPARAMS|DCode=64|XSize=0.6532mm|YSize=1.5532mm|CornerRadius=0.1511mm|HoleSize=0mm|Usage=FLASHONLY|Rotation=270.000|XOffset=0mm|YOffset=0mm|HoleType=Round|Shape=RoundedRectangle|*
%AMROUNDEDRECTD64*
21,1,0.6532,1.2510,0,0,270.0*
21,1,0.3510,1.5532,0,0,270.0*
1,1,0.3022,-0.6255,-0.1755*
1,1,0.3022,-0.6255,0.1755*
1,1,0.3022,0.6255,0.1755*
1,1,0.3022,0.6255,-0.1755*
%
%ADD64ROUNDEDRECTD64*%
%ADD65O,0.8032X2.2032*%
G04:AMPARAMS|DCode=66|XSize=1.8032mm|YSize=1.3532mm|CornerRadius=0.3891mm|HoleSize=0mm|Usage=FLASHONLY|Rotation=0.000|XOffset=0mm|YOffset=0mm|HoleType=Round|Shape=RoundedRectangle|*
%AMROUNDEDRECTD66*
21,1,1.8032,0.5750,0,0,0.0*
21,1,1.0250,1.3532,0,0,0.0*
1,1,0.7782,0.5125,-0.2875*
1,1,0.7782,-0.5125,-0.2875*
1,1,0.7782,-0.5125,0.2875*
1,1,0.7782,0.5125,0.2875*
%
%ADD66ROUNDEDRECTD66*%
%ADD67O,0.7032X1.8032*%
%ADD68O,2.6532X0.9032*%
G04:AMPARAMS|DCode=69|XSize=1mm|YSize=1.8mm|CornerRadius=0.5mm|HoleSize=0mm|Usage=FLASHONLY|Rotation=0.000|XOffset=0mm|YOffset=0mm|HoleType=Round|Shape=RoundedRectangle|*
%AMROUNDEDRECTD69*
21,1,1.0000,0.8000,0,0,0.0*
21,1,0.0000,1.8000,0,0,0.0*
1,1,1.0000,0.0000,-0.4000*
1,1,1.0000,0.0000,-0.4000*
1,1,1.0000,0.0000,0.4000*
1,1,1.0000,0.0000,0.4000*
%
%ADD69ROUNDEDRECTD69*%
G04:AMPARAMS|DCode=70|XSize=1mm|YSize=2.1mm|CornerRadius=0.5mm|HoleSize=0mm|Usage=FLASHONLY|Rotation=0.000|XOffset=0mm|YOffset=0mm|HoleType=Round|Shape=RoundedRectangle|*
%AMROUNDEDRECTD70*
21,1,1.0000,1.1000,0,0,0.0*
21,1,0.0000,2.1000,0,0,0.0*
1,1,1.0000,0.0000,-0.5500*
1,1,1.0000,0.0000,-0.5500*
1,1,1.0000,0.0000,0.5500*
1,1,1.0000,0.0000,0.5500*
%
%ADD70ROUNDEDRECTD70*%
%ADD71C,0.6500*%
%ADD72C,3.4032*%
%ADD73C,1.1532*%
G04:AMPARAMS|DCode=74|XSize=1.1532mm|YSize=1.1532mm|CornerRadius=0.3391mm|HoleSize=0mm|Usage=FLASHONLY|Rotation=270.000|XOffset=0mm|YOffset=0mm|HoleType=Round|Shape=RoundedRectangle|*
%AMROUNDEDRECTD74*
21,1,1.1532,0.4750,0,0,270.0*
21,1,0.4750,1.1532,0,0,270.0*
1,1,0.6782,-0.2375,-0.2375*
1,1,0.6782,-0.2375,0.2375*
1,1,0.6782,0.2375,0.2375*
1,1,0.6782,0.2375,-0.2375*
%
%ADD74ROUNDEDRECTD74*%
G04:AMPARAMS|DCode=75|XSize=2.1532mm|YSize=2.1532mm|CornerRadius=0.5891mm|HoleSize=0mm|Usage=FLASHONLY|Rotation=90.000|XOffset=0mm|YOffset=0mm|HoleType=Round|Shape=RoundedRectangle|*
%AMROUNDEDRECTD75*
21,1,2.1532,0.9750,0,0,90.0*
21,1,0.9750,2.1532,0,0,90.0*
1,1,1.1782,0.4875,0.4875*
1,1,1.1782,0.4875,-0.4875*
1,1,1.1782,-0.4875,-0.4875*
1,1,1.1782,-0.4875,0.4875*
%
%ADD75ROUNDEDRECTD75*%
%ADD76C,2.1532*%
%ADD77C,3.7032*%
%ADD78C,0.8032*%
%ADD79C,1.4732*%
%ADD80C,0.7032*%
G36*
X1450000Y873000D02*
X600000D01*
Y947000D01*
X1450000D01*
Y873000D01*
D02*
G37*
G36*
X790000Y820000D02*
X630000D01*
Y860000D01*
X790000D01*
Y820000D01*
D02*
G37*
G36*
X738760Y726225D02*
X738891Y726198D01*
X739018Y726155D01*
X739138Y726096D01*
X739249Y726022D01*
X739349Y725934D01*
X741471Y723812D01*
X741559Y723712D01*
X741633Y723601D01*
X741653Y723561D01*
X741692Y723481D01*
X741735Y723354D01*
X741761Y723223D01*
X741770Y723090D01*
X741761Y722956D01*
X741735Y722825D01*
X741692Y722699D01*
X741633Y722579D01*
X741559Y722467D01*
X741471Y722367D01*
X736344Y717240D01*
X736244Y717152D01*
X736132Y717078D01*
X736012Y717019D01*
X735886Y716976D01*
X735755Y716950D01*
X735621Y716941D01*
X735488Y716950D01*
X735357Y716976D01*
X735230Y717019D01*
X735110Y717078D01*
X734999Y717152D01*
X734899Y717240D01*
X733802Y718336D01*
X733714Y718437D01*
X733640Y718548D01*
X733581Y718668D01*
X733538Y718795D01*
X733512Y718926D01*
X733503Y719059D01*
X733503Y721110D01*
X733512Y721243D01*
X733538Y721374D01*
X733559Y721438D01*
X733581Y721501D01*
X733640Y721621D01*
X733714Y721732D01*
X733802Y721833D01*
X737904Y725934D01*
X738004Y726022D01*
X738115Y726096D01*
X738235Y726155D01*
X738362Y726198D01*
X738493Y726225D01*
X738626Y726233D01*
X738760Y726225D01*
D02*
G37*
G36*
X728507D02*
X728638Y726198D01*
X728765Y726155D01*
X728885Y726096D01*
X728996Y726022D01*
X729096Y725934D01*
X733197Y721833D01*
X733286Y721732D01*
X733360Y721621D01*
X733419Y721501D01*
X733440Y721438D01*
X733462Y721374D01*
X733488Y721243D01*
X733497Y721110D01*
X733497Y719059D01*
X733488Y718926D01*
X733462Y718795D01*
X733419Y718668D01*
X733360Y718548D01*
X733286Y718437D01*
X733197Y718336D01*
X732102Y717240D01*
X732001Y717152D01*
X731890Y717078D01*
X731770Y717019D01*
X731643Y716976D01*
X731512Y716950D01*
X731379Y716941D01*
X731245Y716950D01*
X731114Y716976D01*
X730987Y717019D01*
X730868Y717078D01*
X730757Y717152D01*
X730656Y717240D01*
X725529Y722367D01*
X725441Y722467D01*
X725367Y722579D01*
X725308Y722699D01*
X725265Y722825D01*
X725239Y722956D01*
X725230Y723090D01*
X725239Y723223D01*
X725265Y723354D01*
X725308Y723481D01*
X725347Y723561D01*
X725367Y723601D01*
X725441Y723712D01*
X725529Y723812D01*
X727651Y725934D01*
X727751Y726022D01*
X727862Y726096D01*
X727982Y726155D01*
X728109Y726198D01*
X728240Y726225D01*
X728373Y726233D01*
X728507Y726225D01*
D02*
G37*
G36*
X759973Y705011D02*
X760104Y704985D01*
X760231Y704942D01*
X760311Y704903D01*
X760351Y704883D01*
X760462Y704809D01*
X760563Y704721D01*
X762684Y702599D01*
X762772Y702499D01*
X762846Y702388D01*
X762905Y702268D01*
X762948Y702141D01*
X762974Y702010D01*
X762983Y701877D01*
X762974Y701743D01*
X762948Y701612D01*
X762905Y701485D01*
X762846Y701366D01*
X762772Y701254D01*
X762684Y701154D01*
X758583Y697053D01*
X758482Y696964D01*
X758371Y696890D01*
X758251Y696831D01*
X758219Y696820D01*
X758124Y696788D01*
X757993Y696762D01*
X757860Y696753D01*
X755809Y696753D01*
X755676Y696762D01*
X755545Y696788D01*
X755418Y696831D01*
X755298Y696890D01*
X755187Y696964D01*
X755087Y697053D01*
X753990Y698148D01*
X753902Y698249D01*
X753828Y698360D01*
X753769Y698480D01*
X753726Y698607D01*
X753700Y698738D01*
X753691Y698871D01*
X753700Y699005D01*
X753726Y699136D01*
X753769Y699262D01*
X753828Y699382D01*
X753902Y699493D01*
X753990Y699594D01*
X759117Y704721D01*
X759218Y704809D01*
X759329Y704883D01*
X759448Y704942D01*
X759575Y704985D01*
X759706Y705011D01*
X759840Y705020D01*
X759973Y705011D01*
D02*
G37*
G36*
X707294D02*
X707425Y704985D01*
X707551Y704942D01*
X707671Y704883D01*
X707783Y704809D01*
X707883Y704721D01*
X713010Y699594D01*
X713098Y699493D01*
X713172Y699382D01*
X713231Y699262D01*
X713274Y699136D01*
X713300Y699005D01*
X713309Y698871D01*
X713300Y698738D01*
X713274Y698607D01*
X713231Y698480D01*
X713172Y698360D01*
X713098Y698249D01*
X713010Y698148D01*
X711914Y697053D01*
X711813Y696964D01*
X711702Y696890D01*
X711582Y696831D01*
X711455Y696788D01*
X711324Y696762D01*
X711191Y696753D01*
X709140Y696753D01*
X709007Y696762D01*
X708876Y696788D01*
X708781Y696820D01*
X708749Y696831D01*
X708629Y696890D01*
X708518Y696964D01*
X708417Y697053D01*
X704316Y701154D01*
X704228Y701254D01*
X704154Y701366D01*
X704095Y701485D01*
X704052Y701612D01*
X704025Y701743D01*
X704017Y701877D01*
X704025Y702010D01*
X704052Y702141D01*
X704095Y702268D01*
X704154Y702388D01*
X704228Y702499D01*
X704316Y702599D01*
X706438Y704721D01*
X706538Y704809D01*
X706649Y704883D01*
X706689Y704903D01*
X706769Y704942D01*
X706896Y704985D01*
X707027Y705011D01*
X707160Y705020D01*
X707294Y705011D01*
D02*
G37*
G36*
X757860Y696747D02*
X757993Y696738D01*
X758124Y696712D01*
X758219Y696680D01*
X758251Y696669D01*
X758371Y696610D01*
X758482Y696536D01*
X758583Y696448D01*
X762684Y692346D01*
X762772Y692246D01*
X762846Y692134D01*
X762905Y692015D01*
X762948Y691888D01*
X762974Y691757D01*
X762983Y691624D01*
X762974Y691490D01*
X762948Y691359D01*
X762905Y691232D01*
X762846Y691112D01*
X762772Y691001D01*
X762684Y690901D01*
X760563Y688779D01*
X760462Y688691D01*
X760351Y688617D01*
X760311Y688597D01*
X760231Y688558D01*
X760104Y688515D01*
X759973Y688489D01*
X759840Y688480D01*
X759706Y688489D01*
X759575Y688515D01*
X759448Y688558D01*
X759329Y688617D01*
X759218Y688691D01*
X759117Y688779D01*
X753990Y693906D01*
X753902Y694006D01*
X753828Y694118D01*
X753769Y694238D01*
X753726Y694364D01*
X753700Y694495D01*
X753691Y694629D01*
X753700Y694762D01*
X753726Y694893D01*
X753769Y695020D01*
X753828Y695140D01*
X753902Y695251D01*
X753990Y695351D01*
X755087Y696448D01*
X755187Y696536D01*
X755298Y696610D01*
X755418Y696669D01*
X755545Y696712D01*
X755676Y696738D01*
X755809Y696747D01*
X757860Y696747D01*
D02*
G37*
G36*
X711324Y696738D02*
X711455Y696712D01*
X711582Y696669D01*
X711702Y696610D01*
X711813Y696536D01*
X711914Y696448D01*
X713010Y695351D01*
X713098Y695251D01*
X713172Y695140D01*
X713231Y695020D01*
X713274Y694893D01*
X713300Y694762D01*
X713309Y694629D01*
X713300Y694495D01*
X713274Y694364D01*
X713231Y694238D01*
X713172Y694118D01*
X713098Y694006D01*
X713010Y693906D01*
X707883Y688779D01*
X707783Y688691D01*
X707671Y688617D01*
X707551Y688558D01*
X707425Y688515D01*
X707294Y688489D01*
X707160Y688480D01*
X707027Y688489D01*
X706896Y688515D01*
X706769Y688558D01*
X706689Y688597D01*
X706649Y688617D01*
X706538Y688691D01*
X706438Y688779D01*
X704316Y690901D01*
X704228Y691001D01*
X704154Y691112D01*
X704095Y691232D01*
X704052Y691359D01*
X704025Y691490D01*
X704017Y691624D01*
X704025Y691757D01*
X704052Y691888D01*
X704095Y692015D01*
X704154Y692134D01*
X704228Y692246D01*
X704316Y692346D01*
X708417Y696448D01*
X708518Y696536D01*
X708629Y696610D01*
X708749Y696669D01*
X708781Y696680D01*
X708876Y696712D01*
X709007Y696738D01*
X709140Y696747D01*
X711191Y696747D01*
X711324Y696738D01*
D02*
G37*
G36*
X735755Y676550D02*
X735886Y676524D01*
X736012Y676481D01*
X736132Y676422D01*
X736244Y676348D01*
X736344Y676260D01*
X741471Y671133D01*
X741559Y671032D01*
X741633Y670921D01*
X741692Y670801D01*
X741735Y670675D01*
X741761Y670544D01*
X741770Y670410D01*
X741761Y670277D01*
X741735Y670146D01*
X741692Y670019D01*
X741653Y669939D01*
X741633Y669899D01*
X741559Y669788D01*
X741471Y669688D01*
X739349Y667566D01*
X739249Y667478D01*
X739138Y667404D01*
X739018Y667345D01*
X738891Y667302D01*
X738760Y667275D01*
X738626Y667267D01*
X738493Y667275D01*
X738362Y667302D01*
X738235Y667345D01*
X738115Y667404D01*
X738004Y667478D01*
X737904Y667566D01*
X733802Y671667D01*
X733714Y671768D01*
X733640Y671879D01*
X733581Y671999D01*
X733559Y672062D01*
X733538Y672126D01*
X733512Y672257D01*
X733503Y672390D01*
X733503Y674441D01*
X733512Y674574D01*
X733538Y674705D01*
X733581Y674832D01*
X733640Y674952D01*
X733714Y675063D01*
X733802Y675163D01*
X734899Y676260D01*
X734999Y676348D01*
X735110Y676422D01*
X735230Y676481D01*
X735357Y676524D01*
X735488Y676550D01*
X735621Y676559D01*
X735755Y676550D01*
D02*
G37*
G36*
X731512D02*
X731643Y676524D01*
X731770Y676481D01*
X731890Y676422D01*
X732001Y676348D01*
X732102Y676260D01*
X733197Y675163D01*
X733286Y675063D01*
X733360Y674952D01*
X733419Y674832D01*
X733462Y674705D01*
X733488Y674574D01*
X733497Y674441D01*
X733497Y672390D01*
X733488Y672257D01*
X733462Y672126D01*
X733440Y672062D01*
X733419Y671999D01*
X733360Y671879D01*
X733286Y671768D01*
X733197Y671667D01*
X729096Y667566D01*
X728996Y667478D01*
X728885Y667404D01*
X728765Y667345D01*
X728638Y667302D01*
X728507Y667275D01*
X728373Y667267D01*
X728240Y667275D01*
X728109Y667302D01*
X727982Y667345D01*
X727862Y667404D01*
X727751Y667478D01*
X727651Y667566D01*
X725529Y669688D01*
X725441Y669788D01*
X725367Y669899D01*
X725347Y669939D01*
X725308Y670019D01*
X725265Y670146D01*
X725239Y670277D01*
X725230Y670410D01*
X725239Y670544D01*
X725265Y670675D01*
X725308Y670801D01*
X725367Y670921D01*
X725441Y671032D01*
X725529Y671133D01*
X730656Y676260D01*
X730757Y676348D01*
X730868Y676422D01*
X730987Y676481D01*
X731114Y676524D01*
X731245Y676550D01*
X731379Y676559D01*
X731512Y676550D01*
D02*
G37*
G36*
X1450000Y673000D02*
X1072000D01*
Y475000D01*
X1012000D01*
Y733000D01*
X1450000D01*
Y673000D01*
D02*
G37*
D19*
X1264300Y548550D02*
D03*
X1269300D02*
D03*
X1274300D02*
D03*
X1279300D02*
D03*
X1284300D02*
D03*
X1289300D02*
D03*
X1294300D02*
D03*
X1299300D02*
D03*
D20*
X1257800D02*
D03*
X1305800D02*
D03*
X1249800D02*
D03*
X1313800D02*
D03*
D21*
X771373Y674373D02*
D03*
X766627Y669627D02*
D03*
X715123Y730623D02*
D03*
X710377Y725877D02*
D03*
D39*
X935400Y958750D02*
D03*
X884600D02*
D03*
D40*
X865550Y861250D02*
D03*
X878250D02*
D03*
X890950D02*
D03*
X903650D02*
D03*
X916350D02*
D03*
X929050D02*
D03*
X941750D02*
D03*
X954450D02*
D03*
D45*
X1430000Y970000D02*
D03*
X620000Y800000D02*
D03*
Y970000D02*
D03*
D46*
X1010000Y961000D02*
D03*
Y989000D02*
D03*
Y1008000D02*
D03*
Y1036000D02*
D03*
Y1055000D02*
D03*
Y1083000D02*
D03*
D47*
X1430000Y970000D02*
D03*
X620000Y800000D02*
D03*
Y970000D02*
D03*
D48*
X728500Y642000D02*
D03*
X743500D02*
D03*
X774500D02*
D03*
X759500D02*
D03*
X1169500Y563000D02*
D03*
X1184500D02*
D03*
X1221500Y488000D02*
D03*
X1206500D02*
D03*
X1332500Y577000D02*
D03*
X1347500D02*
D03*
X1332500Y617000D02*
D03*
X1347500D02*
D03*
X942500Y839000D02*
D03*
X927500D02*
D03*
X1132500Y830000D02*
D03*
X1117500D02*
D03*
X1132500Y815000D02*
D03*
X1117500D02*
D03*
X1195500Y837000D02*
D03*
X1180500D02*
D03*
X1182000Y980000D02*
D03*
X1167000D02*
D03*
X1197000Y995000D02*
D03*
X1182000D02*
D03*
X1197000Y1010000D02*
D03*
X1182000D02*
D03*
X1132500Y995000D02*
D03*
X1117500D02*
D03*
X1132500Y1010000D02*
D03*
X1117500D02*
D03*
X1200500Y563000D02*
D03*
X1215500D02*
D03*
X1200500Y548000D02*
D03*
X1215500D02*
D03*
D49*
X758000Y624000D02*
D03*
X744000Y624000D02*
D03*
X758000Y613000D02*
D03*
X744000Y613000D02*
D03*
D50*
X685000Y649750D02*
D03*
Y634250D02*
D03*
X864000Y748750D02*
D03*
Y733250D02*
D03*
X944000Y748750D02*
D03*
Y733250D02*
D03*
X879000Y648750D02*
D03*
Y633250D02*
D03*
X849000Y648750D02*
D03*
Y633250D02*
D03*
X944000Y633250D02*
D03*
Y648750D02*
D03*
X1401000Y614750D02*
D03*
Y599250D02*
D03*
X1386000Y614750D02*
D03*
Y599250D02*
D03*
X1372000Y658750D02*
D03*
Y643250D02*
D03*
X1415000Y658750D02*
D03*
Y643250D02*
D03*
X850000Y802750D02*
D03*
Y787250D02*
D03*
Y817250D02*
D03*
Y832750D02*
D03*
X1267500Y780250D02*
D03*
Y764750D02*
D03*
X1290000Y780250D02*
D03*
Y764750D02*
D03*
D51*
X680947Y749697D02*
D03*
X691553Y760303D02*
D03*
X692697Y738197D02*
D03*
X703303Y748803D02*
D03*
D52*
X709105Y699932D02*
D03*
X757895Y693568D02*
D03*
X730318Y721145D02*
D03*
X736682Y672355D02*
D03*
D53*
Y721145D02*
D03*
X730318Y672355D02*
D03*
X709105Y693568D02*
D03*
X757895Y699932D02*
D03*
D54*
X739687Y676421D02*
D03*
X743223Y679956D02*
D03*
X746758Y683492D02*
D03*
X750294Y687027D02*
D03*
X753829Y690563D02*
D03*
X727313Y717079D02*
D03*
X723777Y713544D02*
D03*
X720242Y710008D02*
D03*
X716706Y706473D02*
D03*
X713171Y702937D02*
D03*
D55*
X753829D02*
D03*
X750294Y706473D02*
D03*
X746758Y710008D02*
D03*
X743223Y713544D02*
D03*
X739687Y717079D02*
D03*
X713171Y690563D02*
D03*
X716706Y687027D02*
D03*
X720242Y683492D02*
D03*
X723777Y679956D02*
D03*
X727313Y676421D02*
D03*
D56*
X646000Y762000D02*
D03*
X656000D02*
D03*
X936000Y591000D02*
D03*
X946000D02*
D03*
D57*
X849000Y748500D02*
D03*
Y733500D02*
D03*
X959000Y748500D02*
D03*
Y733500D02*
D03*
X869000Y698500D02*
D03*
Y683500D02*
D03*
X864000Y633500D02*
D03*
Y648500D02*
D03*
X894000Y648500D02*
D03*
Y633500D02*
D03*
X959000Y633500D02*
D03*
Y648500D02*
D03*
X962000Y605500D02*
D03*
Y590500D02*
D03*
X1121000Y605500D02*
D03*
Y590500D02*
D03*
X1066000Y772500D02*
D03*
Y787500D02*
D03*
X1227500Y815000D02*
D03*
Y830000D02*
D03*
X1325000Y765000D02*
D03*
Y780000D02*
D03*
X1340000Y765000D02*
D03*
Y780000D02*
D03*
X1332500Y830000D02*
D03*
Y815000D02*
D03*
X1095000Y1032500D02*
D03*
Y1017500D02*
D03*
D58*
X879000Y752718D02*
D03*
Y739218D02*
D03*
X894000Y739282D02*
D03*
Y752782D02*
D03*
X914000Y752718D02*
D03*
Y739218D02*
D03*
X929000Y739282D02*
D03*
Y752782D02*
D03*
X914000Y629282D02*
D03*
Y642782D02*
D03*
X929000Y642718D02*
D03*
Y629218D02*
D03*
D59*
X919000Y706000D02*
D03*
X914000D02*
D03*
X909000D02*
D03*
X904000D02*
D03*
X899000D02*
D03*
X894000D02*
D03*
X889000D02*
D03*
X919000Y676000D02*
D03*
X914000D02*
D03*
X909000D02*
D03*
X904000D02*
D03*
X899000D02*
D03*
X894000D02*
D03*
X889000D02*
D03*
D60*
X855000Y680000D02*
D03*
Y690000D02*
D03*
X1136000Y593000D02*
D03*
Y603000D02*
D03*
X1200000Y535000D02*
D03*
Y525000D02*
D03*
X1330000Y592000D02*
D03*
Y602000D02*
D03*
X929000Y822000D02*
D03*
Y812000D02*
D03*
X1133000Y801000D02*
D03*
Y791000D02*
D03*
D61*
X864250Y664000D02*
D03*
X848750D02*
D03*
X947250Y573000D02*
D03*
X962750D02*
D03*
X947250Y558000D02*
D03*
X962750D02*
D03*
X1120250Y574000D02*
D03*
X1135750D02*
D03*
X1120250Y559000D02*
D03*
X1135750D02*
D03*
X1221750Y504000D02*
D03*
X1206250D02*
D03*
X972750Y839000D02*
D03*
X957250D02*
D03*
X972750Y824000D02*
D03*
X957250D02*
D03*
X1083250Y790000D02*
D03*
X1098750D02*
D03*
X1083250Y770000D02*
D03*
X1098750D02*
D03*
X1062250Y1032500D02*
D03*
X1077750D02*
D03*
X1062250Y1017500D02*
D03*
X1077750D02*
D03*
D62*
X1281500Y611500D02*
D03*
X1291000D02*
D03*
X1300500D02*
D03*
Y588500D02*
D03*
X1291000D02*
D03*
X1281500D02*
D03*
D63*
X1386000Y642750D02*
D03*
Y659250D02*
D03*
X1401000Y642750D02*
D03*
Y659250D02*
D03*
X1252500Y764250D02*
D03*
Y780750D02*
D03*
X1305000Y764250D02*
D03*
Y780750D02*
D03*
D64*
X1257750Y807750D02*
D03*
X1302250D02*
D03*
Y814250D02*
D03*
Y820750D02*
D03*
Y827250D02*
D03*
X1257750Y814250D02*
D03*
Y820750D02*
D03*
Y827250D02*
D03*
D65*
X1105550Y863500D02*
D03*
X1118250D02*
D03*
X1130950D02*
D03*
X1143650D02*
D03*
X1156350D02*
D03*
X1169050D02*
D03*
X1181750D02*
D03*
X1194450D02*
D03*
X1105550Y956500D02*
D03*
X1118250D02*
D03*
X1130950D02*
D03*
X1143650D02*
D03*
X1156350D02*
D03*
X1169050D02*
D03*
X1181750D02*
D03*
X1194450D02*
D03*
D66*
X1040000Y989750D02*
D03*
Y960250D02*
D03*
Y1036750D02*
D03*
Y1007250D02*
D03*
Y1083750D02*
D03*
Y1054250D02*
D03*
D67*
X1255250Y661500D02*
D03*
X1248750D02*
D03*
X1242250D02*
D03*
X1235750D02*
D03*
X1229250D02*
D03*
X1222750D02*
D03*
X1216250D02*
D03*
X1209750D02*
D03*
X1203250D02*
D03*
X1196750D02*
D03*
X1190250D02*
D03*
X1183750D02*
D03*
X1177250D02*
D03*
X1170750D02*
D03*
X1255250Y590500D02*
D03*
X1248750D02*
D03*
X1242250D02*
D03*
X1235750D02*
D03*
X1229250D02*
D03*
X1222750D02*
D03*
X1216250D02*
D03*
X1209750D02*
D03*
X1203250D02*
D03*
X1196750D02*
D03*
X1190250D02*
D03*
X1183750D02*
D03*
X1177250D02*
D03*
X1170750D02*
D03*
D68*
X995500Y610450D02*
D03*
Y597750D02*
D03*
Y585050D02*
D03*
Y572350D02*
D03*
Y559650D02*
D03*
Y546950D02*
D03*
Y534250D02*
D03*
Y521550D02*
D03*
X1088500Y610450D02*
D03*
Y597750D02*
D03*
Y585050D02*
D03*
Y572350D02*
D03*
Y559650D02*
D03*
Y546950D02*
D03*
Y534250D02*
D03*
Y521550D02*
D03*
D69*
X1238600Y501000D02*
D03*
X1325000D02*
D03*
D70*
X1238600Y542800D02*
D03*
X1325000D02*
D03*
D71*
X1252900Y537800D02*
D03*
X1310700D02*
D03*
D72*
X1324350Y980650D02*
D03*
X1265650D02*
D03*
X1324350Y1039350D02*
D03*
X1265650D02*
D03*
X1324350Y1110650D02*
D03*
X1265650D02*
D03*
X1324350Y1169350D02*
D03*
X1265650D02*
D03*
X725650Y1039350D02*
D03*
X784350D02*
D03*
X725650Y980650D02*
D03*
X784350D02*
D03*
X784350Y1110650D02*
D03*
X725650D02*
D03*
X784350Y1169350D02*
D03*
X725650D02*
D03*
D73*
X641350Y653600D02*
D03*
Y666300D02*
D03*
X628650Y653600D02*
D03*
Y666300D02*
D03*
X641350Y679000D02*
D03*
Y691700D02*
D03*
X628650Y679000D02*
D03*
Y691700D02*
D03*
X641350Y704400D02*
D03*
D74*
X628650D02*
D03*
D75*
X1410000Y790000D02*
D03*
D76*
Y815400D02*
D03*
D77*
X1400000Y525000D02*
D03*
X650000D02*
D03*
X1400000Y1175000D02*
D03*
X650000D02*
D03*
D78*
X987166Y973834D02*
D03*
Y997834D02*
D03*
Y1023834D02*
D03*
X1108603Y1022347D02*
D03*
X1108537Y1032334D02*
D03*
X1157000Y567000D02*
D03*
X1114000Y522000D02*
D03*
X857000Y765000D02*
D03*
X627000Y770000D02*
D03*
X1110334Y780275D02*
D03*
X821997Y562354D02*
D03*
X923529Y565748D02*
D03*
X985500Y732500D02*
D03*
X986000Y650000D02*
D03*
X872000Y812000D02*
D03*
X687000Y672000D02*
D03*
X833000Y692000D02*
D03*
X786000Y684000D02*
D03*
X764000Y736000D02*
D03*
X1372000Y612000D02*
D03*
Y629000D02*
D03*
X1135014Y619008D02*
D03*
X1122000Y619000D02*
D03*
X1240000Y644000D02*
D03*
X1211000Y607000D02*
D03*
X1215000Y644000D02*
D03*
X1415000Y629000D02*
D03*
X1416000Y615000D02*
D03*
X1242000Y562000D02*
D03*
X1319391Y562390D02*
D03*
X1333000Y636040D02*
D03*
X1348000D02*
D03*
Y591000D02*
D03*
X1170000Y549000D02*
D03*
X1200289Y607057D02*
D03*
X1215750Y522250D02*
D03*
Y533250D02*
D03*
X1386000Y629000D02*
D03*
X1256000Y608000D02*
D03*
X1239000Y607000D02*
D03*
X1401000Y629000D02*
D03*
X1238000Y573000D02*
D03*
X1255000Y644000D02*
D03*
X1148000Y559000D02*
D03*
X1229000Y644000D02*
D03*
X1148000Y574000D02*
D03*
X838500Y720000D02*
D03*
X854000Y712000D02*
D03*
X838000Y701000D02*
D03*
X929000Y801000D02*
D03*
X989000Y839000D02*
D03*
Y824000D02*
D03*
X923000Y591000D02*
D03*
X1147000Y791000D02*
D03*
X1118000Y771000D02*
D03*
Y790000D02*
D03*
X636000Y762000D02*
D03*
X780000Y657000D02*
D03*
X668000Y762000D02*
D03*
X789000Y668000D02*
D03*
X853000Y701000D02*
D03*
X679500Y773000D02*
D03*
X755000Y655000D02*
D03*
X968000Y534000D02*
D03*
X943000Y605000D02*
D03*
X822000Y573000D02*
D03*
X931000D02*
D03*
X778000Y692000D02*
D03*
X876000Y665000D02*
D03*
X1198000Y978000D02*
D03*
X1152000Y989000D02*
D03*
X685000Y619000D02*
D03*
X899000Y619000D02*
D03*
X951000Y666000D02*
D03*
Y718000D02*
D03*
X698000Y675034D02*
D03*
X677000Y664000D02*
D03*
X775000Y736000D02*
D03*
X834000Y803000D02*
D03*
X914000Y619000D02*
D03*
X929000D02*
D03*
X747250Y756945D02*
D03*
Y746405D02*
D03*
X975250Y732500D02*
D03*
X975250Y649500D02*
D03*
X865000Y803000D02*
D03*
X916350Y826350D02*
D03*
X1212000Y815000D02*
D03*
X1212250Y830000D02*
D03*
X1253000Y748000D02*
D03*
X1279000D02*
D03*
X1316000D02*
D03*
X1330000D02*
D03*
X1350000Y815000D02*
D03*
X879000Y765000D02*
D03*
X894000Y764000D02*
D03*
X929000D02*
D03*
X914000D02*
D03*
X834000Y833000D02*
D03*
Y787000D02*
D03*
X1099000Y815000D02*
D03*
X1166000Y838000D02*
D03*
X1180000Y823040D02*
D03*
X1131000Y844000D02*
D03*
X1118000D02*
D03*
X865000Y841000D02*
D03*
X942000Y820000D02*
D03*
X1131000Y977000D02*
D03*
X1118000D02*
D03*
D79*
X1282000Y645000D02*
D03*
X1168400Y533400D02*
D03*
Y508000D02*
D03*
D80*
X1257000Y562000D02*
D03*
X1300000Y561000D02*
D03*
X1193024Y496244D02*
D03*
X1338000Y591000D02*
D03*
X1291000Y575000D02*
D03*
X1285971Y622275D02*
D03*
M02*
