M48
;Layer_Color=9474304
;FILE_FORMAT=4:4
METRIC,LZ
;TYPE=PLATED
T01F00S00C0.1500
T02F00S00C0.2500
T04F00S00C0.7000
T05F00S00C0.8000
T06F00S00C1.3000
T07F00S00C1.8500
T08F00S00C3.0000
;TYPE=NON_PLATED
T09F00S00C0.6500
%
T01
X01193024Y00496244
X01257Y00562
X013Y00561
X01291Y00575
X01285971Y00622275
X01338Y00591
T02
X0121575Y0052225
Y0053325
X01242Y00562
X01238Y00573
X01239Y00607
X01256Y00608
X01255Y00644
X0124
X01229
X01215
X01211Y00607
X01200289Y00607057
X013Y006
X0135
X01348Y00591
X01386Y00586
X01401
Y00629
X01415
X01416Y00615
X01386Y00629
X01372
Y00612
X01348Y0063604
X01333
X01319391Y0056239
X01375Y0055
X01425
X014Y005
X0135
X0133Y00748
X01316
X01279
X01253
X01225Y0075
X01375
X01425
X01175
X01147Y00791
X01118Y0079
X01110334Y00780275
X01118Y00771
X01026Y00755
X009855Y007325
X0097525Y007325
X00951Y00718
Y00666
X0097525Y006495
X00986Y0065
X01Y007
X00929Y00764
X00914
X00894
X00879Y00765
X00857Y00765
X00834Y00787
X008385Y0072
X00838Y00701
X00833Y00692
X00853Y00701
X00854Y00712
X00876Y00665
X00861Y00615
X00899Y00619
X00914
X00929
X00943Y00605
X00923Y00591
X00923529Y00565748
X00931Y00573
X00925Y0055
X00975
X00968Y00534
X0095Y005
X01
X011
X01114Y00522
X01125Y0055
X01148Y00559
Y00574
X01157Y00567
X0117Y00549
X0115Y006
X01135014Y00619008
X01122Y00619
X01113Y0065
X00816Y00649
X00822Y00573
X00821997Y00562354
X00825Y0055
X00875
X009Y005
X0085
X008
X0075
X007
X0065
X00675Y0055
X00725
X00775
X0079Y00622
X0078Y00657
X00789Y00668
X00786Y00684
X00778Y00692
X00775Y00736
X00764
X0074725Y00746405
Y00756945
X00765Y00789
X006795Y00773
X00668Y00762
X00636
X00627Y0077
X00650609Y00736631
X00677Y00664
X00687Y00672
X00698Y00675034
X00685Y00619
X00755Y00655
X007Y008
X0065
X0066Y0096
X0069
X00675Y0099
X00645
X0066Y0102
X0069
X00705Y0105
X00675
X00645
X0066Y0108
X0063
X00645Y0111
X0066Y0114
X0063
Y0102
X0075Y0096
X0081
X00825Y0099
X0081Y0102
X00987166Y01023834
Y00997834
Y00973834
X01065Y0099
X01095
X01118Y00977
X01131
X01152Y00989
X0117Y0102
X01185Y0105
X01155
X01125
X01095
X01065
X01108537Y01032334
X01108603Y01022347
X0108Y0096
X01118Y00844
X01131
X01166Y00838
X0118Y0082304
X01099Y00815
X0105Y008
X01
X00989Y00824
Y00839
X01026
X00942Y0082
X0091635Y0082635
X00929Y00801
X00865Y00803
X00872Y00812
X00865Y00841
X00834Y00833
Y00803
X012Y008
X01212Y00815
X0121225Y0083
X0126Y00855
X01297
Y00795
X0126
X0135Y008
X0135Y00815
X01375Y00855
X0138Y0096
X0141
X01425Y0099
X01395
X01365
X0138Y0102
X0141
X01425Y0105
X01395
X01365
X0138Y0108
X0141
X01425Y0111
X01395
X0141Y0114
X0138
X0135Y0108
Y0102
Y0096
X0129
X0123
X01215Y0099
X01198Y00978
X0123Y0102
X01245Y0105
X01215
X0138Y012
X009
T04
X0062865Y006536
X0064135
Y006663
X0062865
Y00679
X0064135
Y006917
X0062865
Y007044
X0064135
T05
X01282Y00645
X011684Y005334
Y00508
T06
X0141Y0079
Y008154
T07
X0072565Y0098065
Y0103935
X0078435
Y0098065
X0078435Y0111065
X0072565
Y0116935
X0078435
X0126565
Y0111065
X0132435
Y0116935
Y0103935
Y0098065
X0126565
Y0103935
T08
X014Y00525
X0065
Y01175
X014
T09
X012529Y005378
X013107
M30
